<svg width="2456" height="2245" viewBox="0 0 2456 2245" fill="none" xmlns="http://www.w3.org/2000/svg">
<path d="M393.446 562.576C527.594 302.295 776.459 105.389 1086.7 77.6582C1297.84 58.7896 1514.72 120.828 1682.9 250.117C1767.57 315.204 1842.81 398.476 1892.76 493.347C1950.12 602.316 1966.81 727.93 2025.83 836.362C2099.21 971.195 2236.99 1026.79 2329.52 1143.3C2405.72 1239.25 2431.86 1367.81 2423.11 1490.02C2407.15 1713.1 2276.43 1924.91 2084.18 2039.23C1921.65 2135.87 1725.72 2162.54 1536.82 2153.77C1245.61 2140.23 955.655 2044.22 726.284 1864.3C496.913 1684.38 332.023 1418.44 292.976 1129.57C266.438 933.241 305.018 734.141 393.446 562.576Z" fill="#407BFF"/>
<path opacity="0.7" d="M515.892 659.014C641.954 414.493 875.817 229.509 1167.36 203.457C1365.77 185.731 1569.57 244.013 1727.62 365.474C1807.18 426.62 1877.89 504.85 1924.82 593.977C1978.73 696.348 1994.42 814.356 2049.88 916.223C2118.84 1042.89 2248.31 1095.12 2335.26 1204.58C2406.86 1294.72 2431.43 1415.5 2423.21 1530.3C2408.21 1739.88 2285.37 1938.86 2104.71 2046.26C1951.98 2137.05 1767.85 2162.11 1590.35 2153.86C1316.69 2141.15 1044.21 2050.95 828.667 1881.93C613.123 1712.9 458.172 1463.06 421.479 1191.68C396.54 1007.24 432.795 820.191 515.892 659.014Z" fill="white"/>
<path d="M2325.66 1257C2382.21 1288.78 2317.41 1366.54 2317.41 1411.9C2317.41 1457.26 2382.21 1450.78 2414.61 1463.74C2427.57 1463.74 2453.49 1463.74 2452.79 1496.7" stroke="#263238" stroke-width="5" stroke-miterlimit="10" stroke-linecap="round" stroke-linejoin="round"/>
<path d="M2262.61 1298.07C2272.44 1351.69 2333.98 1332.67 2371.62 1344.91C2436.32 1365.96 2400.45 1432.85 2381.1 1473.26C2369.54 1497.43 2358.01 1531.19 2378.69 1554.11" stroke="#263238" stroke-width="5" stroke-miterlimit="10" stroke-linecap="round" stroke-linejoin="round"/>
<path d="M2270.88 1318.87L2338.33 1262.83" stroke="#263238" stroke-width="5" stroke-miterlimit="10" stroke-linecap="round" stroke-linejoin="round"/>
<path d="M2297.35 1335.59L2348.14 1293.46" stroke="#263238" stroke-width="5" stroke-miterlimit="10" stroke-linecap="round" stroke-linejoin="round"/>
<path d="M2327.2 1378.21L2370.11 1344.5" stroke="#263238" stroke-width="5" stroke-miterlimit="10" stroke-linecap="round" stroke-linejoin="round"/>
<path d="M2318.34 1428.66L2402.19 1368.35" stroke="#263238" stroke-width="5" stroke-miterlimit="10" stroke-linecap="round" stroke-linejoin="round"/>
<path d="M2350.45 1452.18L2408.9 1409.27" stroke="#263238" stroke-width="5" stroke-miterlimit="10" stroke-linecap="round" stroke-linejoin="round"/>
<path d="M2375.32 1543.35L2448.38 1483.87" stroke="#263238" stroke-width="5" stroke-miterlimit="10" stroke-linecap="round" stroke-linejoin="round"/>
<path d="M2377.13 1496.55L2424.8 1463.05" stroke="#263238" stroke-width="5" stroke-miterlimit="10" stroke-linecap="round" stroke-linejoin="round"/>
<path d="M335.293 1592.77C404.888 1564.94 438.745 1485.96 410.915 1416.36C383.084 1346.77 304.105 1312.91 234.509 1340.74C164.914 1368.57 131.057 1447.55 158.888 1517.15C186.718 1586.74 265.698 1620.6 335.293 1592.77Z" stroke="#263238" stroke-width="5" stroke-miterlimit="10" stroke-linecap="round" stroke-linejoin="round"/>
<path d="M319.125 1335.39C366.422 1279.89 406.643 1248.43 422.157 1258.65C445.711 1274.18 403.391 1379.92 327.633 1494.83C251.875 1609.75 171.368 1690.32 147.819 1674.79C132.306 1664.57 145.37 1615.19 177.75 1549.84" stroke="#263238" stroke-width="5" stroke-miterlimit="10" stroke-linecap="round" stroke-linejoin="round"/>
<path d="M152.161 1494.54C86.2333 1475.56 44.1069 1453.41 46.7248 1435.7C50.8525 1407.79 164.577 1401.5 300.728 1421.64C436.886 1441.78 543.916 1480.73 539.782 1508.64C536.924 1527.95 481.649 1536.91 402.794 1533.93" stroke="#263238" stroke-width="5" stroke-miterlimit="10" stroke-linecap="round" stroke-linejoin="round"/>
<path d="M169.464 1396.26C119.71 1306.46 94.8269 1236.39 111.707 1225.46C133.856 1211.12 219.509 1304.04 303.029 1433.01C386.55 1561.97 436.297 1678.15 414.148 1692.49C399.504 1701.98 357.066 1664.54 305.842 1600.78" stroke="#263238" stroke-width="5" stroke-miterlimit="10" stroke-linecap="round" stroke-linejoin="round"/>
<path d="M441.245 1317.4C434.46 1327.69 420.625 1330.53 410.335 1323.75C400.045 1316.96 397.207 1303.13 403.985 1292.84C410.769 1282.55 424.604 1279.71 434.894 1286.49C445.185 1293.27 448.029 1307.11 441.245 1317.4Z" fill="#263238"/>
<path d="M367.427 1658.82C360.642 1669.11 346.807 1671.94 336.517 1665.17C326.227 1658.38 323.389 1644.55 330.173 1634.26C336.958 1623.97 350.793 1621.13 361.083 1627.91C371.367 1634.69 374.211 1648.53 367.427 1658.82Z" fill="#263238"/>
<path d="M248.37 1427.29C241.585 1437.58 227.75 1440.41 217.46 1433.64C207.17 1426.85 204.332 1413.02 211.11 1402.73C217.894 1392.44 231.729 1389.6 242.019 1396.38C252.31 1403.16 255.154 1417 248.37 1427.29Z" fill="#263238"/>
<path d="M1053.35 104.341C1070.59 45.7615 1124.77 3 1188.93 3C1255.26 3 1310.93 48.7099 1326.13 110.348" stroke="#263238" stroke-width="5" stroke-miterlimit="10" stroke-linecap="round" stroke-linejoin="round"/>
<path d="M1172.91 284.725C1102.41 276.768 1047.62 216.944 1047.62 144.316" stroke="#263238" stroke-width="5" stroke-miterlimit="10" stroke-linecap="round" stroke-linejoin="round"/>
<path d="M1330.24 144.316C1330.24 222.355 1266.97 285.626 1188.93 285.626" stroke="#263238" stroke-width="5" stroke-miterlimit="10" stroke-linecap="round" stroke-linejoin="round"/>
<path d="M1338.25 54.7239C1382.45 49.0539 1412.07 52.1319 1416.64 65.2993C1425.78 91.634 1331.23 148.36 1205.48 191.996C1079.71 235.639 970.357 249.668 961.22 223.334C956.334 209.259 981.075 186.495 1024.37 161.689" stroke="#263238" stroke-width="5" stroke-miterlimit="10" stroke-linecap="round" stroke-linejoin="round"/>
<path d="M2104.43 567L2117.98 594.436L2148.26 598.836L2126.34 620.194L2131.51 650.352L2104.43 636.116L2077.35 650.352L2082.52 620.194L2060.61 598.836L2090.89 594.436L2104.43 567Z" stroke="#263238" stroke-width="5" stroke-miterlimit="10" stroke-linecap="round" stroke-linejoin="round"/>
<path d="M817.288 641.261L827.202 618.976L811.145 610.112C811.715 606.146 811.832 602.18 811.469 598.273L827.941 590.257L819.193 567.486L801.587 572.567C799.241 569.424 796.5 566.553 793.422 563.987L799.409 546.653L777.125 536.739L768.26 552.796C764.295 552.226 760.329 552.109 756.421 552.472L748.405 536L725.635 544.748L730.715 562.354C727.572 564.7 724.702 567.441 722.136 570.525L704.802 564.538L694.887 586.823L710.945 595.687C710.374 599.653 710.258 603.619 710.621 607.526L694.148 615.542L702.896 638.313L720.496 633.232C722.842 636.375 725.583 639.246 728.667 641.812L722.68 659.146L744.965 669.06L753.829 653.009C757.795 653.58 761.761 653.69 765.668 653.333L773.684 669.806L796.455 661.057L791.374 643.451C794.517 641.106 797.388 638.364 799.954 635.286L817.288 641.261ZM749.52 628.8C735.219 622.437 728.777 605.686 735.141 591.385C741.504 577.083 758.255 570.642 772.556 577.005C786.858 583.369 793.299 600.12 786.936 614.421C780.579 628.722 763.828 635.157 749.52 628.8Z" stroke="#263238" stroke-width="5" stroke-miterlimit="10" stroke-linecap="round" stroke-linejoin="round"/>
<path d="M698.865 755.639L712.33 725.371L690.525 713.332C691.303 707.947 691.452 702.555 690.959 697.248L713.335 686.362L701.45 655.439L677.545 662.34C674.357 658.07 670.638 654.169 666.452 650.689L674.584 627.148L644.316 613.682L632.276 635.487C626.891 634.71 621.5 634.561 616.193 635.053L605.307 612.678L574.384 624.562L581.279 648.467C577.008 651.655 573.107 655.374 569.628 659.561L546.086 651.428L532.62 681.696L554.425 693.736C553.648 699.121 553.499 704.512 553.985 709.819L531.609 720.706L543.494 751.628L567.398 744.734C570.587 749.004 574.306 752.905 578.492 756.385L570.36 779.927L600.628 793.392L612.668 771.587C618.053 772.364 623.444 772.513 628.751 772.027L639.638 794.403L670.56 782.519L663.659 758.614C667.929 755.426 671.83 751.706 675.31 747.52L698.865 755.639ZM606.836 738.707C587.409 730.069 578.667 707.318 587.305 687.891C595.943 668.464 618.694 659.723 638.121 668.36C657.548 676.998 666.29 699.749 657.652 719.177C649.014 738.604 626.263 747.352 606.836 738.707Z" stroke="#263238" stroke-width="5" stroke-miterlimit="10" stroke-linecap="round" stroke-linejoin="round"/>
<path d="M2081.91 1975.75C2047.17 2004.65 1779.63 2188.28 1397.81 2158.69C1377.27 1984.9 1298.93 1270.87 1388.03 1158.96C1388.03 1158.96 1604.2 1055.86 1803.33 1099.15C2002.46 1142.43 2079.96 1183.91 2094.15 1219.81C2104.91 1246.96 2089.55 1752.51 2081.91 1975.75Z" fill="#263238"/>
<path d="M1796.72 1175.42C1682.02 1274.76 1534.28 1253.76 1537.52 1177.49C1538.04 1165.57 1550.8 1150.79 1550.8 1150.79C1550.8 1150.79 1549.12 1148.27 1546.33 1143.92C1542.06 1137.44 1535.12 1126.88 1527.09 1114.57C1512.9 1092.6 1495.14 1065 1482.76 1044.91C1472.4 1027.8 1730.88 868.784 1730.88 960.217C1730.88 1089.04 1794.13 1113.27 1794.13 1113.27C1817.78 1122.86 1839.94 1138.03 1796.72 1175.42Z" fill="white" stroke="#263238" stroke-width="5" stroke-miterlimit="10" stroke-linecap="round" stroke-linejoin="round"/>
<path d="M1869.2 1372.16C1869.2 1372.16 1846.09 1451.45 1857.08 1474.18" stroke="white" stroke-width="5" stroke-miterlimit="10" stroke-linecap="round" stroke-linejoin="round"/>
<path d="M1842.22 1141.83C1842.22 1218.37 1613.92 1293.33 1547.02 1216.57" stroke="white" stroke-width="5" stroke-miterlimit="10" stroke-linecap="round" stroke-linejoin="round"/>
<path d="M1654.42 1053.53C1654.42 1053.53 1639.06 1111.18 1567.92 1156.25C1567.92 1156.25 1564.29 1148.34 1552.56 1144.12C1550.48 1143.37 1548.28 1144.05 1546.34 1143.93C1542.06 1137.45 1535.13 1126.88 1527.09 1114.57C1563.44 1088.2 1654.42 1053.53 1654.42 1053.53Z" fill="#263238"/>
<path d="M1686.42 982.651C1686.42 982.651 1685.68 1039.56 1673.63 1051.11C1583.21 1137.83 1494.84 1144.68 1480.25 1121.81C1382.1 967.883 1405.29 927.292 1395.28 901.087C1377.6 854.788 1355.9 779.257 1365.47 733.489C1386.84 631.267 1579.46 552.288 1680.68 654.789C1729.27 703.998 1744.64 810.737 1734.37 899.636" fill="white"/>
<path d="M1686.42 982.651C1686.42 982.651 1685.68 1039.56 1673.63 1051.11C1583.21 1137.83 1494.84 1144.68 1480.25 1121.81C1382.1 967.883 1405.29 927.292 1395.28 901.087C1377.6 854.788 1355.9 779.257 1365.47 733.489C1386.84 631.267 1579.46 552.288 1680.68 654.789C1729.27 703.998 1744.64 810.737 1734.37 899.636" stroke="#263238" stroke-width="5" stroke-miterlimit="10" stroke-linecap="round" stroke-linejoin="round"/>
<path d="M1407.53 853.471C1407.53 853.471 1380.55 841.354 1374.7 855.817" stroke="#263238" stroke-width="5" stroke-miterlimit="10" stroke-linecap="round" stroke-linejoin="round"/>
<path d="M1473.06 854.101C1473.06 854.101 1529.25 830.579 1554.5 859.117" stroke="#263238" stroke-width="5" stroke-miterlimit="10" stroke-linecap="round" stroke-linejoin="round"/>
<path d="M1535.21 894.23C1536.13 902.661 1532.01 910.028 1526.01 910.683C1520.01 911.337 1514.4 905.032 1513.48 896.602C1512.56 888.171 1516.67 880.804 1522.67 880.149C1528.68 879.488 1534.28 885.793 1535.21 894.23Z" fill="#263238"/>
<path d="M1425.19 896.778C1426.11 905.208 1421.99 912.576 1415.99 913.231C1409.99 913.885 1404.38 907.58 1403.46 899.143C1402.54 890.713 1406.66 883.345 1412.66 882.69C1418.66 882.042 1424.27 888.347 1425.19 896.778Z" fill="#263238"/>
<path d="M1428 874.643C1435.85 887.279 1431.55 908.838 1421.22 938.419C1410.89 968 1419.99 978.75 1459.75 981.731" fill="white"/>
<path d="M1428 874.643C1435.85 887.279 1431.55 908.838 1421.22 938.419C1410.89 968 1419.99 978.75 1459.75 981.731" stroke="#263238" stroke-width="5" stroke-miterlimit="10" stroke-linecap="round" stroke-linejoin="round"/>
<path d="M1459.75 1032.99C1459.75 1032.99 1511.73 1028.24 1535.34 1015.23" stroke="#263238" stroke-width="5" stroke-miterlimit="10" stroke-linecap="round" stroke-linejoin="round"/>
<path d="M1788.07 739.184C1788.06 700.674 1750.1 621.689 1683.43 612.824C1645.19 572.765 1590.57 558.042 1524.34 573.264C1371.33 608.437 1324.75 759.512 1318.02 784.557C1317.37 786.884 1317.09 788.173 1317.09 788.173L1358.05 777.773L1340.39 812.227L1361.86 826.399L1356.95 831.848L1381.81 855.811L1374.03 812.039C1378.84 783.728 1411.34 744.245 1411.34 744.245C1392.39 766.984 1390 797.323 1390 797.323C1402.84 763.666 1480.73 732.763 1480.73 732.763C1455.5 753.214 1442.07 793.292 1442.07 793.292C1466.08 763.744 1522.26 744.602 1558.2 734.441C1570.34 763.705 1589.58 794.219 1617.06 811.132C1642.95 827.06 1642.04 859.933 1642.04 859.933C1687.04 889.365 1700.24 940.058 1700.24 940.058L1731.6 982.955C1731.6 982.955 1788.12 913.276 1788.07 739.184Z" fill="#263238"/>
<path d="M1656.18 870.727C1645.69 848.216 1683.8 787.336 1710.78 794.879C1725.95 799.117 1745.77 826.787 1749.63 855.856C1753.48 884.925 1732.94 939.837 1711.04 952.058C1697.14 959.815 1685.68 938.677 1685.68 938.677" fill="white"/>
<path d="M1656.18 870.727C1645.69 848.216 1683.8 787.336 1710.78 794.879C1725.95 799.117 1745.77 826.787 1749.63 855.856C1753.48 884.925 1732.94 939.837 1711.04 952.058C1697.14 959.815 1685.68 938.677 1685.68 938.677" stroke="#263238" stroke-width="5" stroke-miterlimit="10" stroke-linecap="round" stroke-linejoin="round"/>
<path d="M3 1970.57L735.143 1799.41L2262.35 1975.75L1869.2 2244.68L3 1970.57Z" fill="white"/>
<path d="M3 1970.57L735.143 1799.41L2262.35 1975.75" fill="white"/>
<path d="M3 1970.57L735.143 1799.41L2262.35 1975.75" stroke="#263238" stroke-width="5" stroke-miterlimit="10" stroke-linecap="round" stroke-linejoin="round"/>
<path d="M636.613 2004.92L933.009 1873.93L1307.72 1893.27L1141.09 2035.75L636.613 2004.92Z" fill="white" stroke="#263238" stroke-width="5" stroke-miterlimit="10" stroke-linecap="round" stroke-linejoin="round"/>
<path d="M1402.5 1152.57C1307.43 1191.45 1286.93 1278.84 1125.42 1624.27C1125.42 1624.27 1053.64 1639 1015.19 1726.17C976.736 1813.33 1040.82 1882.16 1115.17 1879.79C1115.17 1879.79 1144.89 1905.62 1205.65 1903.05C1266.41 1900.49 1536.37 1488.01 1536.37 1488.01L1402.5 1152.57Z" fill="#263238"/>
<path d="M1153.7 1644.49C1196.23 1682.37 1220.64 1737.89 1207.68 1799.42" stroke="white" stroke-width="5" stroke-miterlimit="10" stroke-linecap="round" stroke-linejoin="round"/>
<path d="M1194.71 1662.69C1194.71 1662.69 1246.98 1674.09 1255.03 1741.02" stroke="white" stroke-width="5" stroke-miterlimit="10" stroke-linecap="round" stroke-linejoin="round"/>
<path d="M1347.64 1467.01C1347.64 1467.01 1307.72 1378.91 1322.89 1274.75" stroke="white" stroke-width="5" stroke-miterlimit="10" stroke-linecap="round" stroke-linejoin="round"/>
<path d="M1340.17 1378.9C1336.19 1406.12 1364.32 1550.99 1364.13 1703.38" stroke="white" stroke-width="5" stroke-miterlimit="10" stroke-linecap="round" stroke-linejoin="round"/>
<path d="M2050.74 1181.09C2169.66 1240.86 2183.8 1424.71 2071.58 1644.49C1992.35 1799.64 1882.95 2028.7 1813.74 2044.09C1744.52 2059.47 1677.05 2016.35 1677.05 2016.35C1677.05 2016.35 1618.7 2013.61 1601.11 1972.17C1552.9 1858.55 1675.45 1715.6 1723.66 1749.85C1723.66 1749.85 1877.61 1415.03 1905.67 1393.95" fill="#263238"/>
<path d="M1590.07 1903.22C1574.11 1825.04 1697.16 1732.76 1723.65 1749.85C1723.65 1749.85 1815.09 1754.98 1828.76 1818.21" stroke="white" stroke-width="5" stroke-miterlimit="10" stroke-linecap="round" stroke-linejoin="round"/>
<path d="M1925.03 1919.94C1978.56 1825.5 2071.58 1644.48 2071.58 1644.48" stroke="white" stroke-width="5" stroke-miterlimit="10" stroke-linecap="round" stroke-linejoin="round"/>
<path d="M1723.65 1749.85C1723.65 1749.85 1787.74 1711.54 1835.59 1747.78" stroke="white" stroke-width="5" stroke-miterlimit="10" stroke-linecap="round" stroke-linejoin="round"/>
<path d="M1745.26 1703.38C1745.26 1703.38 1780.66 1625.76 1816.7 1554.13C1852.74 1482.51 1934.71 1377.28 1968.9 1372.16" stroke="white" stroke-width="5" stroke-miterlimit="10" stroke-linecap="round" stroke-linejoin="round"/>
<path d="M1069.93 1843.05C1062.48 1842.66 1055.02 1840.78 1047.9 1837.03C937.541 1779.55 852.07 1684.55 800.489 1616.38C764.655 1569.01 745.215 1534.54 745.215 1534.54L771.653 1421.27C771.653 1421.27 796.536 1485.81 896.523 1549.77C996.444 1613.73 1115.29 1634.46 1153.71 1698.55C1187.73 1755.31 1127.79 1845.97 1069.93 1843.05Z" fill="white"/>
<mask id="mask0_18_472" style="mask-type:luminance" maskUnits="userSpaceOnUse" x="745" y="1421" width="419" height="423">
<path d="M1069.93 1843.05C1062.48 1842.66 1055.02 1840.78 1047.9 1837.03C937.541 1779.55 852.07 1684.55 800.489 1616.38C764.655 1569.01 745.215 1534.54 745.215 1534.54L771.653 1421.27C771.653 1421.27 796.536 1485.81 896.523 1549.77C996.444 1613.73 1115.29 1634.46 1153.71 1698.55C1187.73 1755.31 1127.79 1845.97 1069.93 1843.05Z" fill="white"/>
</mask>
<g mask="url(#mask0_18_472)">
<path opacity="0.4" d="M1069.93 1843.05C1068.76 1835.47 1066.69 1827.5 1063.32 1819.14C1040.18 1761.21 900.216 1646.06 900.216 1646.06C866.909 1645.02 830.297 1631.16 800.489 1616.38C764.655 1569.01 745.215 1534.54 745.215 1534.54L771.653 1421.27C771.653 1421.27 796.536 1485.81 896.523 1549.77C996.444 1613.73 1115.29 1634.46 1153.71 1698.55C1187.73 1755.31 1127.79 1845.97 1069.93 1843.05Z" fill="#407BFF"/>
</g>
<path d="M1069.93 1843.05C1062.48 1842.66 1055.02 1840.78 1047.9 1837.03C937.541 1779.55 852.07 1684.55 800.489 1616.38C764.655 1569.01 745.215 1534.54 745.215 1534.54L771.653 1421.27C771.653 1421.27 796.536 1485.81 896.523 1549.77C996.444 1613.73 1115.29 1634.46 1153.71 1698.55C1187.73 1755.31 1127.79 1845.97 1069.93 1843.05Z" stroke="#263238" stroke-width="5" stroke-miterlimit="10" stroke-linecap="round" stroke-linejoin="round"/>
<path d="M820.439 1527.9C820.439 1527.9 806.766 1588.34 770.737 1574.79C751.207 1567.45 713.83 1509.37 706.754 1480.11L820.439 1527.9Z" fill="white" stroke="#263238" stroke-width="5" stroke-miterlimit="10" stroke-linecap="round" stroke-linejoin="round"/>
<path d="M661.637 1156.07L691.049 1140.85C691.049 1140.85 774.201 1141.59 825.782 1183.51C872.632 1221.59 896.362 1281.29 896.362 1281.29C896.362 1281.29 1078.42 1180.78 1264.3 1238.46L1340.16 1661.04L991.598 1684.04L774.052 1477.17L661.637 1156.07Z" fill="white" stroke="#263238" stroke-width="5" stroke-miterlimit="10" stroke-linecap="round" stroke-linejoin="round"/>
<path d="M1364.12 1677.94C1364.12 1677.94 1323.23 1676.71 1268.54 1678.52C1185.85 1681.12 1071.61 1690.45 1019.38 1720.84L1016.92 1720L969.098 1703.34C969.098 1703.34 968.774 1702.89 968.126 1701.92C959.313 1688.83 888.228 1586.9 786.816 1545.36L643.219 1144.12C643.219 1144.12 792.324 1150.79 873.712 1285.25L914.601 1300.03C914.601 1300.03 1157.93 1227.97 1294.13 1253.89L1364.12 1677.94Z" fill="#407BFF"/>
<mask id="mask1_18_472" style="mask-type:luminance" maskUnits="userSpaceOnUse" x="643" y="1144" width="722" height="577">
<path d="M1364.12 1677.94C1364.12 1677.94 1323.23 1676.71 1268.54 1678.52C1185.85 1681.12 1071.61 1690.45 1019.38 1720.84L1016.92 1720L969.098 1703.34C969.098 1703.34 968.774 1702.89 968.126 1701.92C959.313 1688.83 888.228 1586.9 786.816 1545.36L643.219 1144.12C643.219 1144.12 792.324 1150.79 873.712 1285.25L914.601 1300.03C914.601 1300.03 1157.93 1227.97 1294.13 1253.89L1364.12 1677.94Z" fill="white"/>
</mask>
<g mask="url(#mask1_18_472)">
<path opacity="0.3" d="M968.126 1701.92C959.313 1688.83 888.228 1586.9 786.816 1545.36L643.219 1144.12C643.219 1144.12 792.324 1150.79 873.712 1285.25L968.126 1701.92Z" fill="black" fill-opacity="0.7"/>
</g>
<mask id="mask2_18_472" style="mask-type:luminance" maskUnits="userSpaceOnUse" x="643" y="1144" width="722" height="577">
<path d="M1364.12 1677.94C1364.12 1677.94 1323.23 1676.71 1268.54 1678.52C1185.85 1681.12 1071.61 1690.45 1019.38 1720.84L1016.92 1720L969.098 1703.34C969.098 1703.34 968.774 1702.89 968.126 1701.92C959.313 1688.83 888.228 1586.9 786.816 1545.36L643.219 1144.12C643.219 1144.12 792.324 1150.79 873.712 1285.25L914.601 1300.03C914.601 1300.03 1157.93 1227.97 1294.13 1253.89L1364.12 1677.94Z" fill="white"/>
</mask>
<g mask="url(#mask2_18_472)">
<path opacity="0.3" d="M1268.54 1678.53C1185.85 1681.12 1071.61 1690.45 1019.38 1720.84L1016.92 1720L921.406 1314.61C921.406 1314.61 999.542 1297.05 1023.6 1305.93C1023.6 1305.93 1182.43 1423.17 1268.54 1678.53Z" fill="black" fill-opacity="0.7"/>
</g>
<path d="M1364.12 1677.94C1364.12 1677.94 1323.23 1676.71 1268.54 1678.52C1185.85 1681.12 1071.61 1690.45 1019.38 1720.84L1016.92 1720L969.098 1703.34C969.098 1703.34 968.774 1702.89 968.126 1701.92C959.313 1688.83 888.228 1586.9 786.816 1545.36L643.219 1144.12C643.219 1144.12 792.324 1150.79 873.712 1285.25L914.601 1300.03C914.601 1300.03 1157.93 1227.97 1294.13 1253.89L1364.12 1677.94Z" stroke="#263238" stroke-width="5" stroke-miterlimit="10" stroke-linecap="round" stroke-linejoin="round"/>
<path d="M914.582 1300.04L1008.37 1689.04" stroke="#263238" stroke-width="5" stroke-miterlimit="10" stroke-linecap="round" stroke-linejoin="round"/>
<path d="M969.11 1703.38L878.008 1314.62" stroke="#263238" stroke-width="5" stroke-miterlimit="10" stroke-linecap="round" stroke-linejoin="round"/>
<path d="M737.639 1535.14C716.812 1529.35 674.899 1404.33 694.113 1350.53C694.113 1350.53 716.922 1310.93 726.202 1308.23C740.749 1303.98 799.322 1305.22 796.49 1315.07C789.939 1337.87 745 1337.48 745 1337.48L730.414 1364.17L731.042 1378.9C731.042 1378.9 752.193 1363.48 760.001 1363.9C763.974 1364.11 784.742 1374.28 801.195 1383C815.276 1390.46 823.875 1394.48 820.725 1401.27C810.306 1423.68 765.853 1407.95 765.853 1407.95L749.173 1433.11C749.173 1433.11 765.302 1435.9 772.385 1436.72C780.128 1437.61 838.085 1476.52 836.31 1481.41C829.396 1500.46 773.771 1479.85 773.771 1479.85L763.915 1488.05C763.915 1488.05 804.914 1498.65 809.074 1500.18C815.6 1502.59 840.554 1521.81 840.165 1523.99C837.165 1540.83 802.743 1528.44 802.743 1528.44L772.637 1527.22C772.637 1527.22 766.559 1533.09 756.528 1535.53" fill="white"/>
<path d="M737.639 1535.14C716.812 1529.35 674.899 1404.33 694.113 1350.53C694.113 1350.53 716.922 1310.93 726.202 1308.23C740.749 1303.98 799.322 1305.22 796.49 1315.07C789.939 1337.87 745 1337.48 745 1337.48L730.414 1364.17L731.042 1378.9C731.042 1378.9 752.193 1363.48 760.001 1363.9C763.974 1364.11 784.742 1374.28 801.195 1383C815.276 1390.46 823.875 1394.48 820.725 1401.27C810.306 1423.68 765.853 1407.95 765.853 1407.95L749.173 1433.11C749.173 1433.11 765.302 1435.9 772.385 1436.72C780.128 1437.61 838.085 1476.52 836.31 1481.41C829.396 1500.46 773.771 1479.85 773.771 1479.85L763.915 1488.05C763.915 1488.05 804.914 1498.65 809.074 1500.18C815.6 1502.59 840.554 1521.81 840.165 1523.99C837.165 1540.83 802.743 1528.44 802.743 1528.44L772.637 1527.22C772.637 1527.22 766.559 1533.09 756.528 1535.53" stroke="#263238" stroke-width="5" stroke-miterlimit="10" stroke-linecap="round" stroke-linejoin="round"/>
<path d="M731.043 1378.9C731.043 1378.9 711.817 1395.25 706.568 1399.95C701.319 1404.65 702.803 1419.72 702.803 1419.72" stroke="#263238" stroke-width="5" stroke-miterlimit="10" stroke-linecap="round" stroke-linejoin="round"/>
<path d="M716.954 1452.87C716.831 1469.37 727.983 1479.32 733.057 1484.64C738.131 1489.95 724.938 1504.42 739.492 1514.79" stroke="#263238" stroke-width="5" stroke-miterlimit="10" stroke-linecap="round" stroke-linejoin="round"/>
<path d="M1676.77 1974.6C1635.63 1985.81 1590.91 1913.49 1536.35 1834.56V1834.5C1500.32 1782.4 1460.02 1727.38 1413.69 1691.74C1409.99 1688.96 1406.23 1686.24 1402.48 1683.64L1429.56 1547.76C1485.81 1577.24 1520.67 1624.48 1579.06 1673.02C1673.02 1751.23 1756.28 1799.25 1779.35 1833.85C1802.42 1868.45 1747.28 1955.35 1676.77 1974.6Z" fill="white"/>
<mask id="mask3_18_472" style="mask-type:luminance" maskUnits="userSpaceOnUse" x="1402" y="1547" width="383" height="429">
<path d="M1676.77 1974.6C1635.63 1985.81 1590.91 1913.49 1536.35 1834.56V1834.5C1500.32 1782.4 1460.02 1727.38 1413.69 1691.74C1409.99 1688.96 1406.23 1686.24 1402.48 1683.64L1429.56 1547.76C1485.81 1577.24 1520.67 1624.48 1579.06 1673.02C1673.02 1751.23 1756.28 1799.25 1779.35 1833.85C1802.42 1868.45 1747.28 1955.35 1676.77 1974.6Z" fill="white"/>
</mask>
<g mask="url(#mask3_18_472)">
<path opacity="0.4" d="M1536.35 1834.5C1500.33 1782.4 1460.02 1727.38 1413.69 1691.74C1421.98 1691.61 1428.33 1690.77 1431.64 1689.02C1431.64 1689.02 1504.86 1748.64 1536.35 1834.5Z" fill="#407BFF"/>
</g>
<path d="M1676.77 1974.6C1635.63 1985.81 1590.91 1913.49 1536.35 1834.56V1834.5C1500.32 1782.4 1460.02 1727.38 1413.69 1691.74C1409.99 1688.96 1406.23 1686.24 1402.48 1683.64L1429.56 1547.76C1485.81 1577.24 1520.67 1624.48 1579.06 1673.02C1673.02 1751.23 1756.28 1799.25 1779.35 1833.85C1802.42 1868.45 1747.28 1955.35 1676.77 1974.6Z" stroke="#263238" stroke-width="5" stroke-miterlimit="10" stroke-linecap="round" stroke-linejoin="round"/>
<path d="M1444.79 1678.52C1442.52 1683.26 1437.92 1686.62 1431.64 1689.02C1430.21 1689.61 1428.72 1690.06 1427.17 1690.51C1426.84 1690.58 1426.39 1690.64 1425.94 1690.77C1382.46 1702.11 1284.61 1678.52 1284.61 1678.52C1284.61 1678.52 1220.52 1648.07 1216.63 1640.88C1214.23 1636.28 1211.32 1628.5 1209.44 1623.38C1208.4 1620.33 1207.69 1618.26 1207.69 1618.26C1207.69 1618.26 1184.62 1605.43 1182.03 1595.19C1179.5 1584.95 1174.32 1582.36 1188.44 1580.42C1202.57 1578.54 1279.42 1580.42 1279.42 1580.42L1196.16 1546.46C1196.16 1546.46 1141.01 1518.66 1135.89 1508.88C1130.77 1499.03 1124.36 1492.61 1152.54 1496.5C1180.73 1500.32 1242.29 1518.27 1242.29 1518.27L1290.5 1528.51L1242.29 1507.97C1242.29 1507.97 1147.43 1496.5 1165.38 1467.02C1165.38 1467.02 1201.27 1467.02 1219.22 1467.02C1237.17 1467.02 1294.59 1473.76 1310.2 1478.55C1325.88 1483.35 1429.56 1547.76 1429.56 1547.76" fill="white"/>
<mask id="mask4_18_472" style="mask-type:luminance" maskUnits="userSpaceOnUse" x="1131" y="1467" width="314" height="227">
<path d="M1444.79 1678.52C1442.52 1683.26 1437.92 1686.62 1431.64 1689.02C1430.21 1689.61 1428.72 1690.06 1427.17 1690.51C1426.84 1690.58 1426.39 1690.64 1425.94 1690.77C1382.46 1702.11 1284.61 1678.52 1284.61 1678.52C1284.61 1678.52 1220.52 1648.07 1216.63 1640.88C1214.23 1636.28 1211.32 1628.5 1209.44 1623.38C1208.4 1620.33 1207.69 1618.26 1207.69 1618.26C1207.69 1618.26 1184.62 1605.43 1182.03 1595.19C1179.5 1584.95 1174.32 1582.36 1188.44 1580.42C1202.57 1578.54 1279.42 1580.42 1279.42 1580.42L1196.16 1546.46C1196.16 1546.46 1141.01 1518.66 1135.89 1508.88C1130.77 1499.03 1124.36 1492.61 1152.54 1496.5C1180.73 1500.32 1242.29 1518.27 1242.29 1518.27L1290.5 1528.51L1242.29 1507.97C1242.29 1507.97 1147.43 1496.5 1165.38 1467.02C1165.38 1467.02 1201.27 1467.02 1219.22 1467.02C1237.17 1467.02 1294.59 1473.76 1310.2 1478.55C1325.88 1483.35 1429.56 1547.76 1429.56 1547.76" fill="white"/>
</mask>
<g mask="url(#mask4_18_472)">
<path opacity="0.4" d="M1425.93 1690.77C1382.45 1702.11 1284.61 1678.53 1284.61 1678.53C1284.61 1678.53 1220.52 1648.07 1216.63 1640.88C1214.23 1636.28 1211.32 1628.5 1209.44 1623.38L1288.1 1632.19C1288.1 1632.19 1278.64 1647.55 1288.1 1664.46C1296.85 1680.15 1396.52 1696.09 1425.93 1690.77Z" fill="#407BFF"/>
</g>
<path d="M1444.79 1678.52C1442.52 1683.26 1437.92 1686.62 1431.64 1689.02C1430.21 1689.61 1428.72 1690.06 1427.17 1690.51C1426.84 1690.58 1426.39 1690.64 1425.94 1690.77C1382.46 1702.11 1284.61 1678.52 1284.61 1678.52C1284.61 1678.52 1220.52 1648.07 1216.63 1640.88C1214.23 1636.28 1211.32 1628.5 1209.44 1623.38C1208.4 1620.33 1207.69 1618.26 1207.69 1618.26C1207.69 1618.26 1184.62 1605.43 1182.03 1595.19C1179.5 1584.95 1174.32 1582.36 1188.44 1580.42C1202.57 1578.54 1279.42 1580.42 1279.42 1580.42L1196.16 1546.46C1196.16 1546.46 1141.01 1518.66 1135.89 1508.88C1130.77 1499.03 1124.36 1492.61 1152.54 1496.5C1180.73 1500.32 1242.29 1518.27 1242.29 1518.27L1290.5 1528.51L1242.29 1507.97C1242.29 1507.97 1147.43 1496.5 1165.38 1467.02C1165.38 1467.02 1201.27 1467.02 1219.22 1467.02C1237.17 1467.02 1294.59 1473.76 1310.2 1478.55C1325.88 1483.35 1429.56 1547.76 1429.56 1547.76" stroke="#263238" stroke-width="5" stroke-miterlimit="10" stroke-linecap="round" stroke-linejoin="round"/>
<path d="M1207.68 1618.25L1302.38 1632.17" stroke="#263238" stroke-width="5" stroke-miterlimit="10" stroke-linecap="round" stroke-linejoin="round"/>
<path d="M263.973 1908.16L501.238 1979.67L935.476 1880.59C935.476 1880.59 670.249 1805.1 667.761 1806.92C665.266 1808.73 263.973 1908.16 263.973 1908.16Z" fill="#407BFF"/>
<mask id="mask5_18_472" style="mask-type:luminance" maskUnits="userSpaceOnUse" x="263" y="1806" width="673" height="174">
<path d="M263.973 1908.16L501.238 1979.67L935.476 1880.59C935.476 1880.59 670.249 1805.1 667.761 1806.92C665.266 1808.73 263.973 1908.16 263.973 1908.16Z" fill="white"/>
</mask>
<g mask="url(#mask5_18_472)">
<path opacity="0.3" d="M263.973 1908.16L501.238 1979.67L935.476 1880.59C935.476 1880.59 670.249 1805.1 667.761 1806.92C665.266 1808.73 263.973 1908.16 263.973 1908.16Z" fill="black" fill-opacity="0.7"/>
</g>
<path d="M263.973 1908.16L501.238 1979.67L935.476 1880.59C935.476 1880.59 670.249 1805.1 667.761 1806.92C665.266 1808.73 263.973 1908.16 263.973 1908.16Z" stroke="#263238" stroke-width="5" stroke-miterlimit="10" stroke-linecap="round" stroke-linejoin="round"/>
<path d="M267.383 1824.59C250.755 1825.74 246.576 1885.78 263.975 1908.16L647.273 1828.63L678.027 1755.9L267.383 1824.59Z" fill="#407BFF"/>
<mask id="mask6_18_472" style="mask-type:luminance" maskUnits="userSpaceOnUse" x="252" y="1755" width="427" height="154">
<path d="M267.383 1824.59C250.755 1825.74 246.576 1885.78 263.975 1908.16L647.273 1828.63L678.027 1755.9L267.383 1824.59Z" fill="white"/>
</mask>
<g mask="url(#mask6_18_472)">
<path opacity="0.3" d="M267.383 1824.59C250.755 1825.74 246.576 1885.78 263.975 1908.16L647.273 1828.63L678.027 1755.9L267.383 1824.59Z" fill="black" fill-opacity="0.7"/>
</g>
<path d="M267.383 1824.59C250.755 1825.74 246.576 1885.78 263.975 1908.16L647.273 1828.63L678.027 1755.9L267.383 1824.59Z" stroke="#263238" stroke-width="5" stroke-miterlimit="10" stroke-linecap="round" stroke-linejoin="round"/>
<path d="M916.813 1823.72C916.813 1823.72 911.105 1855.32 914.805 1874.72L500.778 1968.45L282.538 1904.3C282.538 1904.3 259.845 1864.17 279.616 1833.11L678.408 1765.42L916.813 1823.72Z" fill="white" stroke="#263238" stroke-width="5" stroke-miterlimit="10" stroke-linecap="round" stroke-linejoin="round"/>
<path d="M267.383 1824.59L678.02 1755.89L933.008 1820.5L504.13 1905.97L267.383 1824.59Z" fill="#407BFF" stroke="#263238" stroke-width="5" stroke-miterlimit="10" stroke-linecap="round" stroke-linejoin="round"/>
<path d="M281.945 1862.95L499.103 1927.58L854.505 1856.06" stroke="#263238" stroke-width="5" stroke-miterlimit="10" stroke-linecap="round" stroke-linejoin="round"/>
<path d="M913.614 1862.67L531.43 1944.22" stroke="#263238" stroke-width="5" stroke-miterlimit="10" stroke-linecap="round" stroke-linejoin="round"/>
<path d="M287.109 1888.39C290.362 1888.73 450.788 1938.12 450.788 1938.12" stroke="#263238" stroke-width="5" stroke-miterlimit="10" stroke-linecap="round" stroke-linejoin="round"/>
<path d="M882.379 1847.71L912.796 1842.78" stroke="#263238" stroke-width="5" stroke-miterlimit="10" stroke-linecap="round" stroke-linejoin="round"/>
<path d="M492.007 1950.11L475.93 1946.49" stroke="#263238" stroke-width="5" stroke-miterlimit="10" stroke-linecap="round" stroke-linejoin="round"/>
<path d="M279.616 1833.11C279.616 1833.11 309.028 1864.21 282.538 1904.31C282.538 1904.31 258.024 1871.63 279.616 1833.11Z" fill="#263238"/>
<mask id="mask7_18_472" style="mask-type:luminance" maskUnits="userSpaceOnUse" x="270" y="1833" width="24" height="72">
<path d="M279.616 1833.11C279.616 1833.11 309.028 1864.21 282.538 1904.31C282.538 1904.31 258.024 1871.63 279.616 1833.11Z" fill="white"/>
</mask>
<g mask="url(#mask7_18_472)">
<path opacity="0.3" d="M279.616 1833.11C279.616 1833.11 309.028 1864.21 282.538 1904.31C282.538 1904.31 258.024 1871.63 279.616 1833.11Z" fill="white" fill-opacity="0.7"/>
</g>
<path d="M279.616 1833.11C279.616 1833.11 309.028 1864.21 282.538 1904.31C282.538 1904.31 258.024 1871.63 279.616 1833.11Z" stroke="#263238" stroke-width="5" stroke-miterlimit="10" stroke-linecap="round" stroke-linejoin="round"/>
<path d="M1166.55 1927.58L1580.95 1944.6L1540.53 2087.24L1030.8 2067.8L1166.55 1927.58Z" fill="white"/>
<mask id="mask8_18_472" style="mask-type:luminance" maskUnits="userSpaceOnUse" x="1030" y="1927" width="551" height="161">
<path d="M1166.55 1927.58L1580.95 1944.6L1540.53 2087.24L1030.8 2067.8L1166.55 1927.58Z" fill="white"/>
</mask>
<g mask="url(#mask8_18_472)">
<path opacity="0.4" d="M1166.55 1927.58L1580.95 1944.6L1540.53 2087.24L1030.8 2067.8L1166.55 1927.58Z" fill="#407BFF"/>
</g>
<path d="M1166.55 1927.58L1580.95 1944.6L1540.53 2087.24L1030.8 2067.8L1166.55 1927.58Z" stroke="#263238" stroke-width="5" stroke-miterlimit="10" stroke-linecap="round" stroke-linejoin="round"/>
</svg>
