<svg width="2049" height="1720" viewBox="0 0 2049 1720" fill="none" xmlns="http://www.w3.org/2000/svg">
<path d="M1244.34 1635.67L856.923 1511.29C855.888 1510.97 854.804 1510.84 853.722 1510.91L555.75 1532.98C503.384 1406.06 437.775 1247.42 407.923 1174.97C402.949 1163.09 394.934 1152.73 384.686 1144.94C374.438 1137.14 362.317 1132.18 349.542 1130.55L26.8498 1088.39C23.013 1087.93 19.1212 1088.48 15.5636 1089.99C12.006 1091.5 8.90736 1093.92 6.57767 1097C4.24798 1100.08 2.76889 1103.73 2.28842 1107.56C1.80794 1111.4 2.3429 1115.29 3.83976 1118.85L185.548 1542.58C187.953 1548.2 191.5 1553.26 195.965 1557.44C200.429 1561.62 205.713 1564.83 211.482 1566.86L580.581 1714.13C589.017 1717.5 598.157 1718.71 607.178 1717.67L630.795 1715.07C712.572 1706.52 1116.38 1665.41 1242.69 1652.17C1244.69 1652.06 1246.59 1651.25 1248.04 1649.86C1249.49 1648.48 1250.4 1646.62 1250.6 1644.63C1250.8 1642.63 1250.28 1640.63 1249.13 1638.99C1247.98 1637.35 1246.28 1636.17 1244.34 1635.67Z" fill="#2D9CDB"/>
<path d="M1244.34 1635.67C1245.63 1636.08 1246.81 1636.8 1247.76 1637.76C1248.72 1638.72 1249.44 1639.89 1249.86 1641.19C1250.36 1642.82 1250.37 1644.56 1249.89 1646.2C1249.41 1647.84 1248.46 1649.3 1247.15 1650.4C1245.41 1651.75 1243.28 1652.48 1241.08 1652.5L1233.8 1653.27L1143.14 1662.87L809.632 1697.58L699.272 1709.06L640.505 1715.13L610.321 1718.38C599.868 1720.01 589.169 1718.77 579.365 1714.8L332.49 1616.47L266.55 1590.14L232.945 1576.79L216.005 1570.06C213.191 1568.84 210.487 1567.85 207.452 1566.58C204.565 1565.3 201.826 1563.71 199.286 1561.84C194.175 1558.05 189.894 1553.27 186.705 1547.77C183.614 1542.25 181.628 1536.45 179.09 1530.77L164.357 1496.5C154.461 1473.55 144.51 1450.36 134.504 1426.92C94.3884 1333.12 52.7827 1236.44 10.2389 1137.23L4.38978 1123.6C1.9171 1119.06 0.644465 1113.97 0.69273 1108.81C1.01033 1103.55 3.07861 1098.54 6.56836 1094.6C10.0581 1090.65 14.7688 1087.98 19.9505 1087.01C21.2197 1086.74 22.544 1087.01 23.8683 1086.63L27.6757 1086.9L34.9595 1087.9L49.4719 1089.77L78.3862 1093.52L192.498 1108.48L303.962 1123.05L331.552 1126.63C340.657 1128.01 349.761 1128.62 359.142 1130.77C377.267 1135.44 393.004 1146.69 403.286 1162.33C407.885 1170.12 411.746 1178.33 414.819 1186.83C418.203 1195.07 421.587 1203.28 424.972 1211.44L445.002 1260.06L484.07 1354.75C509.563 1416.66 534.118 1476.14 557.459 1532.76L556.245 1531.98L846.602 1510.52L854.658 1509.91C856.111 1509.9 857.553 1510.16 858.907 1510.69L862.715 1511.95L877.282 1516.81L906.638 1526.25L961.984 1544.4L1059.65 1575.91L1196.22 1620.05L1232.09 1631.81C1240.2 1634.45 1244.34 1635.89 1244.34 1635.89C1244.34 1635.89 1240.15 1634.67 1231.98 1632.14L1196 1620.77L1059.38 1576.96L961.652 1545.72L905.921 1527.85L876.565 1518.47L861.501 1513.66C859.133 1512.7 856.646 1512.05 854.107 1511.73L846.05 1512.34L555.748 1534.41H554.921L554.534 1533.58C531.138 1477.03 506.583 1417.71 480.979 1355.68L441.857 1261C435.235 1244.96 428.54 1228.75 421.771 1212.38C418.405 1204.22 414.984 1195.83 411.618 1187.77C408.59 1179.44 404.804 1171.41 400.306 1163.77C390.452 1148.75 375.367 1137.94 357.983 1133.42C349.375 1131.32 340.105 1130.66 331.055 1129.34L303.465 1125.75L191.947 1111.24L77.8344 1096.34L48.8649 1092.59L34.3525 1090.65C29.7064 1089.72 24.9534 1089.42 20.2265 1089.77C15.6846 1090.63 11.5591 1092.98 8.50142 1096.45C5.44378 1099.92 3.62824 1104.31 3.34139 1108.92C3.30715 1113.65 4.50519 1118.31 6.81771 1122.44L12.8323 1136.07L137.043 1425.82C147.085 1449.21 157.018 1472.41 166.84 1495.4C171.806 1506.88 176.662 1518.3 181.573 1529.67C184.056 1535.19 186.208 1541.25 189.077 1546.22C192.052 1551.39 196.074 1555.88 200.886 1559.41C203.273 1561.17 205.845 1562.67 208.556 1563.88C211.204 1565.04 214.074 1566.09 216.943 1567.24L233.883 1574.03L267.433 1587.44L333.649 1613.76L580.414 1712.37C589.841 1716.23 600.148 1717.43 610.211 1715.84L640.45 1712.59L699.216 1706.63L809.576 1695.59L1143.19 1661.77L1233.91 1652.66L1241.19 1652C1243.3 1652 1245.35 1651.32 1247.04 1650.07C1248.3 1649.03 1249.22 1647.64 1249.7 1646.09C1250.18 1644.53 1250.2 1642.86 1249.75 1641.3C1249.22 1639.35 1247.95 1637.69 1246.22 1636.66C1245 1635.94 1244.34 1635.72 1244.34 1635.67Z" fill="#263238"/>
<path d="M1216.25 1635.5L1214.32 1635.83L1208.53 1636.55L1186.46 1638.81L1104.46 1646.82L834.076 1672.03L621.523 1691.24H620.64L620.309 1690.41L573.24 1575.58L560.328 1543.46C558.893 1539.78 557.79 1536.97 557.017 1535.02C556.613 1534.05 556.263 1533.05 555.969 1532.04C555.969 1532.04 556.465 1532.98 557.348 1534.86L560.99 1543.19L574.509 1575.03C586.097 1602.62 602.651 1642.07 622.516 1689.52L621.302 1688.75L833.8 1669.05L1104.46 1644.66L1186.29 1637.71L1208.36 1635.94L1214.16 1635.56L1216.25 1635.5Z" fill="black"/>
<path d="M2044.23 1042.26C2025.74 937.422 1909.81 874.241 1871.52 839.367L1929.07 916.343C1958.53 1037.83 1969.68 1163.03 1962.18 1287.81C1961.4 1301.44 1962.89 1319.82 1972.61 1321.75C1976.11 1322.04 1979.6 1320.95 1982.32 1318.72C2016.31 1296.92 2038.38 1246.98 2043.29 1195.55C2048.2 1144.13 2052.62 1090.77 2044.23 1042.26Z" fill="#2D9CDB"/>
<path d="M1959.36 924.841C1953.84 914.301 1956.11 880.697 1926.25 915.791L1924.32 902.658L1739.86 760.846L1328.71 782.2C1289.26 784.683 1229.99 852.996 1215.21 881.524C1203.07 987.635 1200.64 1081.83 1200.64 1081.83C1200.64 1081.83 1186.51 1199.8 1200.64 1255.59C1214.76 1311.38 1231.48 1331.52 1253.33 1374.89C1269.32 1404.52 1289.26 1431.84 1312.6 1456.11L1331.8 1605.1L1761.32 1643.73L1957.93 1632.69C1957.93 1632.69 1940.33 1338.86 1940.33 1333.67C1940.33 1331.24 1964.88 1274.52 1991.26 1214.31C2036.06 1111.29 2010.79 1024.28 1959.36 924.841Z" fill="#1B6898"/>
<path d="M880.703 1459.26C882.855 1459.26 904.32 1314.19 918.391 1281.25C931.634 1250.18 1215.2 881.469 1215.2 881.469L1281.97 1096.67L1253.33 1211.78L1098.83 1397.68L1055.18 1532.43L880.703 1459.26Z" fill="#1B6898"/>
<path d="M2016.53 1035.09C1996.17 906.023 1895.63 911.651 1895.63 911.651L1795.7 1085.52V1445.08L1313.59 1486.79L1304.65 1607.86C1304.65 1607.86 1784.99 1717.67 1895.96 1680.86C1969.41 1656.53 2031.43 1595.11 2038.22 1494.74C2045 1394.37 2036.95 1164.21 2016.53 1035.09Z" fill="#1B6898"/>
<path d="M1099.33 1397.46C1097.92 1389.23 1096.08 1381.09 1093.81 1373.07C1087.76 1353.79 1076.84 1336.39 1062.11 1322.56C1047.38 1308.73 1029.34 1298.93 1009.71 1294.1C1001.55 1292.27 993.301 1290.87 984.992 1289.91C987.265 1289.64 989.562 1289.64 991.835 1289.91C998.02 1290.16 1004.17 1290.98 1010.21 1292.34C1030.34 1296.8 1048.9 1306.62 1063.91 1320.76C1078.92 1334.91 1089.82 1352.85 1095.46 1372.68C1097.2 1378.63 1098.38 1384.72 1098.99 1390.89C1099.38 1393.06 1099.49 1395.26 1099.33 1397.46Z" fill="black"/>
<path d="M1330.09 1481.83C1330.78 1481.64 1331.48 1481.51 1332.19 1481.44L1338.31 1480.56L1361.93 1477.41L1448.95 1466.38L1735.88 1431.5L1799.67 1423.89L1798.4 1425.27C1802.1 1327.49 1803.92 1241.3 1803.26 1179.55C1803.26 1148.7 1802.6 1123.93 1802.21 1106.88C1802.21 1098.49 1801.82 1091.92 1801.71 1087.34V1082.27C1801.71 1081.11 1801.71 1080.56 1801.71 1080.5C1801.77 1081.09 1801.77 1081.68 1801.71 1082.27C1801.71 1083.54 1801.71 1085.19 1802.04 1087.29C1802.04 1091.92 1802.6 1098.33 1802.98 1106.88C1803.7 1123.87 1804.47 1148.65 1804.91 1179.55C1805.91 1241.3 1804.58 1327.6 1801 1425.32V1426.54H1799.78L1735.99 1434.21L1448.78 1468.25L1361.71 1478.24L1337.98 1480.78L1331.8 1481.38L1330.09 1481.83Z" fill="black"/>
<path d="M2044.78 1481.83C2044.86 1482.56 2044.86 1483.3 2044.78 1484.03C2044.78 1485.58 2044.78 1487.73 2044.45 1490.43C2043.95 1498.66 2043.01 1506.86 2041.64 1514.99C2039.47 1527.89 2036.31 1540.6 2032.2 1553.01C2026.57 1569.4 2019.01 1585.07 2009.69 1599.69C1998.35 1617.49 1984.03 1633.2 1967.36 1646.15C1948.21 1661.02 1926.08 1671.58 1902.47 1677.11C1889.76 1680.16 1876.86 1682.32 1863.85 1683.56C1850.31 1684.78 1836.72 1685.29 1823.12 1685.11C1794.62 1684.53 1766.2 1681.88 1738.09 1677.16L1575.25 1650.4L1504.24 1638.59L1442.38 1627.17C1404.69 1620.11 1374.12 1614.75 1352.93 1611.55L1328.49 1607.97L1322.14 1607.08C1321.41 1607.02 1320.69 1606.87 1319.99 1606.64H1322.14L1328.55 1607.31C1334.06 1607.91 1342.45 1608.85 1353.1 1610.34C1374.34 1613.21 1404.97 1618.29 1442.77 1625.07L1504.51 1636.11L1575.59 1647.64L1738.42 1674.24C1766.44 1679.01 1794.77 1681.72 1823.18 1682.35C1836.97 1682.35 1850.44 1681.96 1863.63 1680.92C1876.49 1679.73 1889.25 1677.63 1901.81 1674.63C1925.12 1669.23 1946.98 1658.88 1965.93 1644.28C1982.44 1631.57 1996.66 1616.13 2007.98 1598.64C2017.31 1584.2 2024.92 1568.72 2030.66 1552.51C2034.87 1540.23 2038.17 1527.65 2040.53 1514.88C2042.35 1504.34 2043.46 1496.06 2043.84 1490.43L2044.51 1484.03C2044.55 1483.29 2044.64 1482.55 2044.78 1481.83Z" fill="black"/>
<path d="M1317.07 1490.71C1316.84 1489.97 1316.69 1489.22 1316.63 1488.45C1316.35 1486.74 1315.96 1484.47 1315.58 1481.72C1314.7 1475.54 1313.43 1466.93 1311.88 1456V1456.39L1275.35 1415.94C1268.23 1405.79 1261.8 1395.17 1256.09 1384.16C1249.72 1371.62 1244.08 1358.72 1239.21 1345.53C1228.44 1315.71 1221.04 1284.79 1217.14 1253.33C1213.28 1219.27 1212.49 1184.94 1214.76 1150.75C1216.47 1119.29 1219.73 1091.04 1222.82 1067.42C1225.91 1043.81 1228.84 1024.77 1230.93 1011.58L1233.42 996.463C1233.69 994.863 1233.91 993.593 1234.13 992.545C1234.17 992.089 1234.29 991.643 1234.46 991.221C1234.51 991.661 1234.51 992.105 1234.46 992.545C1234.46 993.649 1234.46 994.918 1234.02 996.518C1233.53 1000.27 1232.92 1005.35 1232.09 1011.75C1230.32 1024.94 1227.73 1044.03 1224.86 1067.7C1221.99 1091.37 1219.4 1119.51 1217.69 1150.97C1215.58 1184.99 1216.43 1219.12 1220.23 1252.99C1224.07 1284.26 1231.32 1315.01 1241.86 1344.7C1246.62 1357.76 1252.15 1370.53 1258.41 1382.94C1264 1393.89 1270.28 1404.47 1277.23 1414.62L1313.26 1455.56L1316.24 1481.33C1316.52 1484.14 1316.74 1486.41 1316.96 1488.12C1317.15 1488.97 1317.19 1489.85 1317.07 1490.71Z" fill="black"/>
<path d="M1869.14 1504.12C1865.5 1500.08 1862.17 1495.79 1859.15 1491.26C1853.14 1483.15 1844.7 1472.12 1834.82 1460.36C1824.94 1448.61 1815.62 1438.29 1808.72 1431.01C1804.76 1427.23 1801.07 1423.17 1797.68 1418.87C1802.17 1421.98 1806.32 1425.57 1810.04 1429.57C1819.53 1438.73 1828.5 1448.4 1836.92 1458.54C1845.39 1468.62 1853.33 1479.14 1860.7 1490.05C1863.98 1494.44 1866.81 1499.16 1869.14 1504.12Z" fill="black"/>
<path d="M998.678 1476.97C994.595 1453.41 973.13 1435.03 973.13 1435.03C973.13 1435.03 962.866 1406.34 947.526 1398.78C932.186 1391.22 919.936 1406.34 906.583 1402.26C893.229 1398.17 864.591 1397.13 855.376 1402.26C846.161 1407.39 834.904 1436.03 834.904 1436.03C825.614 1436.4 816.526 1438.85 808.307 1443.2C801.341 1446.8 795.313 1451.98 790.705 1458.32C786.705 1456.76 782.326 1456.46 778.148 1457.44C773.97 1458.43 770.19 1460.66 767.308 1463.84C761.71 1470.38 757.521 1478.01 755.003 1486.24L747.72 1505.78C746.317 1508.75 745.672 1512.03 745.843 1515.32C746.405 1518.03 747.869 1520.46 749.994 1522.22C752.119 1523.99 754.78 1524.98 757.542 1525.03C760.347 1525.05 763.123 1524.47 765.69 1523.34C768.257 1522.21 770.557 1520.55 772.44 1518.47C776.195 1514.76 779.51 1510.63 782.317 1506.16L784.138 1518.96C784.138 1518.96 787.173 1539.21 803.562 1540.43C814.874 1541.31 827.124 1528.18 827.124 1528.18L855.762 1525.09L859.845 1553.73C861.731 1559.25 865.338 1564.01 870.135 1567.33C874.933 1570.65 880.668 1572.34 886.497 1572.16C896.761 1572.16 910.004 1554.78 910.004 1554.78L936.656 1564.98C936.656 1564.98 967.336 1586.5 981.683 1579.33C985.695 1577.3 988.896 1573.96 990.762 1569.87C992.627 1565.78 993.045 1561.18 991.946 1556.82C998.072 1549.87 1002.91 1541.9 1006.24 1533.26C1010.1 1521.01 1002.98 1500.53 998.678 1476.97Z" fill="#FFBE9D"/>
<path d="M783.477 1514.05C782.31 1503.92 782.664 1493.67 784.526 1483.65C785.481 1473.51 787.974 1463.57 791.92 1454.18C792.692 1454.18 789.657 1467.59 787.34 1484.09C785.022 1500.59 784.526 1514.05 783.477 1514.05Z" fill="#EB996E"/>
<path d="M828.226 1487.12C829.966 1494.09 830.782 1501.25 830.654 1508.42C831.241 1513.61 830.714 1518.86 829.109 1523.82C827.509 1527.68 825.246 1529.34 825.081 1528.9C824.915 1528.45 826.239 1526.74 827.177 1523.38C828.123 1518.56 828.328 1513.63 827.784 1508.76C826.943 1501.56 827.092 1494.28 828.226 1487.12Z" fill="#EB996E"/>
<path d="M847.319 1474.93C847.87 1475.48 844.118 1480.45 838.876 1485.52C833.634 1490.6 828.999 1494.68 828.392 1494.13C827.785 1493.58 831.592 1488.61 836.834 1483.54C842.076 1478.46 846.767 1474.38 847.319 1474.93Z" fill="#EB996E"/>
<path d="M851.126 1419.86C851.745 1425.02 851.967 1430.22 851.788 1435.42C851.788 1445.08 852.175 1458.32 852.947 1472.94C853.72 1487.57 854.878 1500.81 855.706 1510.41C856.49 1515.56 856.822 1520.76 856.699 1525.97C855.175 1520.97 854.177 1515.83 853.72 1510.63C852.34 1501.08 850.905 1487.84 850.078 1473.11C849.25 1458.37 849.36 1445.08 849.747 1435.42C849.666 1430.2 850.128 1424.98 851.126 1419.86Z" fill="#EB996E"/>
<path d="M958.509 1430.84C958.509 1430.84 957.295 1433.6 955.364 1438.57C952.672 1445.6 950.532 1452.83 948.963 1460.2C947.969 1464.94 946.921 1470.07 945.762 1475.54C944.666 1481.52 943.041 1487.39 940.906 1493.08C938.524 1499.52 934.512 1505.22 929.263 1509.64C926.397 1512.12 922.982 1513.89 919.299 1514.81C915.616 1515.72 911.769 1515.74 908.074 1514.88C904.235 1514.01 900.762 1511.97 898.142 1509.03C895.724 1506.11 894.175 1502.58 893.672 1498.82C892.889 1492.12 892.759 1485.35 893.286 1478.63C893.911 1467.34 895.649 1456.14 898.473 1445.19C900.368 1437.81 902.803 1430.58 905.757 1423.56C906.805 1421.07 907.633 1419.2 908.295 1418.04C908.576 1417.37 908.948 1416.73 909.399 1416.16C908.711 1418.85 907.844 1421.48 906.805 1424.05C904.271 1431.15 902.152 1438.39 900.459 1445.74C897.95 1456.61 896.435 1467.7 895.935 1478.85C895.497 1485.36 895.663 1491.9 896.431 1498.38C896.881 1501.62 898.218 1504.68 900.294 1507.21C902.543 1509.68 905.486 1511.41 908.736 1512.18C912.012 1512.93 915.419 1512.9 918.68 1512.08C921.941 1511.27 924.962 1509.69 927.498 1507.48C932.42 1503.35 936.217 1498.03 938.534 1492.03C942.001 1481.41 944.857 1470.6 947.087 1459.64C948.818 1452.24 951.257 1445.01 954.37 1438.07C955.23 1436.17 956.206 1434.33 957.295 1432.55C957.957 1431.39 958.398 1430.78 958.509 1430.84Z" fill="#EB996E"/>
<path d="M969.324 1443.26C968.549 1449.37 965.848 1455.09 961.613 1459.57C957.378 1464.06 951.826 1467.08 945.762 1468.2C950.595 1465.01 955.187 1461.47 959.501 1457.6C963.128 1453.07 966.411 1448.28 969.324 1443.26Z" fill="#EB996E"/>
<path d="M910.061 1514.6C911.872 1522.26 912.338 1530.18 911.44 1538C911.147 1544.96 910.167 1551.87 908.516 1558.64V1559.02C908.309 1559.13 908.081 1559.19 907.848 1559.2C907.616 1559.2 907.385 1559.16 907.172 1559.06C906.96 1558.96 906.772 1558.82 906.623 1558.64C906.473 1558.47 906.366 1558.26 906.309 1558.03C906.309 1557.48 906.309 1557.26 906.309 1557.26C906.309 1557.26 906.309 1557.53 906.695 1557.75C907.081 1557.98 907.467 1558.2 907.633 1557.75L907.302 1558.2C907.302 1554.44 908.13 1546.61 908.626 1537.56C908.565 1529.88 909.044 1522.21 910.061 1514.6Z" fill="#EB996E"/>
<path d="M975.005 1491.76C972.878 1495.27 970.361 1498.53 967.5 1501.47C961.177 1508.83 955.63 1516.82 950.946 1525.31C946.289 1533.79 943.646 1543.23 943.221 1552.9C943.221 1560.35 944.49 1564.87 943.994 1564.98C942.059 1561.25 941.092 1557.1 941.18 1552.9C941.014 1542.78 943.507 1532.79 948.408 1523.93C953.27 1515.22 959.284 1507.2 966.287 1500.09C968.826 1496.96 971.756 1494.16 975.005 1491.76Z" fill="#EB996E"/>
<path d="M963.693 1542.64C961.967 1536.43 962.255 1529.84 964.516 1523.81C966.777 1517.78 970.894 1512.63 976.274 1509.09C995.532 1495.4 1053.2 1459.42 1054.41 1459.42C1055.62 1459.42 1122.11 1437.35 1150.09 1434.48C1178.07 1431.61 1300.51 1492.42 1300.51 1492.42C1300.51 1492.42 1328.93 1533.37 1324.35 1572.65C1319.77 1611.94 1294.17 1614.2 1294.17 1614.2L1258.63 1605.54L1221.99 1598.53C1221.99 1598.53 1140.93 1621.1 1128.18 1616.96C1115.44 1612.83 1111.02 1598.97 1124.82 1591.47C1138.61 1583.97 1178.29 1572.21 1178.29 1572.21L1208.8 1559.3L1109.48 1573.48C1109.48 1573.48 1025.49 1590.04 1015.67 1587.72C1005.85 1585.4 1004.36 1578.06 1003.53 1571.16C1003.53 1571.16 969.708 1587.72 959.665 1578.67C949.622 1569.62 945.208 1549.92 963.693 1542.64Z" fill="#FFBE9D"/>
<path d="M1178.07 1518.47C1175.61 1518.86 1173.11 1518.99 1170.62 1518.85C1165.87 1518.85 1158.98 1518.85 1150.48 1519.4C1140.57 1519.85 1130.72 1521.24 1121.07 1523.54C1115.38 1524.99 1109.84 1526.97 1104.51 1529.45C1099 1531.99 1093.48 1534.96 1087.96 1538.28C1082.33 1541.49 1076.46 1544.28 1070.41 1546.61C1064.75 1548.7 1058.83 1549.98 1052.81 1550.42C1042.9 1550.42 1033.01 1551.53 1023.34 1553.73C1017.03 1555.74 1011.46 1559.58 1007.34 1564.76C1005.95 1566.78 1004.71 1568.9 1003.64 1571.11C1003.64 1571.11 1003.64 1570.39 1003.98 1569.18C1004.55 1567.4 1005.36 1565.71 1006.4 1564.15C1010.38 1558.42 1016.08 1554.11 1022.68 1551.85C1032.45 1549.3 1042.49 1547.94 1052.59 1547.82C1064.6 1546.42 1076.15 1542.33 1086.36 1535.85C1091.88 1532.7 1097.4 1529.5 1103.24 1526.91C1108.69 1524.42 1114.36 1522.46 1120.18 1521.06C1130.01 1518.76 1140.06 1517.56 1150.15 1517.47C1158.76 1517.47 1165.65 1517.47 1170.45 1517.8C1173.01 1517.79 1175.56 1518.01 1178.07 1518.47Z" fill="#EB996E"/>
<path d="M1148.05 1476.58C1147.48 1476.96 1146.87 1477.28 1146.23 1477.52C1145.07 1478.07 1143.25 1478.79 1140.71 1479.62C1133.94 1481.71 1127.02 1483.29 1120.02 1484.36C1111.24 1485.91 1100.65 1487.07 1089.39 1489.88C1077.26 1493.55 1065.61 1498.64 1054.68 1505.06C1034.32 1516.39 1013.06 1526.02 991.117 1533.86C982.73 1536.84 975.832 1539.05 971.032 1540.48C968.598 1541.36 966.085 1542.01 963.527 1542.41C965.815 1541.19 968.217 1540.19 970.701 1539.43L990.4 1531.93C1012.02 1523.59 1033.04 1513.77 1053.31 1502.52C1064.44 1496 1076.34 1490.88 1088.73 1487.29C1098.96 1484.98 1109.32 1483.25 1119.74 1482.1C1126.69 1481.22 1133.58 1479.95 1140.38 1478.29C1142.9 1477.58 1145.46 1477.01 1148.05 1476.58Z" fill="#EB996E"/>
<path d="M1228.67 1500.26C1227.94 1498.1 1227.4 1495.89 1227.07 1493.64C1225.75 1488.48 1223.2 1483.71 1219.65 1479.74C1216.1 1475.77 1211.64 1472.72 1206.65 1470.85C1204.46 1470.26 1202.31 1469.48 1200.25 1468.53C1200.25 1468.2 1203.01 1467.87 1207.31 1468.92C1212.9 1470.42 1217.94 1473.51 1221.83 1477.8C1225.68 1482.12 1228.19 1487.47 1229.05 1493.19C1229.63 1495.54 1229.5 1497.99 1228.67 1500.26Z" fill="#EB996E"/>
<path d="M1274.58 1562.22C1274.48 1559.12 1274.2 1556.03 1273.75 1552.95C1271.87 1545.78 1267.63 1539.44 1261.72 1534.96C1255.64 1530.55 1248.92 1527.07 1241.8 1524.65C1238.7 1523.83 1235.73 1522.58 1232.97 1520.95C1236.2 1520.99 1239.39 1521.59 1242.41 1522.72C1250.02 1524.67 1257.2 1528.06 1263.54 1532.7C1269.98 1537.56 1274.34 1544.68 1275.74 1552.62C1276.54 1555.86 1276.13 1559.27 1274.58 1562.22Z" fill="#EB996E"/>
<path d="M1003.87 1571.05C1002.46 1572.3 1000.83 1573.28 999.065 1573.92C994.455 1576.1 989.698 1577.94 984.828 1579.44C981.476 1580.61 978.046 1581.55 974.565 1582.26C970.366 1582.81 966.096 1582.37 962.094 1580.99C959.835 1580.16 957.773 1578.87 956.044 1577.19C954.314 1575.52 952.954 1573.51 952.052 1571.27C949.769 1566.74 948.849 1561.64 949.403 1556.6C949.977 1552.79 951.943 1549.33 954.921 1546.88C957.459 1544.65 960.301 1542.8 963.364 1541.37L962.646 1543.02C960.4 1536.18 960.915 1528.74 964.081 1522.27C966.708 1517.43 970.25 1513.14 974.51 1509.64C977.242 1507.36 980.158 1505.31 983.228 1503.51C984.283 1502.75 985.458 1502.17 986.705 1501.8C986.98 1502.19 982.235 1504.95 975.669 1510.91C971.792 1514.45 968.578 1518.65 966.178 1523.32C963.457 1529.28 963.141 1536.06 965.295 1542.25L965.626 1543.3L964.578 1543.85C959.391 1546.55 953.155 1550.53 952.548 1557.04C952.087 1561.53 952.89 1566.06 954.866 1570.12C955.597 1572.02 956.722 1573.76 958.167 1575.2C959.612 1576.65 961.345 1577.77 963.253 1578.5C966.78 1579.8 970.55 1580.29 974.289 1579.94C977.677 1579.33 981.029 1578.54 984.332 1577.56C990.457 1575.85 995.368 1574.14 998.679 1572.93C1000.34 1572.12 1002.08 1571.49 1003.87 1571.05Z" fill="#EB996E"/>
<path d="M1431.4 454.816C1419.43 335.297 1394.1 216.329 1399.34 96.1465L1301.06 157.507C1305.98 205.072 1263.21 241.932 1238.44 282.765C1223.61 307.711 1214.91 335.818 1213.06 364.778C1211.21 393.738 1216.26 422.723 1227.79 449.354C1236.61 469.219 1249.14 487.98 1252.4 509.5C1257.91 545.808 1235.46 582.724 1243.73 618.536C1253.22 659.755 1303.66 682.379 1344.33 670.791C1384.99 659.203 1414.13 621.129 1426.1 580.792C1438.08 540.456 1435.59 496.919 1431.4 454.816Z" fill="#263238"/>
<path d="M1306.36 137.311C1311.8 108.148 1324.89 80.9553 1344.3 58.5192C1363.71 36.0832 1388.73 19.2108 1416.81 9.63124C1444.88 0.051692 1475 -1.89055 1504.07 4.00361C1533.15 9.89778 1560.13 23.4164 1582.26 43.174C1600.19 59.2313 1614.87 79.2617 1635.62 91.4565C1659.07 105.196 1662.11 100.561 1687.93 108.893C1713.76 117.226 1764.36 184.655 1765.18 211.804L1785.27 329.889C1785.93 357.755 1751.17 375.689 1724.24 368.515C1697.31 361.342 1678.33 337.559 1662.88 314.273C1647.43 290.987 1632.75 265.77 1608.97 251.147C1569.51 226.923 1518.86 239.284 1474.16 251.147C1429.47 263.011 1377.54 273.219 1340.35 245.629C1308.57 221.626 1299.08 176.378 1306.36 137.311Z" fill="#263238"/>
<path d="M1292.13 308.368C1292.13 230.675 1337.87 132.62 1415.45 136.151L1659.9 182.503C1671.28 183.006 1682.05 187.767 1690.09 195.841C1698.12 203.915 1702.83 214.714 1703.27 226.095L1712.49 808.244H1714.14C1714.14 808.244 1629.22 1021.79 1466.99 981.73C1434.82 973.784 1458.6 893.718 1450.11 858.623L1448.51 858.954C1448.17 854.705 1447.9 850.788 1447.57 846.759C1442.82 820.497 1440.84 793.81 1441.66 767.135C1438.3 720.287 1437.14 700.919 1437.14 701.526C1437.14 702.133 1337.26 691.042 1309.01 563.3C1294.99 500.064 1291.85 394.725 1292.13 308.368Z" fill="#FFBE9D"/>
<path d="M1335.28 410.011C1335.49 414.324 1337.38 418.382 1340.55 421.32C1343.71 424.258 1347.9 425.843 1352.22 425.737C1354.33 425.781 1356.44 425.401 1358.41 424.618C1360.37 423.835 1362.16 422.665 1363.67 421.179C1365.18 419.692 1366.37 417.918 1367.18 415.962C1367.99 414.006 1368.4 411.907 1368.39 409.79C1368.17 405.477 1366.28 401.419 1363.11 398.481C1359.95 395.543 1355.76 393.957 1351.45 394.064C1349.33 394.019 1347.22 394.4 1345.26 395.183C1343.29 395.966 1341.5 397.135 1339.99 398.622C1338.49 400.109 1337.29 401.883 1336.48 403.839C1335.67 405.795 1335.26 407.893 1335.28 410.011Z" fill="#263238"/>
<path d="M1318.23 361.727C1320.38 363.769 1332.35 353.726 1350.18 352.733C1368 351.74 1381.57 359.796 1383.28 357.534C1384.22 356.485 1381.85 352.733 1375.94 348.925C1367.91 344.037 1358.56 341.762 1349.18 342.414C1340.01 343.07 1331.28 346.604 1324.24 352.512C1318.72 356.816 1317.12 360.844 1318.23 361.727Z" fill="#263238"/>
<path d="M1495.85 401.016C1496.07 405.328 1497.96 409.387 1501.12 412.325C1504.29 415.263 1508.48 416.848 1512.79 416.742C1514.91 416.786 1517.01 416.406 1518.98 415.623C1520.95 414.84 1522.74 413.67 1524.24 412.184C1525.75 410.697 1526.95 408.923 1527.76 406.967C1528.57 405.011 1528.98 402.912 1528.96 400.795C1528.75 396.452 1526.83 392.369 1523.63 389.426C1520.43 386.484 1516.2 384.918 1511.85 385.068C1509.75 385.046 1507.66 385.443 1505.72 386.236C1503.77 387.029 1502 388.202 1500.51 389.687C1499.02 391.171 1497.84 392.938 1497.04 394.883C1496.24 396.828 1495.84 398.913 1495.85 401.016Z" fill="#263238"/>
<path d="M1493.42 354.554C1495.58 356.541 1507.55 346.553 1525.37 345.505C1543.2 344.456 1556.77 352.623 1558.48 350.305C1559.36 349.257 1557.1 345.505 1551.14 341.697C1543.1 336.832 1533.76 334.559 1524.38 335.186C1515.13 335.744 1506.29 339.199 1499.11 345.063C1493.98 349.588 1492.32 353.616 1493.42 354.554Z" fill="#263238"/>
<path d="M1436.75 490.464C1436.75 489.416 1425.72 488.202 1407.51 486.988C1402.93 486.988 1398.57 486.105 1397.63 483.07C1396.96 478.39 1397.73 473.618 1399.84 469.385C1403.48 458.349 1407.23 446.375 1411.2 434.015C1426.93 383.58 1437.97 342.25 1435.92 341.643C1433.88 341.037 1419.37 381.373 1403.81 431.752L1393.05 467.399C1390.5 473.034 1390.05 479.394 1391.78 485.332C1392.53 486.907 1393.63 488.289 1395 489.37C1396.37 490.451 1397.97 491.203 1399.67 491.568C1402.23 492.101 1404.84 492.305 1407.45 492.174C1425.55 492.064 1436.75 491.457 1436.75 490.464Z" fill="#263238"/>
<path d="M1437.14 701.858C1497.92 699.103 1556.76 679.543 1607.09 645.354C1607.09 645.354 1568.91 737.78 1439.12 733.642L1437.14 701.858Z" fill="#EB996E"/>
<path d="M1446.85 532.897C1449.97 528.424 1454.19 524.824 1459.09 522.439C1464 520.053 1469.43 518.962 1474.88 519.267C1478.83 519.365 1482.71 520.266 1486.3 521.917C1489.89 523.568 1493.1 525.934 1495.74 528.868C1498.3 531.69 1499.93 535.23 1500.42 539.01C1500.9 542.79 1500.21 546.627 1498.44 550.002C1495.78 553.371 1492.18 555.868 1488.09 557.176C1484 558.483 1479.61 558.541 1475.49 557.341C1466.89 554.874 1458.88 550.709 1451.93 545.091C1449.79 543.806 1447.91 542.12 1446.41 540.125C1445.7 539.184 1445.28 538.052 1445.21 536.873C1445.14 535.694 1445.42 534.521 1446.02 533.503" fill="#EB996E"/>
<path d="M1489.78 499.623C1486.86 499.623 1487.96 518.936 1472.29 533.614C1456.62 548.291 1435.87 547.464 1435.87 550.168C1435.87 551.382 1440.67 553.644 1449.39 553.368C1460.72 552.855 1471.51 548.361 1479.85 540.677C1487.85 533.29 1492.66 523.077 1493.26 512.204C1493.64 504.092 1491.16 499.402 1489.78 499.623Z" fill="#263238"/>
<path d="M1484.87 287.07C1486.91 291.815 1504.57 288.449 1525.59 289.718C1546.62 290.988 1563.89 295.623 1566.37 291.098C1567.47 288.946 1564.27 284.587 1557.21 280.062C1547.77 274.862 1537.27 271.881 1526.5 271.345C1515.74 270.81 1504.99 272.734 1495.08 276.972C1487.63 280.779 1484.26 284.807 1484.87 287.07Z" fill="#263238"/>
<path d="M1321.65 309.803C1325.01 313.666 1337.04 308.755 1351.77 307.651C1366.51 306.548 1379.36 308.755 1381.79 304.341C1382.95 302.189 1380.74 298.271 1375 294.794C1367.41 290.624 1358.74 288.817 1350.11 289.603C1341.48 290.39 1333.28 293.734 1326.56 299.209C1321.59 303.678 1320.16 307.927 1321.65 309.803Z" fill="#263238"/>
<path d="M1417.66 102.934L1427.7 88.2559C1502.74 92.1444 1576.9 106.215 1648.15 130.082C1676.62 139.628 1705.53 151.382 1725.95 173.399C1754.09 203.637 1760.99 247.34 1766.51 288.283C1787.59 444.057 1807.01 604.686 1767.06 756.762C1754.04 738.442 1730.31 731.324 1708.02 728.399C1685.72 725.474 1662.49 725.585 1641.8 716.591C1630.56 711.445 1620.53 704.005 1612.33 694.749C1604.14 685.493 1597.98 674.625 1594.24 662.845C1586.86 639.071 1588.1 613.462 1597.71 590.504C1608.14 564.956 1627.95 539.683 1621.05 513.252C1613.82 485.276 1580.33 471.095 1570.95 443.781C1554.78 396.546 1619.51 349.202 1602.9 302.134C1596.72 284.752 1580.5 272.833 1563.5 265.66C1546.5 258.486 1528.18 255.01 1511.02 248.333C1482.49 236.512 1458.25 216.248 1441.56 190.259C1424.88 164.27 1416.53 133.799 1417.66 102.934Z" fill="#263238"/>
<path d="M1799.4 179.911C1719.16 67.454 1664.81 53.8245 1589.33 49.6309L1694.17 284.698C1709.89 322.551 1731.52 368.461 1734.89 409.239C1738.86 457.632 1722.09 498.134 1699.63 541.119C1672.7 592.768 1643.13 641.988 1596.83 677.303C1550.53 712.618 1447.46 757.038 1393.93 734.139L1468.59 775.91L1646.93 776.572L1854.69 777.4C1854.69 777.4 1878.97 756.1 1900.32 701.141C1953.9 563.467 1888.9 305.335 1799.4 179.911Z" fill="#2D9CDB"/>
<path d="M1947.33 912.37C1947.33 912.37 1902.64 820.661 1844.31 770.226C1785.99 719.791 1750.18 720.288 1666.96 727.351C1583.75 734.414 1467.32 747.547 1439.73 740.539L1437.14 701.913C1423.45 700.534 1367.34 673.22 1356.41 656.721C1335.55 678.075 1326.45 700.865 1331.19 725.089L1317.56 730.221C1297.46 737.577 1280.76 752.078 1270.67 770.957C1260.57 789.837 1257.78 811.773 1262.83 832.579C1268.01 852.444 1280.54 864.639 1305.7 868.998C1405.58 886.27 1672.59 814.094 1752.99 813.818C1833.39 813.542 1947.33 912.37 1947.33 912.37Z" fill="#2D9CDB"/>
<path d="M1296.65 867.949C1298.99 867.88 1301.34 868.009 1303.66 868.335C1308.18 868.777 1314.69 869.494 1323.47 870.101C1347.81 871.998 1372.24 872.403 1396.63 871.315C1432.77 869.455 1468.69 864.582 1504.01 856.747C1523.99 852.388 1544.79 847.091 1566.15 840.911L1632.03 820.549C1677.22 806.809 1722.53 797.429 1763.97 801.512C1800.48 804.851 1835.81 816.152 1867.49 834.62C1888.75 847.081 1907.97 862.732 1924.49 881.026C1928.97 885.969 1933.17 891.165 1937.07 896.587C1938.51 898.325 1939.82 900.17 1940.99 902.105C1939.24 900.561 1937.69 898.821 1936.35 896.918C1933.54 893.332 1929.07 888.31 1923.16 882.02C1881.05 837.914 1824.33 810.649 1763.58 805.32C1722.97 801.567 1678.38 810.838 1633.36 824.522C1610.79 831.309 1588.88 838.538 1567.42 844.773C1545.95 851.009 1525.04 856.195 1504.9 860.444C1469.32 868.165 1433.13 872.744 1396.75 874.129C1372.23 874.949 1347.69 874.045 1323.3 871.425C1314.69 870.542 1308.02 869.549 1303.55 868.832C1301.23 868.736 1298.92 868.441 1296.65 867.949Z" fill="#263238"/>
<path d="M1952.13 882.24C1851.38 751.243 1658.19 701.195 1506.45 766.748L1346.42 800.684C1304.21 807.968 1236.5 821.708 1233.3 860.83C1230.38 902.264 1239.4 943.666 1259.29 980.129C1296.49 1044.91 1276.29 1131.71 1313.48 1196.49C1331.03 1227.12 1348.96 1258.18 1374.56 1282.52C1400.17 1306.85 1434.93 1323.9 1470.03 1320.09C1509.09 1315.9 1541.1 1287.37 1565.93 1256.91C1619.4 1191.3 1652.78 1111.62 1702.83 1043.42C1752.88 975.218 1811.92 925.004 1917.09 918.548C1936.19 917.334 1990.65 942.773 1990.65 942.773C1992.19 935.047 1956.93 888.365 1952.13 882.24Z" fill="#2D9CDB"/>
<g opacity="0.3">
<path d="M1736.77 804.327C1667.19 804.327 1598.82 837.766 1531.39 852.665C1260.12 912.37 1260.12 810.066 1260.12 810.066C1251.63 858.128 1296.76 880.2 1344.27 891.236C1434.99 912.204 1531.88 923.461 1597.33 902.547C1650.08 885.993 1705.15 873.688 1758.4 858.403C1811.65 843.119 1888.35 848.968 1928.68 886.821C1892.6 827.503 1806.35 804.162 1736.77 804.327Z" fill="black"/>
</g>
<g opacity="0.3">
<path d="M1384.22 796.989C1387.46 804.094 1392.19 810.418 1398.1 815.531C1404 820.644 1410.94 824.426 1418.43 826.621C1433.46 830.951 1449.18 832.301 1464.73 830.594C1521.45 826.731 1575.97 807.804 1629.66 789.043C1586.73 787.553 1545.18 802.507 1503.08 811.115C1460.97 819.723 1413.52 820.275 1379.31 794.561" fill="black"/>
</g>
<path d="M1965.76 924.234C1965.76 924.234 1965.26 923.848 1964.49 923.02L1961.13 919.157C1958.2 915.681 1953.73 910.825 1947.83 904.645C1931.21 887.165 1911.11 873.35 1888.84 864.087C1873.3 858.223 1856.97 854.69 1840.39 853.603C1821.38 852.062 1802.26 852.673 1783.39 855.424C1743.33 860.942 1701.01 875.013 1656.09 887.815C1611.17 900.617 1568.3 913.97 1527.52 916.122C1491.57 917.672 1455.56 915.099 1420.2 908.452C1390.07 902.934 1366.07 896.533 1349.46 892.395L1330.36 887.539L1325.45 886.215L1323.74 885.663C1324.33 885.576 1324.92 885.576 1325.51 885.663L1330.53 886.711L1349.73 891.071C1366.29 894.878 1390.45 900.893 1420.58 906.19C1455.8 912.549 1491.61 914.918 1527.36 913.253C1567.69 910.99 1610.62 898.244 1655.32 884.835C1700.01 871.426 1742.61 857.907 1783.01 852.555C1802.09 849.863 1821.41 849.344 1840.61 851.01C1861.2 852.193 1881.35 857.457 1899.89 866.493C1918.43 875.53 1934.99 888.161 1948.6 903.652C1954.45 909.997 1958.81 914.963 1961.57 918.55L1964.71 922.578L1965.76 924.234Z" fill="black"/>
<path d="M1864.45 789.264C1864.04 788.99 1863.65 788.676 1863.29 788.326L1860.09 785.401C1857.39 782.752 1853.14 779.055 1847.62 774.365C1831.73 761.521 1814.31 750.697 1795.75 742.14C1768.22 729.523 1738.94 721.115 1708.9 717.198C1672.08 712.628 1634.84 712.721 1598.04 717.474C1561.22 722.343 1524.67 729.158 1488.57 737.891C1472.61 741.639 1456.19 742.941 1439.84 741.754C1425.47 740.679 1411.67 735.678 1399.95 727.297C1390.54 720.152 1382.5 711.366 1376.22 701.362C1371.48 693.896 1367.36 686.053 1363.91 677.91C1361.1 671.234 1359.22 665.881 1358.01 662.239L1356.74 658.101C1356.56 657.642 1356.45 657.158 1356.41 656.666C1356.41 656.666 1356.69 657.107 1357.02 657.99C1357.35 658.873 1357.96 660.418 1358.56 662.074C1359.94 665.605 1361.98 670.847 1364.96 677.469C1368.57 685.458 1372.79 693.152 1377.6 700.479C1383.89 710.206 1391.87 718.728 1401.16 725.641C1412.66 733.672 1426.13 738.422 1440.12 739.381C1456.2 740.425 1472.34 739.048 1488.01 735.298C1524.17 726.382 1560.79 719.493 1597.71 714.66C1634.75 709.881 1672.25 709.881 1709.29 714.66C1739.54 718.764 1769 727.453 1796.64 740.429C1815.25 749.152 1832.63 760.284 1848.34 773.537C1852.6 777.152 1856.67 780.983 1860.53 785.015L1863.51 788.105C1864.18 788.877 1864.51 789.208 1864.45 789.264Z" fill="black"/>
<path d="M1831.9 786.558H1830.52L1826.43 785.896L1810.71 783.303C1791.43 780.335 1772.02 778.365 1752.55 777.399C1723.64 775.976 1694.67 776.899 1665.91 780.158C1630.74 784.879 1595.87 791.715 1561.51 800.629C1524.87 809.458 1489.23 817.183 1456.18 816.687C1440.57 816.785 1425.02 814.932 1409.88 811.169C1396.68 807.435 1384.46 800.82 1374.12 791.8C1359.28 778.833 1347.23 762.99 1338.7 745.229C1335.45 738.799 1332.88 732.049 1331.03 725.088C1331.29 725.479 1331.49 725.907 1331.63 726.357L1333.12 730.22C1334.5 733.641 1336.6 738.552 1339.69 744.677C1348.51 762.063 1360.66 777.548 1375.45 790.255C1385.63 798.935 1397.59 805.282 1410.49 808.851C1425.44 812.489 1440.79 814.249 1456.18 814.093C1488.84 814.093 1524.21 806.754 1561.02 797.87C1595.51 788.887 1630.52 782.068 1665.86 777.454C1694.76 774.342 1723.86 773.622 1752.88 775.302C1772.42 776.437 1791.87 778.703 1811.15 782.089C1817.99 783.358 1823.23 784.407 1826.82 785.234L1830.85 786.172C1831.51 786.338 1831.9 786.503 1831.9 786.558Z" fill="black"/>
<path d="M1836.97 538.91C1836.48 542.043 1835.78 545.14 1834.88 548.18C1834.02 551.807 1832.95 555.381 1831.68 558.885C1830.24 563.024 1828.86 567.769 1826.65 572.791C1824.45 577.812 1822.3 583.44 1819.37 589.345C1816.45 595.249 1813.19 601.153 1809.6 607.499C1793.49 634.621 1772.52 658.545 1747.75 678.074C1741.95 682.489 1736.71 686.737 1731.19 690.159C1725.68 693.58 1720.71 696.835 1715.91 699.539C1711.11 702.243 1706.69 704.45 1702.83 706.381C1699.52 708.113 1696.11 709.643 1692.62 710.961C1689.75 712.285 1686.78 713.392 1683.74 714.272C1686.43 712.611 1689.25 711.172 1692.18 709.968C1694.94 708.699 1698.31 707.099 1702.11 704.947C1705.92 702.795 1710.34 700.753 1714.91 697.773C1719.49 694.794 1724.68 691.924 1729.87 688.172C1735.06 684.42 1740.52 680.392 1746.42 676.032C1770.73 656.422 1791.45 632.749 1807.67 606.064C1811.26 599.829 1814.79 593.98 1817.55 588.241C1820.31 582.502 1823.07 577.205 1825.11 572.128C1827.15 567.052 1828.92 562.527 1830.63 558.499C1832.34 554.471 1833.33 550.884 1834.21 548.015C1834.87 544.907 1835.8 541.861 1836.97 538.91Z" fill="black"/>
<path d="M1828.64 867.839C1827.14 867.838 1825.65 867.708 1824.17 867.453L1818.65 866.736C1816.56 866.46 1814.07 866.735 1811.37 866.349C1795.76 865.975 1780.22 868.385 1765.46 873.467C1755.28 876.962 1745.38 881.203 1735.83 886.159C1724.89 891.923 1714.26 898.259 1703.99 905.141C1682.25 919.653 1659.51 937.421 1635.12 955.355L1510.64 1047.78L1472.62 1075.37L1462.19 1082.54C1461.03 1083.49 1459.77 1084.3 1458.44 1084.97C1459.49 1083.94 1460.61 1082.98 1461.8 1082.1L1471.9 1074.27L1509.37 1045.85L1633.52 953.037C1657.91 935.159 1680.65 917.391 1702.66 902.934C1713.04 896.053 1723.78 889.735 1734.83 884.007C1744.55 879.111 1754.63 874.943 1764.96 871.536C1779.96 866.568 1795.75 864.435 1811.53 865.246C1814.29 865.246 1816.78 865.522 1818.87 865.853L1824.39 866.846C1825.83 867.051 1827.26 867.383 1828.64 867.839Z" fill="black"/>
<path d="M2006.7 1037.02C2005.63 1034.52 2004.82 1031.91 2004.28 1029.24C2002.95 1024.22 2001.08 1016.88 1998.43 1007.94C1995.45 997.457 1991.67 987.218 1987.12 977.316C1981.58 965.265 1974.03 954.253 1964.77 944.759C1955.56 935.232 1944.04 928.255 1931.33 924.508C1920.87 921.706 1910 920.754 1899.21 921.694C1889.23 922.815 1879.32 924.51 1869.53 926.771C1870.12 926.376 1870.77 926.078 1871.46 925.888C1872.78 925.391 1874.71 924.729 1876.98 924.012C1884.18 921.874 1891.57 920.433 1899.05 919.708C1910.13 918.414 1921.35 919.182 1932.16 921.97C1945.37 925.709 1957.36 932.866 1966.92 942.718C1976.42 952.448 1984.12 963.789 1989.65 976.212C1994.18 986.286 1997.87 996.713 2000.69 1007.39C2003.06 1016.44 2004.66 1023.94 2005.66 1029.02C2006.24 1031.65 2006.59 1034.33 2006.7 1037.02Z" fill="black"/>
</svg>
