<svg width="2489" height="2082" viewBox="0 0 2489 2082" fill="none" xmlns="http://www.w3.org/2000/svg">
<path d="M1325.68 9.00671C687.363 -54.5724 317.956 319.158 251.176 942.009C186.076 1546.37 333.34 2082 941.089 2082C1133.59 2082 1359.19 1957.49 1577.82 1893.5C2049.31 1755.95 2455.49 1764.61 2487.53 1149.05C2522.38 476.476 1930.47 69.2234 1325.68 9.00671Z" fill="#8A5FE6"/>
<path opacity="0.75" d="M1413.49 165.478C823.366 106.698 481.845 452.219 420.106 1028.06C359.92 1586.8 496.067 2082 1057.94 2082C1235.9 2082 1444.48 1966.89 1646.6 1907.73C2082.5 1780.56 2458.02 1788.57 2487.64 1219.47C2519.86 597.662 1972.63 221.149 1413.49 165.478Z" fill="white"/>
<path d="M2.55859 1970.58H2423.44" stroke="#263238" stroke-width="5" stroke-linecap="round" stroke-linejoin="round"/>
<path d="M689.513 1917.2H615.561C598.478 1917.2 582.017 1910.79 569.442 1899.23C556.866 1887.66 549.092 1871.8 547.661 1854.78L532.848 1707.04H771.823L757.644 1854.78C756.197 1871.83 748.386 1887.72 735.764 1899.29C723.142 1910.85 706.632 1917.25 689.513 1917.2Z" fill="white"/>
<mask id="mask0_20_720" style="mask-type:luminance" maskUnits="userSpaceOnUse" x="532" y="1707" width="240" height="211">
<path d="M689.513 1917.2H615.561C598.478 1917.2 582.017 1910.79 569.442 1899.23C556.866 1887.66 549.092 1871.8 547.661 1854.78L532.848 1707.04H771.823L757.644 1854.78C756.197 1871.83 748.386 1887.72 735.764 1899.29C723.142 1910.85 706.632 1917.25 689.513 1917.2Z" fill="white"/>
</mask>
<g mask="url(#mask0_20_720)">
<path d="M763.408 1792.29L764.215 1791.2C764.561 1790.39 765.368 1788.66 765.599 1787.91C765.829 1787.16 766.002 1785.84 766.175 1784.8C766.348 1783.76 766.175 1784.34 766.175 1784.11C766.636 1780.07 766.982 1775.98 767.558 1771.95H540.918C543.878 1778.39 544.608 1785.63 542.993 1792.52V1792.81C542.993 1794.72 542.993 1796.56 542.993 1798.58C542.993 1799.27 542.993 1799.96 542.993 1800.65V1800.77C543.685 1802.9 543.685 1803.07 542.993 1801.46V1801.75C544.237 1805.06 544.975 1808.54 545.183 1812.06H760.353C759.432 1808.74 759.228 1805.26 759.754 1801.85C760.281 1798.44 761.527 1795.18 763.408 1792.29Z" fill="#8A5FE6"/>
</g>
<path d="M689.513 1917.2H615.561C598.478 1917.2 582.017 1910.79 569.442 1899.23C556.866 1887.66 549.092 1871.8 547.661 1854.78L532.848 1707.04H771.823L757.644 1854.78C756.197 1871.83 748.386 1887.72 735.764 1899.29C723.142 1910.85 706.632 1917.25 689.513 1917.2Z" stroke="#263238" stroke-width="5" stroke-linecap="round" stroke-linejoin="round"/>
<path d="M689.514 1917.2H615.562C603.386 1917.22 591.433 1913.93 580.978 1907.69L578.961 1931.26H726.116L724.098 1907.69C713.644 1913.93 701.691 1917.22 689.514 1917.2Z" fill="white" stroke="#263238" stroke-width="5" stroke-linecap="round" stroke-linejoin="round"/>
<path d="M797.994 1728.43C787.561 1725.95 777.704 1730.33 768.712 1738.75L765.773 1768.55C773.958 1755 783.699 1745.49 793.844 1748.08C815.574 1753.27 823.24 1780.94 816.323 1809.7C809.406 1838.46 786.235 1857.43 764.447 1852.24L757.53 1850.63L757.127 1854.78C756.739 1859.02 755.987 1863.23 754.879 1867.34L757.646 1867.98C791.423 1876.1 826.352 1851.49 835.633 1812.93C844.913 1774.37 831.944 1736.61 797.994 1728.43Z" fill="white" stroke="#263238" stroke-width="5" stroke-linecap="round" stroke-linejoin="round"/>
<path d="M652.973 1898.3C628.937 1901.93 602.365 1921.7 605.247 1940.66C608.129 1959.62 639.427 1970.63 663.463 1967C682.83 1964.01 686.519 1947.69 697.01 1937.49C727.847 1907.58 846.874 1908.09 890.968 1909.36C893.006 1909.42 895.031 1909.03 896.901 1908.22C898.77 1907.4 900.438 1906.19 901.786 1904.66C903.134 1903.13 904.128 1901.32 904.699 1899.37C905.27 1897.41 905.404 1895.35 905.09 1893.34C904.507 1889.81 902.588 1886.65 899.733 1884.5C896.878 1882.36 893.305 1881.39 889.758 1881.81C853.099 1886.02 750.557 1898.41 702.543 1910.63C688.479 1913.92 672.397 1895.36 652.973 1898.3Z" fill="white" stroke="#263238" stroke-width="5" stroke-linecap="round" stroke-linejoin="round"/>
<path d="M732.687 1973.11H562.361C536.455 1973.1 510.789 1968.15 486.737 1958.53L431.461 1936.45C430.141 1935.91 429.05 1934.93 428.373 1933.67C427.696 1932.42 427.474 1930.97 427.746 1929.57C428.018 1928.17 428.766 1926.91 429.864 1926C430.961 1925.09 432.34 1924.59 433.766 1924.58H861.397C862.823 1924.59 864.202 1925.09 865.3 1926C866.398 1926.91 867.146 1928.17 867.418 1929.57C867.689 1930.97 867.468 1932.42 866.791 1933.67C866.113 1934.93 865.022 1935.91 863.703 1936.45L808.426 1958.53C784.34 1968.17 758.632 1973.12 732.687 1973.11Z" fill="white" stroke="#263238" stroke-width="5" stroke-linecap="round" stroke-linejoin="round"/>
<path d="M656.718 1406.51C651.699 1398.14 644.815 1391.04 636.602 1385.76" stroke="#263238" stroke-width="5" stroke-linecap="round" stroke-linejoin="round"/>
<path d="M649.859 1513.09C668.074 1476.72 670.091 1449.28 665.768 1429.39" stroke="#263238" stroke-width="5" stroke-linecap="round" stroke-linejoin="round"/>
<path d="M620.464 1621.45C615.968 1596.78 619.484 1565.71 641.33 1528.71" stroke="#263238" stroke-width="5" stroke-linecap="round" stroke-linejoin="round"/>
<path d="M664.672 1690.79C646.446 1677.3 632.577 1658.77 624.785 1637.47" stroke="#263238" stroke-width="5" stroke-linecap="round" stroke-linejoin="round"/>
<path d="M719.719 1471.24C715.701 1463.12 709.593 1456.22 702.023 1451.24" stroke="#263238" stroke-width="5" stroke-linecap="round" stroke-linejoin="round"/>
<path d="M714.762 1546.34C726.29 1521.21 727.961 1501.85 725.195 1487.32" stroke="#263238" stroke-width="5" stroke-linecap="round" stroke-linejoin="round"/>
<path d="M723.984 1690.79C723.984 1690.79 657.064 1646.12 705.654 1563.58" stroke="#263238" stroke-width="5" stroke-linecap="round" stroke-linejoin="round"/>
<path d="M598.905 1540.29C598.925 1535.24 598.187 1530.2 596.715 1525.36" stroke="#263238" stroke-width="5" stroke-linecap="round" stroke-linejoin="round"/>
<path d="M582.594 1590.61C589.208 1579.91 594.109 1568.24 597.119 1556.03" stroke="#263238" stroke-width="5" stroke-linecap="round" stroke-linejoin="round"/>
<path d="M597.062 1690.79C597.062 1690.79 551.872 1660.65 575.504 1604.62" stroke="#263238" stroke-width="5" stroke-linecap="round" stroke-linejoin="round"/>
<path d="M1027.86 1250.13C1027.86 1250.13 940.65 1490.38 968.317 1593.26C995.984 1696.15 1140.37 1664.45 1175.82 1601.45C1211.27 1538.45 1279.98 1309.91 1279.98 1309.91L1208.79 1173.01L1051.15 1208.57L1036.04 1230.13L1027.86 1250.13Z" fill="#858585"/>
<mask id="mask1_20_720" style="mask-type:luminance" maskUnits="userSpaceOnUse" x="962" y="1173" width="318" height="487">
<path d="M1027.86 1250.13C1027.86 1250.13 940.65 1490.38 968.317 1593.26C995.984 1696.15 1140.37 1664.45 1175.82 1601.45C1211.27 1538.45 1279.98 1309.91 1279.98 1309.91L1208.79 1173.01L1051.15 1208.57L1036.04 1230.13L1027.86 1250.13Z" fill="white"/>
</mask>
<g mask="url(#mask1_20_720)">
<path opacity="0.2" d="M1192.94 1589.75C1193.13 1583.97 1194.92 1578.36 1198.13 1573.55C1196.37 1571.07 1195.28 1568.17 1194.95 1565.15C1194.63 1562.12 1195.09 1559.06 1196.28 1556.26C1206.03 1521.68 1226.66 1480.58 1237.61 1446.05C1249.14 1410.14 1271.33 1369.51 1272.2 1331.41C1273.35 1270.83 1212.94 1244.6 1160.55 1233.42C1132.59 1289.85 1027.98 1493.6 962.555 1515.05C963.535 1532.34 967.396 1549.23 965.84 1566.46C965.84 1567.1 965.84 1567.67 965.84 1568.31C967.653 1571.93 968.878 1575.82 969.471 1579.83C969.904 1583.18 969.904 1586.57 969.471 1589.92L1192.94 1589.75Z" fill="black"/>
</g>
<path d="M1027.86 1250.13C1027.86 1250.13 940.65 1490.38 968.317 1593.26C995.984 1696.15 1140.37 1664.45 1175.82 1601.45C1211.27 1538.45 1279.98 1309.91 1279.98 1309.91L1208.79 1173.01L1051.15 1208.57L1036.04 1230.13L1027.86 1250.13Z" stroke="#263238" stroke-width="3" stroke-linecap="round" stroke-linejoin="round"/>
<path d="M1845.48 364.898C1845.48 364.898 1878.91 334.521 1853.95 302.589C1853.95 302.589 1887.33 278.841 1863.23 237.744C1863.23 237.744 1899.89 191.228 1853.95 160.218C1853.95 160.218 1877.41 111.8 1823.58 112.723C1823.58 112.723 1832.69 61.6537 1778.85 80.7902C1778.85 80.7902 1782.48 29.6635 1736.89 52.4889C1736.89 52.4889 1716.77 6.89571 1693.08 54.3334C1693.08 54.3334 1670.03 -5.90041 1630.08 15.0806C1630.08 15.0806 1552.5 -20.4833 1541.55 25.1099C1541.55 25.1099 1491.34 12.3715 1478.14 47.0131C1478.14 47.0131 1422 39.7505 1419.29 88.1105C1419.29 88.1105 1366.32 106.325 1382.75 145.75C1382.75 145.75 1359.12 176.818 1379.58 207.829C1379.58 207.829 1359.92 228.81 1382.75 267.14C1382.75 267.14 1372.72 306.393 1400.04 334.694L1733.14 389.452L1748.65 465.191L1813.26 439.657L1845.48 364.898Z" fill="#263238" stroke="#263238" stroke-width="3" stroke-linecap="round" stroke-linejoin="round"/>
<path d="M1635.39 44.7648C1623.22 29.0291 1600.8 15.3108 1561.66 32.4298" stroke="#7F7F7F" stroke-width="3" stroke-linecap="round" stroke-linejoin="round"/>
<path d="M1648.35 71.5679C1647.16 66.8175 1645.48 62.2017 1643.34 57.792" stroke="#7F7F7F" stroke-width="3" stroke-linecap="round" stroke-linejoin="round"/>
<path d="M1590.83 67.9944C1590.83 67.9944 1531.52 104.538 1509.61 52.4893" stroke="#7F7F7F" stroke-width="3" stroke-linecap="round" stroke-linejoin="round"/>
<path d="M1685.99 113.126C1685.99 113.126 1619.71 134.568 1610.71 78.8301" stroke="#7F7F7F" stroke-width="3" stroke-linecap="round" stroke-linejoin="round"/>
<path d="M1632.96 159.411C1621.43 142.753 1598.72 126.729 1557.51 144.713" stroke="#7F7F7F" stroke-width="3" stroke-linecap="round" stroke-linejoin="round"/>
<path d="M1644.2 183.965C1643.01 179.238 1641.35 174.642 1639.25 170.247" stroke="#7F7F7F" stroke-width="3" stroke-linecap="round" stroke-linejoin="round"/>
<path d="M1506.1 181.487C1502.65 177.246 1499.84 172.528 1497.74 167.48" stroke="#7F7F7F" stroke-width="3" stroke-linecap="round" stroke-linejoin="round"/>
<path d="M1579.01 182.986C1579.01 182.986 1539.82 207.08 1513.42 188.232" stroke="#7F7F7F" stroke-width="3" stroke-linecap="round" stroke-linejoin="round"/>
<path d="M1843.41 265.238C1843.41 265.238 1860.07 213.881 1802.25 206.906" stroke="#7F7F7F" stroke-width="3" stroke-linecap="round" stroke-linejoin="round"/>
<path d="M1739.48 243.22C1739.48 243.22 1717.98 281.55 1763 296.364" stroke="#7F7F7F" stroke-width="3" stroke-linecap="round" stroke-linejoin="round"/>
<path d="M1807.61 241.03C1807.61 241.03 1755.39 242.067 1760.98 200.105" stroke="#7F7F7F" stroke-width="3" stroke-linecap="round" stroke-linejoin="round"/>
<path d="M1802.25 320.745C1802.25 320.745 1765.08 284.029 1799.03 258.782" stroke="#7F7F7F" stroke-width="3" stroke-linecap="round" stroke-linejoin="round"/>
<path d="M1519.99 150.996C1519.99 150.996 1536.65 99.6385 1478.84 92.6641" stroke="#7F7F7F" stroke-width="3" stroke-linecap="round" stroke-linejoin="round"/>
<path d="M1416.06 129.208C1416.06 129.208 1394.57 167.539 1439.58 182.352" stroke="#7F7F7F" stroke-width="3" stroke-linecap="round" stroke-linejoin="round"/>
<path d="M1484.19 126.787C1484.19 126.787 1431.97 127.824 1437.56 85.8623" stroke="#7F7F7F" stroke-width="3" stroke-linecap="round" stroke-linejoin="round"/>
<path d="M1478.84 206.503C1478.84 206.503 1441.66 169.844 1475.61 144.598" stroke="#7F7F7F" stroke-width="3" stroke-linecap="round" stroke-linejoin="round"/>
<path d="M1802.08 155.838C1802.08 155.838 1818.8 104.48 1760.93 97.4482" stroke="#7F7F7F" stroke-width="3" stroke-linecap="round" stroke-linejoin="round"/>
<path d="M1698.15 133.819C1698.15 133.819 1676.66 172.15 1721.67 186.963" stroke="#7F7F7F" stroke-width="3" stroke-linecap="round" stroke-linejoin="round"/>
<path d="M1766.34 131.571C1766.34 131.571 1714.12 132.666 1719.71 90.7041" stroke="#7F7F7F" stroke-width="3" stroke-linecap="round" stroke-linejoin="round"/>
<path d="M2168.55 902.794C2168.55 902.794 2076.33 1386.97 2062.5 1970.58H1232.94C1232.94 1970.58 1327.01 1475.27 1221.41 829.303C1221.59 829.13 1649.28 524.733 2168.55 902.794Z" fill="#8A5FE6"/>
<mask id="mask2_20_720" style="mask-type:luminance" maskUnits="userSpaceOnUse" x="1221" y="713" width="948" height="1258">
<path d="M2168.55 902.794C2168.55 902.794 2076.33 1386.97 2062.5 1970.58H1232.94C1232.94 1970.58 1327.01 1475.27 1221.41 829.303C1221.59 829.13 1649.28 524.733 2168.55 902.794Z" fill="white"/>
</mask>
<g mask="url(#mask2_20_720)">
<path opacity="0.2" d="M2135.76 949.598C2135.76 949.598 2029.93 1120.27 2011.66 1282.3C2001.04 1371.81 1994.96 1461.81 1993.44 1551.94L1522.52 1428.07C1522.52 1428.07 1807.21 1668.6 1958.74 1769.18C2025.14 1813.22 2062.84 1956.8 2062.84 1956.8L2072.7 1749.3L2060.3 1308.93L2168.78 1004.36L2135.76 949.598Z" fill="black"/>
<path opacity="0.2" d="M1722.82 914.38L1623.51 838.295L1518.66 910.633L1486.9 805.44L1587.08 766.188L1717.81 781.693L1761.61 840.313L1722.82 914.38Z" fill="black"/>
</g>
<path d="M2168.55 902.794C2168.55 902.794 2076.33 1386.97 2062.5 1970.58H1232.94C1232.94 1970.58 1327.01 1475.27 1221.41 829.303C1221.59 829.13 1649.28 524.733 2168.55 902.794Z" stroke="#263238" stroke-width="3" stroke-linecap="round" stroke-linejoin="round"/>
<path d="M2291.79 1307.37C2291.79 1307.37 2304.59 1646.29 2184.93 1763.71C2184.93 1763.71 2041.23 1796.56 1620.98 1477.12C1620.98 1477.12 1579.24 1480.75 1557.57 1455.22C1557.57 1455.22 1489.84 1478.96 1454.34 1440.63C1454.34 1440.63 1408.8 1442.42 1398.6 1400.29C1398.6 1400.29 1369.78 1403.92 1359.64 1391.18C1359.64 1391.18 1325.05 1392.97 1320.15 1374.75C1315.25 1356.54 1354.33 1341.78 1354.33 1341.78C1354.33 1341.78 1355.08 1299.88 1372.43 1287.14C1382.66 1279.54 1393.89 1273.39 1405.81 1268.87C1405.81 1268.87 1290.99 1199.7 1304.99 1161.19C1319 1122.69 1338.25 1190.36 1447.48 1237.86C1447.48 1237.86 1502.35 1239.64 1512.9 1259.76L1645.76 1371.06C1645.76 1371.06 1684.61 1381.44 1697.35 1385.7C1779.95 1413.25 1895.75 1462.36 2033.27 1471.47L2059.96 1252.44C2059.96 1252.44 2226.71 1212.44 2291.79 1307.37Z" fill="#858585"/>
<mask id="mask3_20_720" style="mask-type:luminance" maskUnits="userSpaceOnUse" x="1303" y="1149" width="990" height="616">
<path d="M2291.79 1307.37C2291.79 1307.37 2304.59 1646.29 2184.93 1763.71C2184.93 1763.71 2041.23 1796.56 1620.98 1477.12C1620.98 1477.12 1579.24 1480.75 1557.57 1455.22C1557.57 1455.22 1489.84 1478.96 1454.34 1440.63C1454.34 1440.63 1408.8 1442.42 1398.6 1400.29C1398.6 1400.29 1369.78 1403.92 1359.64 1391.18C1359.64 1391.18 1325.05 1392.97 1320.15 1374.75C1315.25 1356.54 1354.33 1341.78 1354.33 1341.78C1354.33 1341.78 1355.08 1299.88 1372.43 1287.14C1382.66 1279.54 1393.89 1273.39 1405.81 1268.87C1405.81 1268.87 1290.99 1199.7 1304.99 1161.19C1319 1122.69 1338.25 1190.36 1447.48 1237.86C1447.48 1237.86 1502.35 1239.64 1512.9 1259.76L1645.76 1371.06C1645.76 1371.06 1684.61 1381.44 1697.35 1385.7C1779.95 1413.25 1895.75 1462.36 2033.27 1471.47L2059.96 1252.44C2059.96 1252.44 2226.71 1212.44 2291.79 1307.37Z" fill="white"/>
</mask>
<g mask="url(#mask3_20_720)">
<path opacity="0.2" d="M2116.1 1250.13L2077.02 1473.26L2033.1 1471.64L2036.91 1440.63L2056.73 1277.46L2072.7 1206.1L2106.59 1213.36L2116.1 1250.13Z" fill="black"/>
<path opacity="0.2" d="M2273 1559.14C2273 1559.14 2231.61 1694.31 2181.41 1743.59C2181.41 1743.59 2227.06 1672.4 2026.3 1621.34C1825.54 1570.27 1632.96 1449.16 1632.96 1449.16C1632.96 1449.16 1563.8 1394 1532.56 1404.15C1501.32 1414.29 1514.11 1430.03 1522.53 1427.95C1530.94 1425.88 1542.59 1429.11 1543.28 1440.52C1543.97 1451.93 1544.37 1459.89 1530.77 1461.1C1539.47 1458.44 1548.38 1456.51 1557.4 1455.33C1563.16 1457.29 1585.47 1471.01 1591.98 1473.37C1601.38 1476.95 1610.54 1472.8 1621.21 1477.24C1640.46 1485.3 1662.42 1512.51 1683.63 1523.35C1695.79 1529.69 1822.89 1619.32 1835.74 1626C1977.42 1699.61 2023.82 1719.27 2023.82 1719.27L2098.75 1752.29L2157.6 1763.82H2184.93L2223.66 1710.97L2259.8 1617.19L2266.66 1578.45L2273 1559.14Z" fill="black"/>
<path opacity="0.2" d="M1505.81 1462.31C1502.31 1459.89 1499.47 1456.65 1497.53 1452.87C1495.59 1449.09 1494.61 1444.88 1494.69 1440.63C1496.07 1427.38 1468.06 1446.74 1452.61 1426.11C1452.61 1426.11 1419.87 1423.98 1398.43 1383.57C1398.43 1383.57 1362.87 1389.8 1357.62 1374C1357.62 1374 1355.03 1325.41 1350.93 1327.43C1346.84 1329.45 1336.58 1336.36 1336.58 1336.36L1346.84 1400.46L1405.63 1448.59L1474.05 1475.97H1505.81V1462.31Z" fill="black"/>
<path opacity="0.2" d="M1392.03 1269.04C1392.03 1269.04 1406.67 1270.54 1442.93 1256.3C1442.93 1256.3 1389.61 1242.81 1355.03 1215.15C1320.44 1187.48 1312.43 1157.04 1303.61 1170.01C1294.79 1182.98 1331.11 1223.39 1331.11 1223.39L1392.03 1269.04Z" fill="black"/>
</g>
<path d="M2291.79 1307.37C2291.79 1307.37 2304.59 1646.29 2184.93 1763.71C2184.93 1763.71 2041.23 1796.56 1620.98 1477.12C1620.98 1477.12 1579.24 1480.75 1557.57 1455.22C1557.57 1455.22 1489.84 1478.96 1454.34 1440.63C1454.34 1440.63 1408.8 1442.42 1398.6 1400.29C1398.6 1400.29 1369.78 1403.92 1359.64 1391.18C1359.64 1391.18 1325.05 1392.97 1320.15 1374.75C1315.25 1356.54 1354.33 1341.78 1354.33 1341.78C1354.33 1341.78 1355.08 1299.88 1372.43 1287.14C1382.66 1279.54 1393.89 1273.39 1405.81 1268.87C1405.81 1268.87 1290.99 1199.7 1304.99 1161.19C1319 1122.69 1338.25 1190.36 1447.48 1237.86C1447.48 1237.86 1502.35 1239.64 1512.9 1259.76L1645.76 1371.06C1645.76 1371.06 1684.61 1381.44 1697.35 1385.7C1779.95 1413.25 1895.75 1462.36 2033.27 1471.47L2059.96 1252.44C2059.96 1252.44 2226.71 1212.44 2291.79 1307.37Z" stroke="#263238" stroke-width="3" stroke-linecap="round" stroke-linejoin="round"/>
<path d="M2046.24 1473.26C2092.87 1475.56 2112.18 1463.8 2151.2 1516.37" stroke="#263238" stroke-width="3" stroke-linecap="round" stroke-linejoin="round"/>
<path d="M1474.05 1297.34C1474.05 1297.34 1406.9 1326.16 1403.33 1343.45C1400.56 1362.42 1398.92 1381.53 1398.43 1400.69" stroke="#263238" stroke-width="3" stroke-linecap="round" stroke-linejoin="round"/>
<path d="M1509.56 1335.67C1505.32 1344.73 1498.79 1352.52 1490.59 1358.27C1471.75 1372.16 1450.65 1374 1450.25 1391.12C1449.84 1408.24 1453.94 1440.63 1453.94 1440.63" stroke="#263238" stroke-width="3" stroke-linecap="round" stroke-linejoin="round"/>
<path d="M1354.16 1341.95L1359.46 1391.35" stroke="#263238" stroke-width="3" stroke-linecap="round" stroke-linejoin="round"/>
<path d="M1405.63 1269.04L1461.14 1250.13" stroke="#263238" stroke-width="3" stroke-linecap="round" stroke-linejoin="round"/>
<path d="M1539.24 1398.21C1529.31 1407.82 1518.05 1415.96 1505.81 1422.36" stroke="#263238" stroke-width="3" stroke-linecap="round" stroke-linejoin="round"/>
<path d="M1221.59 829.13C1221.59 829.13 1026.82 906.425 1017.02 1248.58C1016.98 1250.22 1017.4 1251.83 1018.22 1253.25C1019.05 1254.67 1020.25 1255.83 1021.7 1256.61C1023.14 1257.38 1024.77 1257.74 1026.41 1257.65C1028.05 1257.55 1029.63 1257.01 1030.97 1256.07C1061 1234.63 1138.7 1205.69 1269.08 1332.73C1270.44 1334.05 1272.16 1334.94 1274.02 1335.3C1275.88 1335.65 1277.81 1335.45 1279.56 1334.72C1281.31 1333.99 1282.8 1332.76 1283.86 1331.19C1284.92 1329.62 1285.49 1327.77 1285.51 1325.87V1325.41C1285.51 1288.92 1285.05 1213.59 1277.44 1125.4C1269.43 1030.81 1253.35 921.354 1221.59 829.13Z" fill="#8A5FE6" stroke="#263238" stroke-width="3" stroke-linecap="round" stroke-linejoin="round"/>
<path d="M1067.86 1191.51C1113.39 1183.1 1195.47 1186.5 1277.9 1282.3" stroke="#263238" stroke-width="3" stroke-linecap="round" stroke-linejoin="round"/>
<path d="M1031.43 1202.87C1038.2 1199.6 1045.26 1197 1052.53 1195.09" stroke="#263238" stroke-width="3" stroke-linecap="round" stroke-linejoin="round"/>
<path d="M1838.16 751.143C1838.16 751.143 1773.83 651.195 1791.65 478.679L1528.52 495.971C1528.52 495.971 1526.21 724.11 1442.06 736.214L1510.77 824.115L1571.35 828.611L1676.08 829.072L1828.71 779.79L1838.16 751.143Z" fill="#858585"/>
<mask id="mask4_20_720" style="mask-type:luminance" maskUnits="userSpaceOnUse" x="1442" y="478" width="397" height="352">
<path d="M1838.16 751.143C1838.16 751.143 1773.83 651.195 1791.65 478.679L1528.52 495.971C1528.52 495.971 1526.21 724.11 1442.06 736.214L1510.77 824.115L1571.35 828.611L1676.08 829.072L1828.71 779.79L1838.16 751.143Z" fill="white"/>
</mask>
<g mask="url(#mask4_20_720)">
<path d="M1767.55 512.11C1747.19 519.538 1726.3 525.452 1705.07 529.805C1703.75 534.126 1701.3 538.012 1697.96 541.055C1694.63 544.097 1690.53 546.185 1686.11 547.097C1656.88 553.553 1626.97 555.398 1597.57 560.873C1568.18 566.349 1539.93 572.747 1510.77 573.958C1479.41 575.226 1448.75 568.194 1418.54 560.643L1416.58 560.182C1430.01 575.226 1442.98 590.385 1450.07 609.752C1454.91 623.182 1455.43 638.572 1461.6 651.138C1464.6 657.593 1470.13 662.204 1473.47 668.43C1476.59 669.463 1479.44 671.15 1481.86 673.376C1484.27 675.603 1486.17 678.318 1487.45 681.341C1488.73 684.364 1489.34 687.624 1489.26 690.904C1489.17 694.185 1488.39 697.409 1486.96 700.362L1485.23 704.455C1483.7 708.727 1481.29 712.63 1478.15 715.907C1475.01 719.185 1471.22 721.764 1467.02 723.476C1484.31 744.514 1501.31 758.06 1516.24 758.06C1565.81 758.06 1661.44 728.49 1722.94 665.836C1781.56 606.294 1781.5 499.602 1781.67 491.071C1775.91 493.031 1773.14 510.092 1767.55 512.11Z" fill="#263238" stroke="#263238" stroke-width="3" stroke-linecap="round" stroke-linejoin="round"/>
</g>
<path d="M1838.16 751.143C1838.16 751.143 1773.83 651.195 1791.65 478.679L1528.52 495.971C1528.52 495.971 1526.21 724.11 1442.06 736.214L1510.77 824.115L1571.35 828.611L1676.08 829.072L1828.71 779.79L1838.16 751.143Z" stroke="#263238" stroke-width="3" stroke-linecap="round" stroke-linejoin="round"/>
<path d="M1788.53 388.588C1788.53 388.588 1803.92 328.354 1838.16 336.712C1872.4 345.07 1850.5 540.7 1777.93 491.417C1777.93 491.417 1777.93 589.117 1716.31 651.599C1654.69 714.081 1586.51 732.756 1536.99 732.756C1487.48 732.756 1412.66 582.892 1400.21 506.462C1387.76 430.031 1391.91 253.249 1409.67 231.346C1427.42 209.443 1646.39 235.438 1695.04 214.918C1743.69 194.399 1688.93 302.531 1714.98 328.527C1741.04 354.523 1760.17 334.291 1754.7 438.043L1776.54 417.523L1788.53 388.588Z" fill="#858585" stroke="#263238" stroke-width="3" stroke-linecap="round" stroke-linejoin="round"/>
<path d="M1587.08 438.101C1587.08 447.842 1593.25 455.739 1600.86 455.739C1608.47 455.739 1614.63 447.842 1614.63 438.101C1614.63 428.36 1608.47 420.463 1600.86 420.463C1593.25 420.463 1587.08 428.36 1587.08 438.101Z" fill="#263238"/>
<path d="M1443.91 438.101C1443.91 447.842 1450.07 455.739 1457.68 455.739C1465.29 455.739 1471.46 447.842 1471.46 438.101C1471.46 428.36 1465.29 420.463 1457.68 420.463C1450.07 420.463 1443.91 428.36 1443.91 438.101Z" fill="#263238"/>
<path d="M1675.73 374.639C1675.73 374.639 1634.64 331.755 1571.98 374.639" stroke="#263238" stroke-width="3" stroke-linecap="round" stroke-linejoin="round"/>
<path d="M1483.16 379.25C1483.16 379.25 1432.03 325.472 1410.13 365.128" stroke="#263238" stroke-width="3" stroke-linecap="round" stroke-linejoin="round"/>
<path d="M1647.37 582.143C1647.37 582.143 1524.6 623.125 1472.21 587.907C1472.38 588.195 1538.32 702.725 1647.37 582.143Z" fill="white" stroke="#263238" stroke-width="3" stroke-linecap="round" stroke-linejoin="round"/>
<path d="M1578.96 496.028C1578.96 496.028 1598.84 514.127 1586.28 529.69C1583.43 532.955 1579.69 535.305 1575.52 536.444C1571.34 537.582 1566.92 537.459 1562.82 536.088C1559.15 534.526 1555.1 534.049 1551.17 534.713C1547.24 535.377 1543.58 537.155 1540.62 539.835C1529.67 551.709 1501.43 549 1492.26 534.071C1488.05 532.55 1483.65 531.638 1479.18 531.362C1476.23 531.392 1473.35 530.389 1471.06 528.526C1468.76 526.663 1467.19 524.058 1466.61 521.159C1465.4 513.551 1467.88 503.867 1482.93 496.259" stroke="#263238" stroke-width="3" stroke-linecap="round" stroke-linejoin="round"/>
<path d="M1503.21 408.589C1509.5 430.776 1511.72 453.915 1509.79 476.892" stroke="#263238" stroke-width="3" stroke-linecap="round" stroke-linejoin="round"/>
<path d="M1621.9 580.184C1621.9 580.184 1568.93 567.676 1537.17 582.835C1535.37 583.769 1533.36 584.213 1531.33 584.122C1529.31 584.031 1527.35 583.408 1525.64 582.316C1519.01 577.936 1505.46 572.402 1483.27 577.302" stroke="#263238" stroke-width="3" stroke-linecap="round" stroke-linejoin="round"/>
<path d="M1836.37 738.117C1812.17 759.616 1727.78 805.555 1614.46 829.13L1665.7 837.373L1730.66 924.985C1730.66 924.985 1864.62 852.359 1894.88 752.469L1864.85 735.753C1860.44 733.144 1855.34 731.97 1850.24 732.393C1845.13 732.817 1840.29 734.817 1836.37 738.117Z" fill="#8A5FE6" stroke="#263238" stroke-width="3" stroke-linecap="round" stroke-linejoin="round"/>
<path d="M1456.35 732.353C1476.59 758.118 1506.04 806.593 1617.4 829.13L1567.31 837.373L1509.15 924.986C1509.15 924.986 1411.16 859.276 1402.17 741.517L1427.3 726.358C1432.05 723.66 1437.61 722.781 1442.96 723.884C1448.3 724.987 1453.06 727.997 1456.35 732.353Z" fill="#8A5FE6" stroke="#263238" stroke-width="3" stroke-linecap="round" stroke-linejoin="round"/>
<path d="M1630.08 447.669C1620.88 451.713 1610.94 453.801 1600.89 453.801C1590.83 453.801 1580.89 451.713 1571.69 447.669" stroke="#263238" stroke-width="3" stroke-linecap="round" stroke-linejoin="round"/>
<path d="M1486.9 447.669C1477.7 451.713 1467.76 453.801 1457.71 453.801C1447.66 453.801 1437.72 451.713 1428.52 447.669" stroke="#263238" stroke-width="3" stroke-linecap="round" stroke-linejoin="round"/>
<path d="M2168.56 902.794C2168.56 902.794 2316.52 956.514 2300.72 1321.09C2300.63 1322.38 2300.16 1323.62 2299.37 1324.65C2298.58 1325.69 2297.5 1326.46 2296.27 1326.88C2295.05 1327.31 2293.72 1327.36 2292.46 1327.04C2291.2 1326.71 2290.07 1326.03 2289.2 1325.06C2267.06 1297.22 2205.96 1247.65 2064.11 1278.95C2062.83 1279.22 2061.5 1279.19 2060.24 1278.85C2058.97 1278.51 2057.81 1277.87 2056.84 1277C2055.86 1276.12 2055.11 1275.02 2054.64 1273.8C2054.17 1272.58 2054 1271.26 2054.14 1269.96C2059.79 1216.01 2089.13 985.277 2168.56 902.794Z" fill="#8A5FE6" stroke="#263238" stroke-width="3" stroke-linecap="round" stroke-linejoin="round"/>
<path d="M2077.02 1229.56L2068.32 1231.63" stroke="#263238" stroke-width="3" stroke-linecap="round" stroke-linejoin="round"/>
<path d="M2145.61 1221.83C2125.79 1221.74 2106.02 1223.67 2086.59 1227.6" stroke="#263238" stroke-width="3" stroke-linecap="round" stroke-linejoin="round"/>
<path d="M2259.8 1253.19C2228.88 1234.41 2193.74 1223.71 2157.6 1222.06" stroke="#263238" stroke-width="3" stroke-linecap="round" stroke-linejoin="round"/>
<path d="M2288.62 1275.49C2283.1 1270.22 2277.23 1265.33 2271.04 1260.85" stroke="#263238" stroke-width="3" stroke-linecap="round" stroke-linejoin="round"/>
<path d="M1355.02 1215.15C1354.14 1216.29 1352.99 1217.2 1351.67 1217.81C1350.36 1218.41 1348.92 1218.68 1347.47 1218.6H1214.09C1210.28 1218.31 1206.64 1216.94 1203.58 1214.66C1200.52 1212.37 1198.17 1209.26 1196.8 1205.69L1091.95 912.593C1091.33 911.128 1091.06 909.54 1091.15 907.95C1091.24 906.361 1091.69 904.814 1092.47 903.429L1102.96 891.901C1103.84 890.767 1104.98 889.865 1106.29 889.273C1107.6 888.68 1109.03 888.415 1110.46 888.5H1243.84C1247.65 888.794 1251.29 890.163 1254.35 892.449C1257.41 894.735 1259.76 897.843 1261.13 901.411L1365.69 1194.51C1366.31 1195.98 1366.59 1197.56 1366.5 1199.15C1366.41 1200.74 1365.95 1202.29 1365.17 1203.68L1355.02 1215.15Z" fill="white" stroke="#263238" stroke-width="3" stroke-linecap="round" stroke-linejoin="round"/>
<path d="M1214.09 1218.6H1347.47C1349.04 1218.71 1350.6 1218.39 1352 1217.69C1353.4 1216.99 1354.59 1215.92 1355.44 1214.6C1356.29 1213.28 1356.76 1211.76 1356.82 1210.19C1356.88 1208.63 1356.52 1207.07 1355.77 1205.69L1251.21 912.593C1249.85 909.024 1247.5 905.916 1244.44 903.631C1241.38 901.345 1237.73 899.976 1233.92 899.682H1100.37C1098.81 899.583 1097.25 899.902 1095.85 900.607C1094.45 901.312 1093.26 902.376 1092.41 903.691C1091.56 905.005 1091.08 906.523 1091 908.088C1090.93 909.652 1091.28 911.207 1092.01 912.593L1196.57 1205.69C1197.95 1209.29 1200.34 1212.43 1203.44 1214.71C1206.55 1217 1210.24 1218.35 1214.09 1218.6Z" fill="#263238" stroke="#263238" stroke-width="3" stroke-linecap="round" stroke-linejoin="round"/>
<path d="M1215.54 968.101H1247.18C1248.75 968.207 1250.31 967.892 1251.71 967.188C1253.11 966.483 1254.3 965.416 1255.15 964.097C1255.99 962.778 1256.47 961.256 1256.53 959.689C1256.59 958.122 1256.23 956.568 1255.48 955.189L1243.95 923.545C1242.59 919.976 1240.24 916.868 1237.18 914.583C1234.12 912.297 1230.47 910.927 1226.66 910.634H1195.02C1193.45 910.527 1191.89 910.842 1190.49 911.546C1189.09 912.251 1187.9 913.318 1187.05 914.637C1186.2 915.956 1185.73 917.478 1185.67 919.045C1185.61 920.612 1185.97 922.166 1186.72 923.545L1197.96 955.189C1199.36 958.788 1201.76 961.913 1204.87 964.2C1207.98 966.486 1211.68 967.839 1215.54 968.101Z" fill="#858585" stroke="#263238" stroke-width="3" stroke-linecap="round" stroke-linejoin="round"/>
<path d="M1195.13 926.023C1195.92 928.131 1197.3 929.964 1199.11 931.295C1200.93 932.627 1203.09 933.399 1205.33 933.516C1206.24 933.568 1207.14 933.379 1207.95 932.968C1208.76 932.558 1209.44 931.94 1209.94 931.179C1210.43 930.417 1210.71 929.539 1210.75 928.633C1210.79 927.728 1210.6 926.827 1210.18 926.023C1209.36 923.928 1207.97 922.107 1206.17 920.77C1204.36 919.433 1202.21 918.637 1199.97 918.472C1199.06 918.414 1198.15 918.602 1197.33 919.015C1196.52 919.428 1195.83 920.053 1195.33 920.823C1194.84 921.593 1194.56 922.482 1194.52 923.396C1194.49 924.31 1194.7 925.217 1195.13 926.023Z" fill="black"/>
<path d="M1227.7 939.337C1228.51 941.432 1229.9 943.254 1231.71 944.591C1233.51 945.927 1235.66 946.724 1237.9 946.888C1238.81 946.946 1239.73 946.759 1240.54 946.345C1241.36 945.932 1242.05 945.308 1242.54 944.538C1243.04 943.767 1243.32 942.879 1243.35 941.965C1243.39 941.05 1243.18 940.143 1242.74 939.337C1241.96 937.229 1240.57 935.397 1238.76 934.065C1236.95 932.734 1234.79 931.962 1232.54 931.844C1231.63 931.793 1230.73 931.982 1229.92 932.392C1229.12 932.803 1228.43 933.42 1227.94 934.182C1227.45 934.943 1227.16 935.822 1227.12 936.727C1227.08 937.633 1227.28 938.533 1227.7 939.337Z" fill="black"/>
<path d="M1204.64 952.711C1205.42 954.819 1206.81 956.651 1208.62 957.983C1210.43 959.314 1212.6 960.086 1214.84 960.204C1215.75 960.256 1216.65 960.066 1217.46 959.656C1218.27 959.245 1218.95 958.628 1219.44 957.866C1219.94 957.105 1220.22 956.226 1220.26 955.321C1220.3 954.415 1220.1 953.514 1219.68 952.711C1218.87 950.616 1217.48 948.794 1215.68 947.458C1213.87 946.121 1211.72 945.324 1209.48 945.16C1208.57 945.102 1207.66 945.289 1206.84 945.703C1206.02 946.116 1205.33 946.74 1204.84 947.51C1204.34 948.281 1204.07 949.169 1204.03 950.083C1204 950.998 1204.21 951.905 1204.64 952.711Z" fill="black"/>
<path d="M1096.34 1250.13C1096.34 1250.13 964.282 1495.85 968.317 1593.26C972.352 1690.67 1033.57 1723.3 1033.57 1723.3C1033.57 1723.3 1198.65 1715.11 1201.36 1519.31L1223.66 1329.1C1223.66 1329.1 1281.3 1309.5 1304.36 1269.33C1304.36 1269.33 1362 1249.73 1380.1 1216.87C1398.2 1184.02 1408.92 1141.54 1390.76 1134.74C1372.6 1127.94 1359.92 1187.77 1344.13 1199.06C1333.58 1206.61 1316.69 1216.36 1306.72 1222.12C1305.65 1222.66 1304.48 1222.98 1303.28 1223.05C1302.08 1223.12 1300.88 1222.94 1299.76 1222.52C1298.63 1222.11 1297.6 1221.46 1296.74 1220.63C1295.87 1219.79 1295.19 1218.79 1294.73 1217.68C1293.96 1216.05 1293.77 1214.2 1294.2 1212.45C1294.63 1210.69 1295.65 1209.14 1297.1 1208.06C1310.72 1198.3 1322.89 1186.66 1333.24 1173.47C1350.53 1150.42 1399.46 1083.09 1375.14 1068.05C1350.82 1053 1310.99 1126.38 1295.19 1138.54C1285.57 1146.15 1272.14 1154.85 1263.66 1160.39C1260.96 1161.98 1257.81 1162.65 1254.69 1162.3C1251.57 1161.94 1248.65 1160.59 1246.37 1158.43L1245.39 1157.56C1242.97 1155.48 1241.3 1152.66 1240.63 1149.54C1239.96 1146.42 1240.34 1143.16 1241.7 1140.27C1246.16 1130.63 1251.24 1121.29 1256.92 1112.32C1267.41 1098.42 1281.42 1085.05 1303.03 1060.09C1325.57 1034.27 1345.57 1016 1330.35 1004.13C1300.44 981.069 1223.03 1068.51 1212.83 1079.46C1206.32 1087.45 1200.93 1096.3 1196.8 1105.74C1196.29 1106.75 1195.59 1107.64 1194.72 1108.36C1193.86 1109.09 1192.86 1109.63 1191.79 1109.96C1190.71 1110.29 1189.58 1110.39 1188.46 1110.27C1187.34 1110.15 1186.26 1109.81 1185.27 1109.26C1183.89 1108.52 1182.7 1107.45 1181.83 1106.14C1180.95 1104.83 1180.42 1103.33 1180.26 1101.77C1179.34 1090.87 1177.55 1065.57 1179.91 1056.17C1183.31 1042.57 1193 1033.12 1207 1007.99C1219.34 986.141 1233.63 963.085 1223.37 953.517C1201.41 932.94 1157.84 995.94 1157.84 995.94L1126.54 1052.31C1126.54 1052.31 1139.57 1023.49 1123.54 1009.83C1107.52 996.171 1108.44 1027.64 1094.72 1044.07C1081 1060.5 1094.15 1094.74 1090.4 1119.35C1088.13 1133.84 1086.85 1148.48 1086.59 1163.15L1096.34 1250.13Z" fill="#858585"/>
<mask id="mask5_20_720" style="mask-type:luminance" maskUnits="userSpaceOnUse" x="968" y="949" width="433" height="775">
<path d="M1096.34 1250.13C1096.34 1250.13 964.282 1495.85 968.317 1593.26C972.352 1690.67 1033.57 1723.3 1033.57 1723.3C1033.57 1723.3 1198.65 1715.11 1201.36 1519.31L1223.66 1329.1C1223.66 1329.1 1281.3 1309.5 1304.36 1269.33C1304.36 1269.33 1362 1249.73 1380.1 1216.87C1398.2 1184.02 1408.92 1141.54 1390.76 1134.74C1372.6 1127.94 1359.92 1187.77 1344.13 1199.06C1333.58 1206.61 1316.69 1216.36 1306.72 1222.12C1305.65 1222.66 1304.48 1222.98 1303.28 1223.05C1302.08 1223.12 1300.88 1222.94 1299.76 1222.52C1298.63 1222.11 1297.6 1221.46 1296.74 1220.63C1295.87 1219.79 1295.19 1218.79 1294.73 1217.68C1293.96 1216.05 1293.77 1214.2 1294.2 1212.45C1294.63 1210.69 1295.65 1209.14 1297.1 1208.06C1310.72 1198.3 1322.89 1186.66 1333.24 1173.47C1350.53 1150.42 1399.46 1083.09 1375.14 1068.05C1350.82 1053 1310.99 1126.38 1295.19 1138.54C1285.57 1146.15 1272.14 1154.85 1263.66 1160.39C1260.96 1161.98 1257.81 1162.65 1254.69 1162.3C1251.57 1161.94 1248.65 1160.59 1246.37 1158.43L1245.39 1157.56C1242.97 1155.48 1241.3 1152.66 1240.63 1149.54C1239.96 1146.42 1240.34 1143.16 1241.7 1140.27C1246.16 1130.63 1251.24 1121.29 1256.92 1112.32C1267.41 1098.42 1281.42 1085.05 1303.03 1060.09C1325.57 1034.27 1345.57 1016 1330.35 1004.13C1300.44 981.069 1223.03 1068.51 1212.83 1079.46C1206.32 1087.45 1200.93 1096.3 1196.8 1105.74C1196.29 1106.75 1195.59 1107.64 1194.72 1108.36C1193.86 1109.09 1192.86 1109.63 1191.79 1109.96C1190.71 1110.29 1189.58 1110.39 1188.46 1110.27C1187.34 1110.15 1186.26 1109.81 1185.27 1109.26C1183.89 1108.52 1182.7 1107.45 1181.83 1106.14C1180.95 1104.83 1180.42 1103.33 1180.26 1101.77C1179.34 1090.87 1177.55 1065.57 1179.91 1056.17C1183.31 1042.57 1193 1033.12 1207 1007.99C1219.34 986.141 1233.63 963.085 1223.37 953.517C1201.41 932.94 1157.84 995.94 1157.84 995.94L1126.54 1052.31C1126.54 1052.31 1139.57 1023.49 1123.54 1009.83C1107.52 996.171 1108.44 1027.64 1094.72 1044.07C1081 1060.5 1094.15 1094.74 1090.4 1119.35C1088.13 1133.84 1086.85 1148.48 1086.59 1163.15L1096.34 1250.13Z" fill="white"/>
</mask>
<g mask="url(#mask5_20_720)">
<path opacity="0.2" d="M1277.9 1259.59C1259.66 1245.83 1243.24 1229.81 1229.02 1211.92C1212.65 1190.53 1201.7 1161.83 1181.18 1161.83C1160.66 1161.83 1143.66 1134.16 1121.35 1150.3C1099.05 1166.44 1127.12 1239.64 1121.35 1269.27C1115.59 1298.9 1151.44 1794.48 983.766 1660.93C986.467 1670.96 990.336 1680.63 995.294 1689.75C995.484 1690.09 995.696 1690.42 995.928 1690.73C997.253 1692.4 998.579 1694.08 999.559 1695.52L1000.25 1697.25C1009.25 1708.99 1021.18 1718.17 1034.83 1723.88C1037.2 1723.88 1039.73 1723.59 1042.39 1723.59L1045.04 1722.43L1051.61 1720.07C1056 1716.71 1061.22 1714.6 1066.71 1713.96L1071.84 1713.15C1079.04 1710.9 1086.4 1709.16 1093.86 1707.97C1095.82 1707.33 1097.78 1706.58 1099.62 1705.83C1124.15 1691.29 1146.3 1673.06 1165.27 1651.77C1169.55 1639.26 1175.25 1627.29 1182.28 1616.09C1188.04 1606.29 1193.81 1597.53 1193.34 1585.94C1192.83 1579.25 1194.89 1572.61 1199.11 1567.38C1201.59 1533.61 1202.51 1500.75 1207.99 1467.03C1214.04 1430.2 1220.9 1393.89 1220.78 1356.36C1220.78 1354.78 1220.89 1353.2 1221.13 1351.64C1220.62 1347.79 1220.85 1343.87 1221.82 1340.11C1224 1332.95 1228.69 1326.81 1235.02 1322.82C1240.21 1319.07 1246.2 1316.53 1251.33 1312.79C1253.96 1311 1256.95 1309.82 1260.09 1309.33C1269.43 1298.78 1291.79 1271.06 1277.9 1259.59Z" fill="black"/>
<path opacity="0.2" d="M1324.59 1157.85C1320.33 1154.45 1316.46 1150.58 1313.06 1146.32C1312.34 1145.37 1311.41 1144.59 1310.34 1144.06C1309.27 1143.53 1308.09 1143.25 1306.9 1143.25C1305.7 1143.25 1304.52 1143.53 1303.45 1144.06C1302.38 1144.59 1301.45 1145.37 1300.73 1146.32C1293.52 1156.35 1281.13 1171.28 1267.64 1178.26C1267.64 1178.26 1279.98 1205.63 1292.31 1200.16C1301.13 1196.24 1317.33 1178.6 1325.8 1168.92C1326.48 1168.12 1326.98 1167.2 1327.29 1166.2C1327.59 1165.21 1327.69 1164.16 1327.58 1163.12C1327.47 1162.09 1327.14 1161.09 1326.63 1160.18C1326.12 1159.27 1325.42 1158.48 1324.59 1157.85Z" fill="black"/>
<path opacity="0.2" d="M1244.76 1102.23C1236.82 1099.48 1229.64 1094.88 1223.84 1088.8C1223.38 1088.27 1222.79 1087.86 1222.14 1087.6C1221.48 1087.34 1220.78 1087.25 1220.08 1087.33C1219.38 1087.41 1218.71 1087.66 1218.13 1088.06C1217.55 1088.45 1217.08 1088.98 1216.75 1089.61L1202.62 1116.64C1202.62 1116.64 1212.71 1132.43 1227.24 1136.47C1232.9 1126.88 1239.3 1117.75 1246.37 1109.15C1246.84 1108.63 1247.18 1108 1247.35 1107.33C1247.53 1106.65 1247.53 1105.94 1247.38 1105.27C1247.22 1104.59 1246.9 1103.95 1246.44 1103.43C1245.99 1102.9 1245.41 1102.49 1244.76 1102.23Z" fill="black"/>
<path opacity="0.2" d="M1173.63 1049.55C1173.63 1049.55 1156.92 1071.45 1140.78 1065.28V1104.3L1173.63 1102.29C1173.63 1102.29 1167.52 1082.4 1173.63 1049.55Z" fill="black"/>
<path opacity="0.2" d="M1363.96 1226.85C1363.96 1226.85 1336.35 1238.72 1315.83 1239.47C1313.73 1239.48 1311.7 1240.19 1310.05 1241.49C1308.4 1242.78 1307.23 1244.58 1306.72 1246.62L1303.61 1259.59C1303.61 1259.59 1329.72 1256.24 1363.96 1226.85Z" fill="black"/>
<path opacity="0.2" d="M1129.42 1042.97C1129.42 1042.97 1119.57 1063.96 1107.92 1072.14C1096.28 1080.33 1109.31 1086.09 1107.92 1105.11C1107.92 1105.11 1125.62 1057.62 1129.42 1042.97Z" fill="black"/>
</g>
<path d="M1096.34 1250.13C1096.34 1250.13 964.282 1495.85 968.317 1593.26C972.352 1690.67 1033.57 1723.3 1033.57 1723.3C1033.57 1723.3 1198.65 1715.11 1201.36 1519.31L1223.66 1329.1C1223.66 1329.1 1281.3 1309.5 1304.36 1269.33C1304.36 1269.33 1362 1249.73 1380.1 1216.87C1398.2 1184.02 1408.92 1141.54 1390.76 1134.74C1372.6 1127.94 1359.92 1187.77 1344.13 1199.06C1333.58 1206.61 1316.69 1216.36 1306.72 1222.12C1305.65 1222.66 1304.48 1222.98 1303.28 1223.05C1302.08 1223.12 1300.88 1222.94 1299.76 1222.52C1298.63 1222.11 1297.6 1221.46 1296.74 1220.63C1295.87 1219.79 1295.19 1218.79 1294.73 1217.68C1293.96 1216.05 1293.77 1214.2 1294.2 1212.45C1294.63 1210.69 1295.65 1209.14 1297.1 1208.06C1310.72 1198.3 1322.89 1186.66 1333.24 1173.47C1350.53 1150.42 1399.46 1083.09 1375.14 1068.05C1350.82 1053 1310.99 1126.38 1295.19 1138.54C1285.57 1146.15 1272.14 1154.85 1263.66 1160.39C1260.96 1161.98 1257.81 1162.65 1254.69 1162.3C1251.57 1161.94 1248.65 1160.59 1246.37 1158.43L1245.39 1157.56C1242.97 1155.48 1241.3 1152.66 1240.63 1149.54C1239.96 1146.42 1240.34 1143.16 1241.7 1140.27C1246.16 1130.63 1251.24 1121.29 1256.92 1112.32C1267.41 1098.42 1281.42 1085.05 1303.03 1060.09C1325.57 1034.27 1345.57 1016 1330.35 1004.13C1300.44 981.069 1223.03 1068.51 1212.83 1079.46C1206.32 1087.45 1200.93 1096.3 1196.8 1105.74C1196.29 1106.75 1195.59 1107.64 1194.72 1108.36C1193.86 1109.09 1192.86 1109.63 1191.79 1109.96C1190.71 1110.29 1189.58 1110.39 1188.46 1110.27C1187.34 1110.15 1186.26 1109.81 1185.27 1109.26C1183.89 1108.52 1182.7 1107.45 1181.83 1106.14C1180.95 1104.83 1180.42 1103.33 1180.26 1101.77C1179.34 1090.87 1177.55 1065.57 1179.91 1056.17C1183.31 1042.57 1193 1033.12 1207 1007.99C1219.34 986.141 1233.63 963.085 1223.37 953.517C1201.41 932.94 1157.84 995.94 1157.84 995.94L1126.54 1052.31C1126.54 1052.31 1139.57 1023.49 1123.54 1009.83C1107.52 996.171 1108.44 1027.64 1094.72 1044.07C1081 1060.5 1094.15 1094.74 1090.4 1119.35C1088.13 1133.84 1086.85 1148.48 1086.59 1163.15L1096.34 1250.13Z" stroke="#263238" stroke-width="3" stroke-linecap="round" stroke-linejoin="round"/>
<path d="M1124.69 1059.11C1124.69 1059.11 1108.73 1113.87 1099.33 1116.75" stroke="#263238" stroke-width="3" stroke-linecap="round" stroke-linejoin="round"/>
<path d="M1924.97 1883.19C1932.52 1884.17 1940.07 1885.1 1948.02 1885.96" stroke="#263238" stroke-width="3" stroke-linecap="round" stroke-linejoin="round"/>
<path d="M1591.75 1821.06C1667.26 1841.81 1766.34 1862.27 1896.2 1879.5" stroke="#263238" stroke-width="3" stroke-linecap="round" stroke-linejoin="round"/>
<path d="M1379.7 1730.1C1406.56 1751.14 1460.05 1781.98 1564.14 1813.22" stroke="#263238" stroke-width="3" stroke-linecap="round" stroke-linejoin="round"/>
<path d="M1354.16 1703.47C1357.33 1708.99 1361.36 1713.97 1366.09 1718.23" stroke="#263238" stroke-width="3" stroke-linecap="round" stroke-linejoin="round"/>
<path d="M1644.09 856.625L1634.29 1136.99C1627.63 1137.03 1621.03 1135.72 1614.89 1133.14C1608.75 1130.56 1603.2 1126.76 1598.58 1121.96C1593.95 1117.17 1590.35 1111.49 1587.99 1105.26C1585.63 1099.04 1584.55 1092.4 1584.83 1085.74L1592.84 856.625" stroke="#263238" stroke-width="3" stroke-linecap="round" stroke-linejoin="round"/>
<path d="M1634.69 882.39C1634.69 885.81 1633.68 889.153 1631.78 891.997C1629.88 894.84 1627.18 897.057 1624.02 898.365C1620.86 899.674 1617.38 900.017 1614.03 899.349C1610.67 898.682 1607.59 897.035 1605.17 894.617C1602.76 892.199 1601.11 889.117 1600.44 885.763C1599.77 882.409 1600.12 878.932 1601.43 875.772C1602.73 872.613 1604.95 869.912 1607.79 868.012C1610.64 866.112 1613.98 865.098 1617.4 865.098C1621.99 865.098 1626.39 866.919 1629.63 870.162C1632.87 873.405 1634.69 877.804 1634.69 882.39Z" fill="#8A5FE6" stroke="#263238" stroke-width="3" stroke-linecap="round" stroke-linejoin="round"/>
<path d="M1609.91 1088.22C1619.46 1088.22 1627.2 1080.48 1627.2 1070.93C1627.2 1061.38 1619.46 1053.64 1609.91 1053.64C1600.36 1053.64 1592.62 1061.38 1592.62 1070.93C1592.62 1080.48 1600.36 1088.22 1609.91 1088.22Z" fill="#8A5FE6" stroke="#263238" stroke-width="3" stroke-linecap="round" stroke-linejoin="round"/>
<path d="M1640.05 572.574C1645 579.638 1651.59 585.394 1659.25 589.347Z" fill="#858585"/>
<path d="M1640.05 572.574C1645 579.638 1651.59 585.394 1659.25 589.347" stroke="#263238" stroke-width="3" stroke-linecap="round" stroke-linejoin="round"/>
<path d="M1490.59 610.79C1490.59 610.79 1498.78 620.819 1520.39 621.569" stroke="#263238" stroke-width="3" stroke-linecap="round" stroke-linejoin="round"/>
<path d="M1647.37 582.143C1633.73 592.936 1618.94 602.195 1603.28 609.752Z" fill="#858585"/>
<path d="M1647.37 582.143C1633.73 592.936 1618.94 602.195 1603.28 609.752" stroke="#263238" stroke-width="3" stroke-linecap="round" stroke-linejoin="round"/>
<path d="M1479.12 612.231C1479.12 612.231 1498.14 675.635 1558.26 668.142C1618.38 660.649 1640.05 602.49 1640.05 602.49" stroke="#263238" stroke-width="3" stroke-linecap="round" stroke-linejoin="round"/>
<path d="M1113.37 413.53H933.188C931.124 413.53 929.145 412.71 927.686 411.251C926.226 409.791 925.406 407.812 925.406 405.748C925.399 404.724 925.595 403.709 925.983 402.762C926.372 401.814 926.944 400.953 927.669 400.229C928.393 399.505 929.254 398.932 930.201 398.544C931.149 398.155 932.164 397.959 933.188 397.967H1113.54C1115.61 397.967 1117.59 398.787 1119.05 400.246C1120.51 401.705 1121.32 403.685 1121.32 405.748C1121.32 406.783 1121.11 407.805 1120.7 408.757C1120.3 409.709 1119.71 410.572 1118.97 411.295C1118.23 412.019 1117.35 412.588 1116.39 412.972C1115.43 413.355 1114.4 413.545 1113.37 413.53Z" fill="#263238" stroke="#263238" stroke-width="5" stroke-linecap="round" stroke-linejoin="round"/>
<path d="M1108.18 452.322H933.188C931.124 452.322 929.145 451.502 927.686 450.043C926.226 448.583 925.406 446.604 925.406 444.54C925.399 443.516 925.595 442.501 925.983 441.554C926.372 440.606 926.944 439.745 927.669 439.021C928.393 438.297 929.254 437.724 930.201 437.336C931.149 436.947 932.164 436.751 933.188 436.759H1108.36C1110.42 436.759 1112.4 437.579 1113.86 439.038C1115.32 440.497 1116.14 442.477 1116.14 444.54C1116.13 445.575 1115.92 446.597 1115.51 447.549C1115.11 448.501 1114.52 449.364 1113.78 450.087C1113.04 450.811 1112.17 451.38 1111.2 451.764C1110.24 452.147 1109.22 452.337 1108.18 452.322Z" fill="#263238" stroke="#263238" stroke-width="5" stroke-linecap="round" stroke-linejoin="round"/>
<path d="M1056.31 475.551H933.016C928.718 475.551 925.234 479.035 925.234 483.332C925.234 487.63 928.718 491.114 933.016 491.114H1056.31C1060.61 491.114 1064.09 487.63 1064.09 483.332C1064.09 479.035 1060.61 475.551 1056.31 475.551Z" fill="#263238" stroke="#263238" stroke-width="5" stroke-linecap="round" stroke-linejoin="round"/>
<path d="M1135.79 528.407C1142.57 528.407 1149.06 525.716 1153.85 520.928C1158.64 516.139 1161.33 509.644 1161.33 502.872V404.02" stroke="#263238" stroke-width="5" stroke-linecap="round" stroke-linejoin="round"/>
<path d="M1121.09 528.349H1022.82L954.572 596.594V528.349H942.18" stroke="#263238" stroke-width="5" stroke-linecap="round" stroke-linejoin="round"/>
<path d="M885 404.02V502.814C885 509.587 887.69 516.082 892.479 520.87C897.268 525.659 903.762 528.349 910.534 528.349H925.233" stroke="#263238" stroke-width="5" stroke-linecap="round" stroke-linejoin="round"/>
<path d="M1161.33 387.535C1161.33 380.762 1158.64 374.268 1153.85 369.479C1149.06 364.69 1142.56 362 1135.79 362H910.534C903.762 362 897.268 364.69 892.479 369.479C887.69 374.268 885 380.762 885 387.535" stroke="#263238" stroke-width="5" stroke-linecap="round" stroke-linejoin="round"/>
<path d="M464.999 832.534C465.014 825.767 467.709 819.281 472.495 814.496C477.28 809.71 483.766 807.015 490.533 807H867.672" stroke="#263238" stroke-width="5" stroke-linecap="round" stroke-linejoin="round"/>
<path d="M755.273 973.349H490.533C483.761 973.349 477.266 970.659 472.477 965.87C467.689 961.081 464.998 954.586 464.998 947.814V849.826" stroke="#263238" stroke-width="5" stroke-linecap="round" stroke-linejoin="round"/>
<path d="M840.637 1008.97V1041.59L772.333 973.349" stroke="#263238" stroke-width="5" stroke-linecap="round" stroke-linejoin="round"/>
<path d="M910.152 947.814C910.152 954.587 907.462 961.081 902.673 965.87C897.885 970.659 891.39 973.349 884.618 973.349H840.639V994.733" stroke="#263238" stroke-width="5" stroke-linecap="round" stroke-linejoin="round"/>
<path d="M884.618 807C891.39 807 897.885 809.69 902.673 814.479C907.462 819.268 910.152 825.762 910.152 832.534V930.177" stroke="#263238" stroke-width="5" stroke-linecap="round" stroke-linejoin="round"/>
<path d="M818.852 920.954L849.92 937.266L843.983 902.682L869.172 878.128L834.415 873.113L818.852 841.584L803.289 873.113L768.59 878.128L793.721 902.682L787.784 937.266L818.852 920.954Z" stroke="#263238" stroke-width="5" stroke-linecap="round" stroke-linejoin="round"/>
<path d="M687.605 920.954L718.673 937.266L712.736 902.682L737.867 878.128L703.11 873.113L687.605 841.584L672.042 873.113L637.285 878.128L662.474 902.682L656.537 937.266L687.605 920.954Z" stroke="#263238" stroke-width="5" stroke-linecap="round" stroke-linejoin="round"/>
<path d="M556.359 920.954L587.427 937.266L581.49 902.682L606.621 878.128L571.864 873.113L556.359 841.584L540.796 873.113L506.039 878.128L531.17 902.682L525.233 937.266L556.359 920.954Z" stroke="#263238" stroke-width="5" stroke-linecap="round" stroke-linejoin="round"/>
</svg>
