<svg width="1844" height="1928" viewBox="0 0 1844 1928" fill="none" xmlns="http://www.w3.org/2000/svg">
<path d="M165.012 151.488C237.158 65.2989 334.656 -1.1115 450.861 0.0140978C649.181 2.4797 756.381 178.02 870.12 313.413C929.08 383.629 996.027 451.38 1083.61 484.397C1214.98 533.87 1361.31 504.98 1489.31 459.045C1546.66 438.462 1614.57 409.518 1679.16 424.312C1875.5 469.228 1855.07 708.821 1822.65 860.562C1778.85 1065.53 1707.67 1283.47 1563.44 1440.73C1218.09 1817.48 596.599 1586.52 285.076 1285.88C262.189 1263.74 240.267 1240.69 219.631 1216.2C166.021 1153.7 120.645 1084.58 84.6123 1010.53C-15.7269 801.763 -29.5557 548.02 57.8123 332.28C84.0476 266.868 120.205 205.888 165.012 151.488Z" fill="#4AF4C4"/>
<path opacity="0.7" d="M210.901 192.009C281.07 108.168 375.897 43.5672 488.917 44.6622C681.803 47.0606 786.066 217.818 896.688 349.522C954.033 417.825 1019.14 483.73 1104.33 515.848C1232.1 563.973 1374.42 535.869 1498.91 491.186C1554.69 471.164 1620.74 443.009 1683.56 457.399C1874.51 501.092 1854.65 734.156 1823.11 881.764C1780.52 1081.15 1711.29 1293.15 1571.01 1446.12C1235.12 1812.61 630.662 1587.94 327.675 1295.49C305.415 1273.96 284.093 1251.54 264.023 1227.71C211.882 1166.91 167.749 1099.68 132.704 1027.65C35.1142 824.566 21.6643 577.738 106.638 367.876C132.155 304.245 167.322 244.927 210.901 192.009Z" fill="white"/>
<path d="M1337.3 680.092L1315.86 796.618L1141.02 902.853L1165.19 947.234C1165.19 947.234 1367.31 885.594 1372.25 871.176C1377.18 856.757 1423.76 704.051 1423.76 704.051L1337.3 680.092Z" fill="#263238"/>
<path d="M1413.89 483.059L1402.21 624.348L1396.04 698.477C1362.33 714.879 1329.36 690.223 1327.33 688.615C1336.49 661.707 1347.16 509.859 1413.89 483.059Z" fill="#999999" stroke="#263238" stroke-width="5" stroke-linecap="round" stroke-linejoin="round"/>
<path d="M1401.99 624.349L1395.83 698.478C1362.11 714.879 1329.15 690.223 1327.11 688.615C1328.56 689.258 1346.3 696.762 1357.83 688.615C1353.79 684.263 1350.2 679.523 1347.11 674.465C1346.41 671.677 1357.83 670.927 1357.83 670.927C1357.83 670.927 1350.32 610.842 1370.31 585.167C1378.14 575.412 1390.36 595.78 1401.99 624.349Z" fill="#263238"/>
<path d="M1534.97 1791.49L1540.33 1807.25C1532.21 1820.66 1523.11 1833.45 1513.11 1845.52C1513.11 1845.52 1507.75 1843.8 1498.96 1851.57C1493.54 1856.97 1490.2 1864.11 1489.52 1871.73C1489.52 1871.73 1448.57 1920.83 1396.63 1921.52C1344.69 1922.22 1360.35 1896.06 1360.35 1896.06L1534.97 1791.49Z" fill="#4AF4C4" stroke="#263238" stroke-width="5" stroke-linecap="round" stroke-linejoin="round"/>
<path d="M1486.14 1666.55C1486.14 1666.55 1416.46 1640.87 1402.85 1692.22C1402.85 1692.22 1415.29 1748.77 1407.83 1779.7C1400.38 1810.62 1362.86 1869.69 1360.56 1880.89C1356 1902.87 1359.43 1904.37 1359.43 1904.37C1359.43 1904.37 1386.72 1920.13 1423.38 1903.24C1460.04 1886.36 1523.5 1813.68 1533.42 1798.72C1543.34 1783.77 1502.33 1724.81 1502.33 1724.81L1486.14 1666.55Z" fill="white"/>
<mask id="mask0_20_722" style="mask-type:luminance" maskUnits="userSpaceOnUse" x="1358" y="1660" width="177" height="252">
<path d="M1486.14 1666.55C1486.14 1666.55 1416.46 1640.87 1402.85 1692.22C1402.85 1692.22 1415.29 1748.77 1407.83 1779.7C1400.38 1810.62 1362.86 1869.69 1360.56 1880.89C1356 1902.87 1359.43 1904.37 1359.43 1904.37C1359.43 1904.37 1386.72 1920.13 1423.38 1903.24C1460.04 1886.36 1523.5 1813.68 1533.42 1798.72C1543.34 1783.77 1502.33 1724.81 1502.33 1724.81L1486.14 1666.55Z" fill="white"/>
</mask>
<g mask="url(#mask0_20_722)">
<path opacity="0.4" d="M1486.14 1666.55C1486.14 1666.55 1416.46 1640.87 1402.85 1692.22C1402.85 1692.22 1415.29 1748.77 1407.83 1779.7C1400.38 1810.62 1362.86 1869.69 1360.56 1880.89C1356 1902.87 1359.43 1904.37 1359.43 1904.37C1359.43 1904.37 1386.72 1920.13 1423.38 1903.24C1460.04 1886.36 1523.5 1813.68 1533.42 1798.72C1543.34 1783.77 1502.33 1724.81 1502.33 1724.81L1486.14 1666.55Z" fill="#4AF4C4"/>
</g>
<path d="M1486.14 1666.55C1486.14 1666.55 1416.46 1640.87 1402.85 1692.22C1402.85 1692.22 1415.29 1748.77 1407.83 1779.7C1400.38 1810.62 1362.86 1869.69 1360.56 1880.89C1356 1902.87 1359.43 1904.37 1359.43 1904.37C1359.43 1904.37 1386.72 1920.13 1423.38 1903.24C1460.04 1886.36 1523.5 1813.68 1533.42 1798.72C1543.34 1783.77 1502.33 1724.81 1502.33 1724.81L1486.14 1666.55Z" stroke="#263238" stroke-width="5" stroke-linecap="round" stroke-linejoin="round"/>
<path d="M1450.5 1739.17C1456.57 1773.77 1450.41 1809.39 1433.08 1839.94" stroke="#263238" stroke-width="5" stroke-linecap="round" stroke-linejoin="round"/>
<path d="M1433.08 1853.45C1430.49 1859.98 1426.46 1865.84 1421.31 1870.61C1416.15 1875.37 1409.99 1878.93 1403.28 1881C1389.23 1884.76 1374.44 1884.76 1360.4 1881L1377.12 1847.12C1394.87 1854.2 1414.2 1856.38 1433.08 1853.45Z" fill="#4AF4C4" stroke="#263238" stroke-width="5" stroke-linecap="round" stroke-linejoin="round"/>
<path d="M1442.94 1832.92C1442.94 1832.92 1406.49 1835.12 1387.46 1827.56" stroke="#263238" stroke-width="5" stroke-linecap="round" stroke-linejoin="round"/>
<path d="M1449.7 1812.82C1449.7 1812.82 1415.61 1818.18 1396.58 1807.46" stroke="#263238" stroke-width="5" stroke-linecap="round" stroke-linejoin="round"/>
<path d="M1455.49 1790.47C1455.49 1790.47 1425.63 1794.81 1406.12 1785.59" stroke="#263238" stroke-width="5" stroke-linecap="round" stroke-linejoin="round"/>
<path d="M1458.81 1765.17C1458.81 1765.17 1425.58 1775.57 1409.87 1765.17" stroke="#263238" stroke-width="5" stroke-linecap="round" stroke-linejoin="round"/>
<path d="M1463.79 1702.67L1469.58 1739.17C1469.58 1739.17 1425.63 1768.12 1396.58 1731.94V1693.83C1396.58 1693.83 1407.51 1719.45 1463.79 1702.67Z" fill="#4AF4C4" stroke="#263238" stroke-width="5" stroke-linecap="round" stroke-linejoin="round"/>
<path d="M1425.63 883.289C1381.09 1024.42 1242.86 1250.77 1256.85 1308.71C1264.51 1340.34 1310.12 1519.52 1345.82 1598.15C1359.38 1628.22 1388.7 1648.32 1388.7 1648.32L1409.87 1693.72C1461.49 1716.18 1479.98 1670.51 1479.98 1670.51L1469.58 1619.06C1497.24 1568.78 1485.66 1568.78 1449.7 1308.18C1445.46 1277.46 1516.7 1182.54 1516.7 1182.54L1553.25 1421.38L1559.2 1617.02L1578.18 1677.48C1578.18 1677.48 1582.89 1734.24 1582.47 1737.67H1667.31L1676.53 1675.28C1676.53 1675.28 1715.93 1638.14 1715.93 1595.26C1715.93 1552.38 1707.46 1333.96 1715.93 1270.33C1724.4 1206.71 1696.1 910.089 1696.1 910.089L1425.63 883.289Z" fill="#263238"/>
<path d="M848.819 757.54L966.739 768.153C969.412 768.393 971.879 769.685 973.599 771.745C975.318 773.805 976.149 776.464 975.909 779.136L968.335 863.288L830.262 850.862L837.835 766.71C838.076 764.037 839.368 761.569 841.428 759.85C843.488 758.13 846.146 757.299 848.819 757.54Z" fill="#4AF4C4"/>
<mask id="mask1_20_722" style="mask-type:luminance" maskUnits="userSpaceOnUse" x="830" y="757" width="146" height="107">
<path d="M848.819 757.54L966.739 768.153C969.412 768.393 971.879 769.685 973.599 771.745C975.318 773.805 976.149 776.464 975.909 779.136L968.335 863.288L830.262 850.862L837.835 766.71C838.076 764.037 839.368 761.569 841.428 759.85C843.488 758.13 846.146 757.299 848.819 757.54Z" fill="white"/>
</mask>
<g mask="url(#mask1_20_722)">
<path opacity="0.3" d="M848.819 757.54L966.739 768.153C969.412 768.393 971.879 769.685 973.599 771.745C975.318 773.805 976.149 776.464 975.909 779.136L968.335 863.288L830.262 850.862L837.835 766.71C838.076 764.037 839.368 761.569 841.428 759.85C843.488 758.13 846.146 757.299 848.819 757.54Z" fill="black" fill-opacity="0.7"/>
<path opacity="0.3" d="M968.593 766.693L934.789 763.789L928.981 831.398L962.785 834.302L968.593 766.693Z" fill="white" fill-opacity="0.7"/>
</g>
<path d="M848.819 757.54L966.739 768.153C969.412 768.393 971.879 769.685 973.599 771.745C975.318 773.805 976.149 776.464 975.909 779.136L968.335 863.288L830.262 850.862L837.835 766.71C838.076 764.037 839.368 761.569 841.428 759.85C843.488 758.13 846.146 757.299 848.819 757.54Z" stroke="#263238" stroke-width="5" stroke-linecap="round" stroke-linejoin="round"/>
<path d="M1052.36 764.989L1169.84 775.082C1172.51 775.311 1174.97 776.588 1176.69 778.633C1178.41 780.677 1179.25 783.322 1179.02 785.985L1171.82 869.828L1034.25 858.01L1041.45 774.167C1041.68 771.504 1042.96 769.041 1045 767.32C1047.05 765.599 1049.69 764.761 1052.36 764.989Z" fill="#4AF4C4"/>
<mask id="mask2_20_722" style="mask-type:luminance" maskUnits="userSpaceOnUse" x="1034" y="764" width="146" height="106">
<path d="M1052.36 764.989L1169.84 775.082C1172.51 775.311 1174.97 776.588 1176.69 778.633C1178.41 780.677 1179.25 783.322 1179.02 785.985L1171.82 869.828L1034.25 858.01L1041.45 774.167C1041.68 771.504 1042.96 769.041 1045 767.32C1047.05 765.599 1049.69 764.761 1052.36 764.989Z" fill="white"/>
</mask>
<g mask="url(#mask2_20_722)">
<path opacity="0.3" d="M1052.36 764.989L1169.84 775.082C1172.51 775.311 1174.97 776.588 1176.69 778.633C1178.41 780.677 1179.25 783.322 1179.02 785.985L1171.82 869.828L1034.25 858.01L1041.45 774.167C1041.68 771.504 1042.96 769.041 1045 767.32C1047.05 765.599 1049.69 764.761 1052.36 764.989Z" fill="black" fill-opacity="0.7"/>
<path opacity="0.3" d="M1169.2 783.96L1148.8 782.207L1143 849.816L1163.4 851.568L1169.2 783.96Z" fill="white" fill-opacity="0.7"/>
</g>
<path d="M1052.36 764.989L1169.84 775.082C1172.51 775.311 1174.97 776.588 1176.69 778.633C1178.41 780.677 1179.25 783.322 1179.02 785.985L1171.82 869.828L1034.25 858.01L1041.45 774.167C1041.68 771.504 1042.96 769.041 1045 767.32C1047.05 765.599 1049.69 764.761 1052.36 764.989Z" stroke="#263238" stroke-width="5" stroke-linecap="round" stroke-linejoin="round"/>
<path d="M1009.68 761.292L1127.17 771.385C1129.83 771.614 1132.29 772.891 1134.01 774.936C1135.74 776.98 1136.57 779.625 1136.34 782.287L1129.14 866.131L991.576 854.313L998.778 770.47C999.007 767.807 1000.28 765.344 1002.33 763.623C1004.37 761.902 1007.02 761.063 1009.68 761.292Z" fill="#4AF4C4" stroke="#263238" stroke-width="5" stroke-linecap="round" stroke-linejoin="round"/>
<path d="M1212.57 778.759L1330.05 788.852C1332.72 789.081 1335.18 790.358 1336.9 792.402C1338.62 794.447 1339.46 797.091 1339.23 799.754L1332.03 883.544L1194.47 871.726L1201.67 787.883C1201.91 785.231 1203.19 782.782 1205.24 781.072C1207.28 779.363 1209.91 778.531 1212.57 778.759Z" fill="#4AF4C4" stroke="#263238" stroke-width="5" stroke-linecap="round" stroke-linejoin="round"/>
<path opacity="0.3" d="M1128.8 780.461L1095 777.557L1089.19 845.165L1123 848.069L1128.8 780.461Z" fill="white" fill-opacity="0.7"/>
<path opacity="0.3" d="M1329.46 797.681L1295.66 794.777L1289.85 862.386L1323.66 865.29L1329.46 797.681Z" fill="white" fill-opacity="0.7"/>
<path d="M1393.47 869.3L1360.29 1254.85L739.121 1201.25L772.3 815.754C772.569 812.564 773.466 809.458 774.939 806.615C776.411 803.772 778.43 801.247 780.88 799.186C783.329 797.124 786.162 795.566 789.215 794.602C792.268 793.637 795.481 793.284 798.671 793.564L1371.23 842.768C1374.44 843.031 1377.56 843.928 1380.42 845.407C1383.28 846.887 1385.82 848.92 1387.89 851.388C1389.96 853.856 1391.52 856.71 1392.48 859.785C1393.43 862.86 1393.77 866.094 1393.47 869.3Z" fill="#4AF4C4"/>
<mask id="mask3_20_722" style="mask-type:luminance" maskUnits="userSpaceOnUse" x="739" y="793" width="655" height="462">
<path d="M1393.47 869.3L1360.29 1254.85L739.121 1201.25L772.3 815.754C772.569 812.564 773.466 809.458 774.939 806.615C776.411 803.772 778.43 801.247 780.88 799.186C783.329 797.124 786.162 795.566 789.215 794.602C792.268 793.637 795.481 793.284 798.671 793.564L1371.23 842.768C1374.44 843.031 1377.56 843.928 1380.42 845.407C1383.28 846.887 1385.82 848.92 1387.89 851.388C1389.96 853.856 1391.52 856.71 1392.48 859.785C1393.43 862.86 1393.77 866.094 1393.47 869.3Z" fill="white"/>
</mask>
<g mask="url(#mask3_20_722)">
<path opacity="0.3" d="M1393.47 869.3L1360.29 1254.85L739.121 1201.25L772.3 815.754C772.569 812.564 773.466 809.458 774.939 806.615C776.411 803.772 778.43 801.247 780.88 799.186C783.329 797.124 786.162 795.566 789.215 794.602C792.268 793.637 795.481 793.284 798.671 793.564L1371.23 842.768C1374.44 843.031 1377.56 843.928 1380.42 845.407C1383.28 846.887 1385.82 848.92 1387.89 851.388C1389.96 853.856 1391.52 856.71 1392.48 859.785C1393.43 862.86 1393.77 866.094 1393.47 869.3Z" fill="black" fill-opacity="0.7"/>
</g>
<path d="M1393.47 869.3L1360.29 1254.85L739.121 1201.25L772.3 815.754C772.569 812.564 773.466 809.458 774.939 806.615C776.411 803.772 778.43 801.247 780.88 799.186C783.329 797.124 786.162 795.566 789.215 794.602C792.268 793.637 795.481 793.284 798.671 793.564L1371.23 842.768C1374.44 843.031 1377.56 843.928 1380.42 845.407C1383.28 846.887 1385.82 848.92 1387.89 851.388C1389.96 853.856 1391.52 856.71 1392.48 859.785C1393.43 862.86 1393.77 866.094 1393.47 869.3Z" stroke="#263238" stroke-width="5" stroke-linecap="round" stroke-linejoin="round"/>
<path d="M1393.47 869.3L1360.29 1254.84L899.332 1215.18L932.564 829.689C932.834 826.499 933.731 823.393 935.203 820.55C936.675 817.707 938.694 815.183 941.144 813.121C943.594 811.06 946.427 809.502 949.479 808.537C952.532 807.572 955.746 807.22 958.935 807.499L1371.28 842.929C1374.47 843.199 1377.58 844.095 1380.42 845.568C1383.26 847.04 1385.79 849.059 1387.85 851.509C1389.91 853.959 1391.47 856.791 1392.43 859.844C1393.4 862.897 1393.75 866.11 1393.47 869.3Z" fill="#4AF4C4" stroke="#263238" stroke-width="5" stroke-linecap="round" stroke-linejoin="round"/>
<path opacity="0.3" d="M1361.1 880.341L967.083 846.465C964.457 846.233 962.026 844.98 960.312 842.976C958.599 840.972 957.739 838.376 957.918 835.745C958.15 833.119 959.403 830.688 961.407 828.975C963.411 827.261 966.007 826.401 968.638 826.58L1362.65 860.455C1365.28 860.687 1367.71 861.94 1369.42 863.944C1371.14 865.948 1372 868.544 1371.82 871.175C1371.58 873.802 1370.33 876.232 1368.33 877.946C1366.32 879.659 1363.73 880.519 1361.1 880.341Z" fill="white" fill-opacity="0.7"/>
<path d="M1670.1 1739.87C1670.1 1739.87 1640.4 1718.7 1578.98 1722.93C1578.98 1722.93 1574.48 1796.63 1566.12 1818.07C1557.75 1839.51 1513.69 1876.66 1505.49 1883.04C1497.29 1889.41 1497.29 1911.66 1497.29 1911.66H1683.93C1681.53 1879.76 1676.57 1848.1 1669.08 1817L1670.1 1739.87Z" fill="white"/>
<mask id="mask4_20_722" style="mask-type:luminance" maskUnits="userSpaceOnUse" x="1497" y="1722" width="187" height="190">
<path d="M1670.1 1739.87C1670.1 1739.87 1640.4 1718.7 1578.98 1722.93C1578.98 1722.93 1574.48 1796.63 1566.12 1818.07C1557.75 1839.51 1513.69 1876.66 1505.49 1883.04C1497.29 1889.41 1497.29 1911.66 1497.29 1911.66H1683.93C1681.53 1879.76 1676.57 1848.1 1669.08 1817L1670.1 1739.87Z" fill="white"/>
</mask>
<g mask="url(#mask4_20_722)">
<path opacity="0.4" d="M1670.1 1739.87C1670.1 1739.87 1640.4 1718.7 1578.98 1722.93C1578.98 1722.93 1574.48 1796.63 1566.12 1818.07C1557.75 1839.51 1513.69 1876.66 1505.49 1883.04C1497.29 1889.41 1497.29 1911.66 1497.29 1911.66H1683.93C1681.53 1879.76 1676.57 1848.1 1669.08 1817L1670.1 1739.87Z" fill="#4AF4C4"/>
</g>
<path d="M1670.1 1739.87C1670.1 1739.87 1640.4 1718.7 1578.98 1722.93C1578.98 1722.93 1574.48 1796.63 1566.12 1818.07C1557.75 1839.51 1513.69 1876.66 1505.49 1883.04C1497.29 1889.41 1497.29 1911.66 1497.29 1911.66H1683.93C1681.53 1879.76 1676.57 1848.1 1669.08 1817L1670.1 1739.87Z" stroke="#263238" stroke-width="5" stroke-linecap="round" stroke-linejoin="round"/>
<path d="M1631.56 1749.41C1631.56 1749.41 1627.17 1817.27 1616.61 1835.17C1610.97 1845.01 1604.01 1854.03 1595.92 1861.97" stroke="#263238" stroke-width="5" stroke-linecap="round" stroke-linejoin="round"/>
<path d="M1590.77 1871.35C1590.77 1871.35 1581.39 1883.04 1570.99 1884.59C1560.6 1886.15 1505.66 1883.04 1505.66 1883.04L1528.06 1863.63C1528.06 1863.63 1573.62 1855.97 1590.77 1871.35Z" fill="#4AF4C4" stroke="#263238" stroke-width="5" stroke-linecap="round" stroke-linejoin="round"/>
<path d="M1610.18 1855.43C1610.18 1855.43 1570.41 1832.6 1542.05 1850.07" stroke="#263238" stroke-width="5" stroke-linecap="round" stroke-linejoin="round"/>
<path d="M1619.77 1839.94C1619.77 1839.94 1592 1818.23 1559.25 1830.13" stroke="#263238" stroke-width="5" stroke-linecap="round" stroke-linejoin="round"/>
<path d="M1631.56 1816.3C1631.56 1816.3 1601.65 1793.04 1570.14 1807.84" stroke="#263238" stroke-width="5" stroke-linecap="round" stroke-linejoin="round"/>
<path d="M1635.63 1786.77C1635.63 1786.77 1599.35 1767.26 1572.98 1782.05" stroke="#263238" stroke-width="5" stroke-linecap="round" stroke-linejoin="round"/>
<path d="M1683.87 1911.66V1925.43H1662.43C1662.43 1925.43 1644.05 1914.71 1626.58 1925.43H1525.91C1515.28 1925.4 1504.78 1923.04 1495.15 1918.52L1497.24 1911.66H1683.87Z" fill="#4AF4C4" stroke="#263238" stroke-width="5" stroke-linecap="round" stroke-linejoin="round"/>
<path d="M1657.13 1735.53L1652.36 1765.6C1652.36 1765.6 1596.35 1747.43 1565.42 1759.22V1722.24C1565.42 1722.24 1622.93 1702.08 1657.13 1735.53Z" fill="#4AF4C4" stroke="#263238" stroke-width="5" stroke-linecap="round" stroke-linejoin="round"/>
<path d="M1717.69 986.362C1717.69 986.362 1598.65 1009.68 1481.85 971.836C1455.26 963.361 1429.82 951.623 1406.12 936.889C1406.12 936.889 1406.44 929.385 1406.65 917.11C1407.62 869.192 1407.35 748.645 1382.11 718.79C1366.03 699.977 1353.43 583.665 1384.46 524.865L1479.39 448.539C1610.82 474.213 1638.58 509 1660.29 584.04C1664.31 597.761 1668.06 612.823 1672.24 629.439C1676.8 647.556 1681.09 669.693 1685.16 693.759C1704.88 813.609 1717.69 986.362 1717.69 986.362Z" fill="#999999"/>
<mask id="mask5_20_722" style="mask-type:luminance" maskUnits="userSpaceOnUse" x="1365" y="448" width="353" height="546">
<path d="M1717.69 986.362C1717.69 986.362 1598.65 1009.68 1481.85 971.836C1455.26 963.361 1429.82 951.623 1406.12 936.889C1406.12 936.889 1406.44 929.385 1406.65 917.11C1407.62 869.192 1407.35 748.645 1382.11 718.79C1366.03 699.977 1353.43 583.665 1384.46 524.865L1479.39 448.539C1610.82 474.213 1638.58 509 1660.29 584.04C1664.31 597.761 1668.06 612.823 1672.24 629.439C1676.8 647.556 1681.09 669.693 1685.16 693.759C1704.88 813.609 1717.69 986.362 1717.69 986.362Z" fill="white"/>
</mask>
<g mask="url(#mask5_20_722)">
<path opacity="0.2" d="M1685.16 693.759L1631.56 933.19C1631.56 933.19 1554.11 954.63 1481.91 971.836C1455.3 963.365 1429.84 951.627 1406.12 936.889C1406.12 936.889 1406.44 929.385 1406.65 917.11C1471.51 883.932 1566.17 835.156 1565.42 832.851C1564.18 829.26 1565.42 704.211 1565.42 704.211C1565.42 704.211 1651.18 684.325 1660.29 583.879C1664.31 597.601 1668.06 612.662 1672.24 629.278C1676.8 647.449 1681.09 669.425 1685.16 693.759Z" fill="black"/>
</g>
<path d="M1717.69 986.362C1717.69 986.362 1598.65 1009.68 1481.85 971.836C1455.26 963.361 1429.82 951.623 1406.12 936.889C1406.12 936.889 1406.44 929.385 1406.65 917.11C1407.62 869.192 1407.35 748.645 1382.11 718.79C1366.03 699.977 1353.43 583.665 1384.46 524.865L1479.39 448.539C1610.82 474.213 1638.58 509 1660.29 584.04C1664.31 597.761 1668.06 612.823 1672.24 629.439C1676.8 647.556 1681.09 669.693 1685.16 693.759C1704.88 813.609 1717.69 986.362 1717.69 986.362Z" stroke="#263238" stroke-width="5" stroke-linecap="round" stroke-linejoin="round"/>
<path d="M1483.57 348.361C1483.57 348.361 1441.66 408.393 1497.4 455.24C1497.4 455.24 1429.76 531.137 1407.51 520.685C1398.13 516.29 1407.51 488.901 1407.51 488.901L1368.28 416.326L1483.57 348.361Z" fill="white" stroke="#263238" stroke-width="5" stroke-linecap="round" stroke-linejoin="round"/>
<path d="M1469.9 379.45C1482.98 322.259 1476.71 237.089 1396.58 244.646C1340.41 250.006 1300.37 281.094 1316.18 356.456C1322.77 388.241 1328.19 433.265 1357.34 473.893C1365.44 485.149 1450.13 445.325 1444.98 413.111" fill="white"/>
<path d="M1469.9 379.45C1482.98 322.259 1476.71 237.089 1396.58 244.646C1340.41 250.006 1300.37 281.094 1316.18 356.456C1322.77 388.241 1328.19 433.265 1357.34 473.893C1365.44 485.149 1450.13 445.325 1444.98 413.111" stroke="#263238" stroke-width="5" stroke-linecap="round" stroke-linejoin="round"/>
<path d="M1355.25 343.698C1360.9 341.51 1366.99 340.676 1373.02 341.262C1379.05 341.849 1384.86 343.839 1389.99 347.075" stroke="#263238" stroke-width="5" stroke-linecap="round" stroke-linejoin="round"/>
<path d="M1314.95 350.719C1315.97 348.525 1317.76 346.775 1319.98 345.79C1322.19 344.806 1324.69 344.653 1327.01 345.359" stroke="#263238" stroke-width="5" stroke-linecap="round" stroke-linejoin="round"/>
<path d="M1334.99 362.619C1334.99 362.619 1318.48 392.689 1318.43 396.977C1318.38 401.265 1338.74 402.712 1338.74 402.712" fill="white"/>
<path d="M1334.99 362.619C1334.99 362.619 1318.48 392.689 1318.43 396.977C1318.38 401.265 1338.74 402.712 1338.74 402.712" stroke="#263238" stroke-width="5" stroke-linecap="round" stroke-linejoin="round"/>
<path d="M1370.48 368.729C1370.48 371.999 1369.03 374.679 1366.99 374.786C1364.96 374.893 1363.24 372.213 1363.13 368.943C1363.03 365.674 1364.58 362.994 1366.62 362.94C1368.65 362.887 1370.37 365.567 1370.48 368.729Z" fill="#263238"/>
<path d="M1347.16 424.581C1347.16 424.581 1378.84 418.631 1384.68 407.482" stroke="#263238" stroke-width="5" stroke-linecap="round" stroke-linejoin="round"/>
<path d="M1314.73 304.409L1339.39 297.227C1339.39 297.227 1373.96 281.147 1381.3 283.398C1388.65 285.649 1403.55 308.537 1403.06 321.615C1403.06 321.615 1426.33 342.09 1429.27 371.785L1436.35 368.569C1436.35 368.569 1435.97 341.769 1451.2 342.465C1466.42 343.162 1473.28 361.386 1472.26 367.121C1471.24 372.857 1454.57 396.655 1454.57 396.655C1454.57 396.655 1492.74 390.973 1493.97 316.255C1495.2 241.537 1413.3 229.369 1373.48 232.425C1353.31 234.356 1333.05 235.108 1312.8 234.676L1315.05 256.116L1298.97 260.35L1311.09 275.197L1297.79 281.254L1314.73 304.409Z" fill="#263238"/>
<path d="M1452.8 1119.13C1452.8 1119.13 1549.82 1144.8 1576.08 1217.06" stroke="white" stroke-width="5" stroke-linecap="round" stroke-linejoin="round"/>
<path d="M1497.24 1157.99C1497.24 1157.99 1444.82 1245.3 1364.58 1290.65" stroke="white" stroke-width="5" stroke-linecap="round" stroke-linejoin="round"/>
<path d="M1423.54 1649.02C1423.54 1649.02 1453.34 1642.32 1461.49 1630.74" stroke="white" stroke-width="5" stroke-linecap="round" stroke-linejoin="round"/>
<path d="M1589.48 1660.11C1589.48 1660.11 1618.64 1645 1647.69 1660.11" stroke="white" stroke-width="5" stroke-linecap="round" stroke-linejoin="round"/>
<path d="M1683.88 1253.61C1683.88 1253.61 1634.94 1380.38 1610.18 1392.11" stroke="white" stroke-width="5" stroke-linecap="round" stroke-linejoin="round"/>
<path d="M1469.58 1055.08C1470.92 1068.85 1528.54 1132.69 1576.09 1157.99" stroke="white" stroke-width="5" stroke-linecap="round" stroke-linejoin="round"/>
<path d="M1518.73 1001.21C1525.67 1018.3 1527.11 1037.13 1522.86 1055.08C1518.24 1070.57 1518.24 1087.07 1522.86 1102.57" stroke="white" stroke-width="5" stroke-linecap="round" stroke-linejoin="round"/>
<path d="M1413.89 737.605C1413.89 737.605 1504.1 854.346 1601.06 892.67" stroke="#263238" stroke-width="5" stroke-linecap="round" stroke-linejoin="round"/>
<path d="M1507.26 548.879C1507.26 548.879 1506.94 628.261 1564.18 664.065" stroke="#263238" stroke-width="5" stroke-linecap="round" stroke-linejoin="round"/>
<path d="M1539.48 664.708C1527.36 676.607 1540.55 825.936 1540.55 825.936C1540.55 825.936 1470.17 853.487 1448.14 871.228C1426.11 888.97 1321.75 929.706 1321.75 929.706C1321.75 929.706 1305.67 984.485 1325.72 986.361C1345.77 988.237 1553.36 917.485 1600.85 892.668C1600.85 892.668 1631.78 710.428 1631.56 664.064" fill="white"/>
<path d="M1539.48 664.708C1527.36 676.607 1540.55 825.936 1540.55 825.936C1540.55 825.936 1470.17 853.487 1448.14 871.228C1426.11 888.97 1321.75 929.706 1321.75 929.706C1321.75 929.706 1305.67 984.485 1325.72 986.361C1345.77 988.237 1553.36 917.485 1600.85 892.668C1600.85 892.668 1631.78 710.428 1631.56 664.064" stroke="#263238" stroke-width="5" stroke-linecap="round" stroke-linejoin="round"/>
<path d="M1330.01 926.438C1320.36 924.616 1303.21 918.291 1294.2 920.382C1285.2 922.472 1268.74 932.388 1251.8 936.462C1234.87 940.535 1241.89 947.182 1251.8 949.165C1259.06 950.373 1266.47 950.373 1273.73 949.165L1259.95 962.618C1252.06 966.888 1243.92 970.665 1235.56 973.928C1230.58 973.928 1212.94 978.698 1214.12 986.202C1215.3 993.706 1225.43 992.849 1236.74 993.277C1236.74 993.277 1218.73 996.869 1220.66 1007.11C1221.84 1014.13 1242.1 1007.8 1252.45 1007.8C1252.45 1007.8 1243.98 1017.02 1250.3 1019.86C1256.63 1022.7 1270.67 1015.63 1270.67 1015.63C1270.67 1015.63 1270.13 1023.24 1276.46 1023.99C1282.78 1024.74 1298.7 1018.63 1309.53 1012.09C1320.19 1005.22 1330.4 997.664 1340.08 989.472C1344.18 985.725 1348.87 982.682 1353.97 980.467" fill="white"/>
<path d="M1330.01 926.438C1320.36 924.616 1303.21 918.291 1294.2 920.382C1285.2 922.472 1268.74 932.388 1251.8 936.462C1234.87 940.535 1241.89 947.182 1251.8 949.165C1259.06 950.373 1266.47 950.373 1273.73 949.165L1259.95 962.618C1252.06 966.888 1243.92 970.665 1235.56 973.928C1230.58 973.928 1212.94 978.698 1214.12 986.202C1215.3 993.706 1225.43 992.849 1236.74 993.277C1236.74 993.277 1218.73 996.869 1220.66 1007.11C1221.84 1014.13 1242.1 1007.8 1252.45 1007.8C1252.45 1007.8 1243.98 1017.02 1250.3 1019.86C1256.63 1022.7 1270.67 1015.63 1270.67 1015.63C1270.67 1015.63 1270.13 1023.24 1276.46 1023.99C1282.78 1024.74 1298.7 1018.63 1309.53 1012.09C1320.19 1005.22 1330.4 997.664 1340.08 989.472C1344.18 985.725 1348.87 982.682 1353.97 980.467" stroke="#263238" stroke-width="5" stroke-linecap="round" stroke-linejoin="round"/>
<path d="M1237.01 993.491C1241.99 993.222 1246.95 992.649 1251.86 991.776C1256.09 990.704 1260.33 989.311 1260.33 989.311" stroke="#263238" stroke-width="5" stroke-linecap="round" stroke-linejoin="round"/>
<path d="M1252.5 1008.02C1258.98 1007.11 1265.22 1004.96 1270.88 1001.69" stroke="#263238" stroke-width="5" stroke-linecap="round" stroke-linejoin="round"/>
<path d="M1270.73 1015.84C1275.52 1015.24 1280.11 1013.53 1284.13 1010.86" stroke="#263238" stroke-width="5" stroke-linecap="round" stroke-linejoin="round"/>
<path d="M1261.67 966.691C1261.67 966.691 1257.81 975.535 1261.67 980.467C1265.53 985.398 1270.19 985.827 1270.89 991.187C1271.58 996.547 1280.8 996.547 1284.13 1000.03C1287.45 1003.51 1289.97 1010.21 1300.58 1010.75" stroke="#263238" stroke-width="5" stroke-linecap="round" stroke-linejoin="round"/>
<path d="M1534.97 509.857C1498.47 592.455 1534.97 707.052 1534.97 707.052C1534.97 707.052 1623.31 737.068 1631.45 724.15C1639.6 711.233 1654.5 647.877 1657.02 618.612" fill="#999999"/>
<path d="M1534.97 509.857C1498.47 592.455 1534.97 707.052 1534.97 707.052C1534.97 707.052 1623.31 737.068 1631.45 724.15C1639.6 711.233 1654.5 647.877 1657.02 618.612" stroke="#263238" stroke-width="5" stroke-linecap="round" stroke-linejoin="round"/>
<path d="M1631.56 627.777C1631.56 627.777 1594.04 679.394 1564.19 680.091" stroke="#263238" stroke-width="5" stroke-linecap="round" stroke-linejoin="round"/>
<path d="M290.489 1925.43C290.489 1925.43 281.324 1890.43 292.044 1877.46C311.232 1854.2 289.685 1834.58 308.981 1826.6L317.075 1835.98C318.629 1826.49 314.127 1797.49 349.932 1793.74C393.24 1789.18 394.044 1820.54 396.403 1831.26L395.652 1816.73C414.144 1816.73 404.55 1835.17 432.529 1865.29C439.864 1873.43 445.448 1882.98 448.933 1893.36C452.419 1903.75 453.732 1914.74 452.79 1925.65L290.489 1925.43Z" fill="#263238"/>
<path d="M620.611 1925.43C603.191 1917.66 619.164 1851.95 619.164 1851.95C619.164 1851.95 595.741 1836.24 619.164 1819.79C628.223 1827.46 639.207 1832.52 650.93 1834.41C662.653 1836.3 674.67 1834.95 685.682 1830.51C685.682 1830.51 690.238 1786.56 717.842 1792.18C717.842 1792.18 724.917 1820.06 741.051 1835.97C784.735 1878.85 841.175 1884.21 850.609 1904.8C853.45 1911.01 850.019 1925.22 850.019 1925.22L620.611 1925.43Z" fill="#263238"/>
<path d="M546.159 877.446L567.599 922.899C567.599 922.899 656.254 1106.1 710.55 1315.89C711.837 1320.88 739.923 1420.25 717.411 1667.72L730.275 1711.14L716.232 1782.86C716.232 1782.86 737.35 1813.36 736.6 1823.32C736.6 1823.32 684.501 1833.03 666.92 1842.35C653.413 1849.64 612.838 1889.68 612.838 1889.68C601.314 1887.32 600.295 1840.8 600.295 1840.8C600.295 1840.8 576.229 1427.7 569.314 1409.91C562.4 1392.11 520.163 1315.36 454.235 1139.71C454.235 1139.71 452.734 1385.04 435.154 1447.11C419.449 1502.31 438.048 1656.84 438.048 1656.84L427.328 1828.85C427.328 1828.85 464.419 1867.38 434.35 1877.73C434.35 1877.73 414.25 1839.08 357.005 1830.29C327.9 1825.79 291.666 1877.46 291.666 1877.46C278.91 1873.39 297.026 1808.48 297.026 1808.48C256.451 1502.31 286.306 1557.74 278.266 1408.09C272.906 1312.03 245.838 901.137 277.784 867.744L546.159 877.446Z" fill="#BFBFBF"/>
<mask id="mask6_20_722" style="mask-type:luminance" maskUnits="userSpaceOnUse" x="262" y="867" width="475" height="1023">
<path d="M546.159 877.446L567.599 922.899C567.599 922.899 656.254 1106.1 710.55 1315.89C711.837 1320.88 739.923 1420.25 717.411 1667.72L730.275 1711.14L716.232 1782.86C716.232 1782.86 737.35 1813.36 736.6 1823.32C736.6 1823.32 684.501 1833.03 666.92 1842.35C653.413 1849.64 612.838 1889.68 612.838 1889.68C601.314 1887.32 600.295 1840.8 600.295 1840.8C600.295 1840.8 576.229 1427.7 569.314 1409.91C562.4 1392.11 520.163 1315.36 454.235 1139.71C454.235 1139.71 452.734 1385.04 435.154 1447.11C419.449 1502.31 438.048 1656.84 438.048 1656.84L427.328 1828.85C427.328 1828.85 464.419 1867.38 434.35 1877.73C434.35 1877.73 414.25 1839.08 357.005 1830.29C327.9 1825.79 291.666 1877.46 291.666 1877.46C278.91 1873.39 297.026 1808.48 297.026 1808.48C256.451 1502.31 286.306 1557.74 278.266 1408.09C272.906 1312.03 245.838 901.137 277.784 867.744L546.159 877.446Z" fill="white"/>
</mask>
<g mask="url(#mask6_20_722)">
<path opacity="0.2" d="M262.883 1018.95C406.21 1030.21 530.294 983.306 584.162 958.81C573.924 935.87 567.653 922.899 567.653 922.899L546.213 877.499L278.213 867.744C266.85 879.804 262.83 941.069 262.883 1018.95Z" fill="black"/>
<path opacity="0.2" d="M455.684 1142.87C520.915 1316.27 562.884 1392.17 569.637 1409.86C573.55 1420.15 583.144 1560.42 590.648 1678.12C599.224 1570.92 608.068 1457.99 608.819 1435.85C610.427 1391.68 578.535 1331.17 573.764 1315.52C568.994 1299.87 579.768 1282.93 579.768 1282.93L522.416 1210.57C524.345 1186.02 493.954 1078.88 493.954 1078.88C475.891 1095.97 459.811 1132.37 455.684 1142.87Z" fill="black"/>
</g>
<path d="M546.159 877.446L567.599 922.899C567.599 922.899 656.254 1106.1 710.55 1315.89C711.837 1320.88 739.923 1420.25 717.411 1667.72L730.275 1711.14L716.232 1782.86C716.232 1782.86 737.35 1813.36 736.6 1823.32C736.6 1823.32 684.501 1833.03 666.92 1842.35C653.413 1849.64 612.838 1889.68 612.838 1889.68C601.314 1887.32 600.295 1840.8 600.295 1840.8C600.295 1840.8 576.229 1427.7 569.314 1409.91C562.4 1392.11 520.163 1315.36 454.235 1139.71C454.235 1139.71 452.734 1385.04 435.154 1447.11C419.449 1502.31 438.048 1656.84 438.048 1656.84L427.328 1828.85C427.328 1828.85 464.419 1867.38 434.35 1877.73C434.35 1877.73 414.25 1839.08 357.005 1830.29C327.9 1825.79 291.666 1877.46 291.666 1877.46C278.91 1873.39 297.026 1808.48 297.026 1808.48C256.451 1502.31 286.306 1557.74 278.266 1408.09C272.906 1312.03 245.838 901.137 277.784 867.744L546.159 877.446Z" stroke="#263238" stroke-width="5" stroke-linecap="round" stroke-linejoin="round"/>
<path d="M454.449 1139.71C454.449 1139.71 487.199 1076.52 515.124 1058.88" stroke="#263238" stroke-width="5" stroke-linecap="round" stroke-linejoin="round"/>
<path d="M527.453 1038.41C527.453 1038.41 427.972 1068.69 393.453 1074.53" stroke="#263238" stroke-width="5" stroke-linecap="round" stroke-linejoin="round"/>
<path d="M476.532 936.889C480.82 1019.7 510.032 1033.8 481.892 1051.86C481.892 1051.86 482.696 1090.61 468.652 1115.16" stroke="#263238" stroke-width="5" stroke-linecap="round" stroke-linejoin="round"/>
<path d="M302.225 905.211C302.225 905.211 313.963 1032.51 274.781 1056.47" stroke="#263238" stroke-width="5" stroke-linecap="round" stroke-linejoin="round"/>
<path d="M274.783 946.268C274.783 946.268 271.835 1031.01 274.783 1099.3C274.783 1099.3 284.592 1387.93 294.4 1424.17C304.209 1460.4 279.285 1515.29 281.429 1671.9" stroke="#263238" stroke-width="5" stroke-linecap="round" stroke-linejoin="round"/>
<path d="M368.69 1794.49C359.415 1792.47 349.726 1793.76 341.301 1798.13" stroke="#263238" stroke-width="5" stroke-linecap="round" stroke-linejoin="round"/>
<path d="M427.649 1828.85C415.357 1816.88 401.108 1807.11 385.52 1799.96" stroke="#263238" stroke-width="5" stroke-linecap="round" stroke-linejoin="round"/>
<path d="M411.568 1159.7C389.592 1184.36 354.752 1230.83 319.055 1234.74" stroke="#263238" stroke-width="5" stroke-linecap="round" stroke-linejoin="round"/>
<path d="M445.176 1119.61C438.422 1128.13 431.454 1136.5 424.379 1144.8" stroke="#263238" stroke-width="5" stroke-linecap="round" stroke-linejoin="round"/>
<path d="M413.876 1408.09C413.876 1408.09 363.921 1476.1 336.531 1480.02" stroke="#263238" stroke-width="5" stroke-linecap="round" stroke-linejoin="round"/>
<path d="M472.621 1127.44C472.621 1127.44 561.597 1375.23 592.524 1399.67C592.524 1399.67 596.008 1581.91 597.027 1645.53C598.045 1709.16 612.678 1793.74 612.678 1793.74" stroke="#263238" stroke-width="5" stroke-linecap="round" stroke-linejoin="round"/>
<path d="M707.655 1791.92C707.655 1791.92 673.404 1803.76 656.735 1811.32C646.499 1816.32 638.478 1824.93 634.223 1835.49" stroke="#263238" stroke-width="5" stroke-linecap="round" stroke-linejoin="round"/>
<path d="M620.984 1310.32C573.226 1280.36 510.246 1242.89 484.84 1190.09" stroke="#263238" stroke-width="5" stroke-linecap="round" stroke-linejoin="round"/>
<path d="M662.632 1335.03C653.574 1330.04 644.676 1324.84 635.832 1319.48" stroke="#263238" stroke-width="5" stroke-linecap="round" stroke-linejoin="round"/>
<path d="M512.123 970.389C486.449 970.014 458.524 966.637 436.387 952.111" stroke="#263238" stroke-width="5" stroke-linecap="round" stroke-linejoin="round"/>
<path d="M552.914 967.977C545.571 968.995 538.174 969.638 530.777 970.013" stroke="#263238" stroke-width="5" stroke-linecap="round" stroke-linejoin="round"/>
<path d="M600.564 398.959C580.946 369.264 480.982 361.707 416.823 361.707C352.664 361.707 274.783 350.987 239.621 423.347C212.821 478.608 274.568 770.835 274.568 770.835L259.453 897.01C375.658 933.458 574.728 925.418 574.728 925.418L547.928 811.357C547.928 811.357 620.181 428.599 600.564 398.959Z" fill="#263238"/>
<path d="M378.715 288.328C378.715 288.328 387.344 357.097 361.188 371.944C361.188 371.944 374.266 422.382 420.148 425.544C466.029 428.707 486.29 379.448 486.29 379.448L378.715 288.328Z" fill="white" stroke="#263238" stroke-width="5" stroke-linecap="round" stroke-linejoin="round"/>
<path d="M621.864 111.758L739.285 100.927C741.946 100.682 744.596 101.504 746.652 103.212C748.707 104.92 750 107.375 750.245 110.036L757.974 193.832L620.698 206.495L612.969 122.698C612.726 120.074 613.521 117.458 615.184 115.413C616.847 113.368 619.245 112.056 621.864 111.758Z" fill="#4AF4C4"/>
<mask id="mask7_20_722" style="mask-type:luminance" maskUnits="userSpaceOnUse" x="612" y="100" width="146" height="107">
<path d="M621.864 111.758L739.285 100.927C741.946 100.682 744.596 101.504 746.652 103.212C748.707 104.92 750 107.375 750.245 110.036L757.974 193.832L620.698 206.495L612.969 122.698C612.726 120.074 613.521 117.458 615.184 115.413C616.847 113.368 619.245 112.056 621.864 111.758Z" fill="white"/>
</mask>
<g mask="url(#mask7_20_722)">
<path opacity="0.3" d="M621.864 111.758L739.285 100.927C741.946 100.682 744.596 101.504 746.652 103.212C748.707 104.92 750 107.375 750.245 110.036L757.974 193.832L620.698 206.495L612.969 122.698C612.726 120.074 613.521 117.458 615.184 115.413C616.847 113.368 619.245 112.056 621.864 111.758Z" fill="black" fill-opacity="0.7"/>
<path opacity="0.3" d="M742.707 109.403L708.922 112.52L715.155 180.09L748.94 176.974L742.707 109.403Z" fill="white" fill-opacity="0.7"/>
</g>
<path d="M621.864 111.758L739.285 100.927C741.946 100.682 744.596 101.504 746.652 103.212C748.707 104.92 750 107.375 750.245 110.036L757.974 193.832L620.698 206.495L612.969 122.698C612.726 120.074 613.521 117.458 615.184 115.413C616.847 113.368 619.245 112.056 621.864 111.758Z" stroke="#263238" stroke-width="5" stroke-linecap="round" stroke-linejoin="round"/>
<path d="M824.886 92.9221L942.307 82.0912C944.969 81.8458 947.618 82.6676 949.674 84.3758C951.729 86.084 953.022 88.5387 953.267 91.1999L960.996 174.996L823.506 187.678L815.777 103.882C815.532 101.221 816.353 98.5709 818.062 96.5155C819.77 94.4602 822.225 93.1676 824.886 92.9221Z" fill="#4AF4C4"/>
<mask id="mask8_20_722" style="mask-type:luminance" maskUnits="userSpaceOnUse" x="815" y="82" width="146" height="106">
<path d="M824.886 92.9221L942.307 82.0912C944.969 81.8458 947.618 82.6676 949.674 84.3758C951.729 86.084 953.022 88.5387 953.267 91.1999L960.996 174.996L823.506 187.678L815.777 103.882C815.532 101.221 816.353 98.5709 818.062 96.5155C819.77 94.4602 822.225 93.1676 824.886 92.9221Z" fill="white"/>
</mask>
<g mask="url(#mask8_20_722)">
<path opacity="0.3" d="M824.886 92.9221L942.307 82.0912C944.969 81.8458 947.618 82.6676 949.674 84.3758C951.729 86.084 953.022 88.5387 953.267 91.1999L960.996 174.996L823.506 187.678L815.777 103.882C815.532 101.221 816.353 98.5709 818.062 96.5155C819.77 94.4602 822.225 93.1676 824.886 92.9221Z" fill="black" fill-opacity="0.7"/>
<path opacity="0.3" d="M943.303 90.9553L922.914 92.8359L929.147 160.407L949.535 158.526L943.303 90.9553Z" fill="white" fill-opacity="0.7"/>
</g>
<path d="M824.886 92.9221L942.307 82.0912C944.969 81.8458 947.618 82.6676 949.674 84.3758C951.729 86.084 953.022 88.5387 953.267 91.1999L960.996 174.996L823.506 187.678L815.777 103.882C815.532 101.221 816.353 98.5709 818.062 96.5155C819.77 94.4602 822.225 93.1676 824.886 92.9221Z" stroke="#263238" stroke-width="5" stroke-linecap="round" stroke-linejoin="round"/>
<path d="M782.224 96.8246L899.646 85.9938C902.307 85.7483 904.957 86.57 907.012 88.2782C909.068 89.9864 910.36 92.4412 910.606 95.1024L918.335 178.899L780.632 191.6L772.902 107.804C772.779 106.468 772.923 105.121 773.327 103.842C773.731 102.563 774.387 101.377 775.255 100.354C776.123 99.3316 777.187 98.4926 778.384 97.8865C779.58 97.2804 780.886 96.9194 782.224 96.8246Z" fill="#4AF4C4" stroke="#263238" stroke-width="5" stroke-linecap="round" stroke-linejoin="round"/>
<path d="M985.046 78.1135L1102.47 67.2827C1105.13 67.0372 1107.78 67.8589 1109.83 69.5671C1111.89 71.2753 1113.18 73.7301 1113.43 76.3913L1121.16 160.188L983.667 172.87L975.937 89.0733C975.692 86.412 976.513 83.7623 978.222 81.7069C979.93 79.6516 982.385 78.359 985.046 78.1135Z" fill="#4AF4C4" stroke="#263238" stroke-width="5" stroke-linecap="round" stroke-linejoin="round"/>
<path opacity="0.3" d="M902.867 94.6493L869.082 97.7656L875.315 165.336L909.1 162.22L902.867 94.6493Z" fill="white" fill-opacity="0.7"/>
<path opacity="0.3" d="M1103.46 76.0907L1069.68 79.207L1075.91 146.778L1109.69 143.661L1103.46 76.0907Z" fill="white" fill-opacity="0.7"/>
<path d="M1179.17 135.14L1214.76 520.416L593.808 577.768L558.432 192.384C557.836 185.945 559.822 179.532 563.953 174.557C568.084 169.581 574.022 166.45 580.462 165.852L1152.7 113.056C1155.89 112.762 1159.1 113.1 1162.16 114.051C1165.22 115.002 1168.06 116.548 1170.52 118.6C1172.98 120.651 1175.01 123.168 1176.5 126.007C1177.98 128.845 1178.89 131.949 1179.17 135.14Z" fill="#4AF4C4"/>
<mask id="mask9_20_722" style="mask-type:luminance" maskUnits="userSpaceOnUse" x="558" y="112" width="657" height="466">
<path d="M1179.17 135.14L1214.76 520.416L593.808 577.768L558.432 192.384C557.836 185.945 559.822 179.532 563.953 174.557C568.084 169.581 574.022 166.45 580.462 165.852L1152.7 113.056C1155.89 112.762 1159.1 113.1 1162.16 114.051C1165.22 115.002 1168.06 116.548 1170.52 118.6C1172.98 120.651 1175.01 123.168 1176.5 126.007C1177.98 128.845 1178.89 131.949 1179.17 135.14Z" fill="white"/>
</mask>
<g mask="url(#mask9_20_722)">
<path opacity="0.3" d="M1179.17 135.14L1214.76 520.416L593.808 577.768L558.432 192.384C557.836 185.945 559.822 179.532 563.953 174.557C568.084 169.581 574.022 166.45 580.462 165.852L1152.7 113.056C1155.89 112.762 1159.1 113.1 1162.16 114.051C1165.22 115.002 1168.06 116.548 1170.52 118.6C1172.98 120.651 1175.01 123.168 1176.5 126.007C1177.98 128.845 1178.89 131.949 1179.17 135.14Z" fill="black" fill-opacity="0.7"/>
</g>
<path d="M1179.17 135.14L1214.76 520.416L593.808 577.768L558.432 192.384C557.836 185.945 559.822 179.532 563.953 174.557C568.084 169.581 574.022 166.45 580.462 165.852L1152.7 113.056C1155.89 112.762 1159.1 113.1 1162.16 114.051C1165.22 115.002 1168.06 116.548 1170.52 118.6C1172.98 120.651 1175.01 123.168 1176.5 126.007C1177.98 128.845 1178.89 131.949 1179.17 135.14Z" stroke="#263238" stroke-width="5" stroke-linecap="round" stroke-linejoin="round"/>
<path d="M1179.17 135.14L1214.76 520.417L753.805 562.922L718.268 177.645C717.672 171.205 719.658 164.793 723.789 159.817C727.92 154.842 733.858 151.711 740.298 151.113L1152.43 113.057C1155.64 112.725 1158.88 113.035 1161.97 113.969C1165.06 114.903 1167.94 116.442 1170.43 118.497C1172.92 120.552 1174.97 123.082 1176.47 125.94C1177.97 128.797 1178.89 131.924 1179.17 135.14Z" fill="#4AF4C4" stroke="#263238" stroke-width="5" stroke-linecap="round" stroke-linejoin="round"/>
<path opacity="0.3" d="M1149.32 151.701L755.521 188.042C752.899 188.221 750.31 187.369 748.307 185.667C746.305 183.964 745.046 181.547 744.801 178.93C744.607 176.313 745.447 173.724 747.141 171.72C748.834 169.716 751.247 168.455 753.859 168.21L1147.66 131.869C1150.28 131.69 1152.87 132.542 1154.87 134.245C1156.87 135.947 1158.13 138.364 1158.38 140.981C1158.54 143.592 1157.69 146.166 1156.01 148.164C1154.32 150.162 1151.92 151.43 1149.32 151.701Z" fill="white" fill-opacity="0.7"/>
<path d="M457.344 151.97C457.344 151.97 366.492 133.746 356.308 192.224C346.124 250.701 379.41 275.572 379.41 275.572L457.344 151.97Z" fill="#263238"/>
<path d="M379.409 307.679C369.027 278.609 367.406 247.131 374.745 217.148C383.643 179.628 428.345 128.011 496.149 174.911C531.043 199.085 533.187 251.559 522.306 299.585C519.733 311.055 521.663 322.258 517.857 332.817C504.457 369.801 479.962 398.263 466.562 398.906C444.211 400.031 399.509 372.963 401.331 349.379" fill="white"/>
<path d="M379.409 307.679C369.027 278.609 367.406 247.131 374.745 217.148C383.643 179.628 428.345 128.011 496.149 174.911C531.043 199.085 533.187 251.559 522.306 299.585C519.733 311.055 521.663 322.258 517.857 332.817C504.457 369.801 479.962 398.263 466.562 398.906C444.211 400.031 399.509 372.963 401.331 349.379" stroke="#263238" stroke-width="5" stroke-linecap="round" stroke-linejoin="round"/>
<path d="M469.941 290.687C469.941 290.687 451.878 277.609 434.512 288.329" stroke="#263238" stroke-width="5" stroke-linecap="round" stroke-linejoin="round"/>
<path d="M504.031 288.329C504.031 288.329 517.699 275.786 526.597 277.609" stroke="#263238" stroke-width="5" stroke-linecap="round" stroke-linejoin="round"/>
<path d="M444.426 310.734C444.426 314.057 446.087 316.79 448.178 316.79C450.268 316.79 451.983 314.057 451.983 310.734C451.983 307.41 450.268 304.73 448.178 304.73C446.087 304.73 444.426 307.41 444.426 310.734Z" fill="#263238"/>
<path d="M504.028 313.413C506.13 313.413 507.834 310.725 507.834 307.409C507.834 304.094 506.13 301.406 504.028 301.406C501.927 301.406 500.223 304.094 500.223 307.409C500.223 310.725 501.927 313.413 504.028 313.413Z" fill="#263238"/>
<path d="M496.366 300.979C489.72 309.662 499.046 342.733 496.366 345.091C493.686 347.45 476.642 340.75 476.642 340.75C476.642 340.75 472.675 335.711 480.983 333.031" stroke="#263238" stroke-width="5" stroke-linecap="round" stroke-linejoin="round"/>
<path d="M481.252 361.707C481.252 361.707 458.364 361.707 452.254 353.346" stroke="#263238" stroke-width="5" stroke-linecap="round" stroke-linejoin="round"/>
<path d="M426.469 237.837L424.701 265.495C424.701 265.495 405.083 275.625 400.152 285.917C397.217 292.657 396.144 300.06 397.043 307.357C397.043 307.357 385.144 286.56 378.712 288.275C376.407 288.865 376.407 297.601 376.407 297.601C376.407 297.601 349.607 237.784 373.834 206.16C398.061 174.536 426.469 237.837 426.469 237.837Z" fill="#757575" stroke="#263238" stroke-width="5" stroke-linecap="round" stroke-linejoin="round"/>
<path d="M388.683 301.407C388.683 301.407 383.323 281.307 365.26 276.001C347.196 270.695 359.578 318.881 374.961 325.152C390.344 331.423 394.204 335.872 395.115 330.137" fill="white"/>
<path d="M388.683 301.407C388.683 301.407 383.323 281.307 365.26 276.001C347.196 270.695 359.578 318.881 374.961 325.152C390.344 331.423 394.204 335.872 395.115 330.137" stroke="#263238" stroke-width="5" stroke-linecap="round" stroke-linejoin="round"/>
<path d="M364.079 234.352C362.578 232.316 355.932 180.752 389.968 157.597C424.004 134.442 481.517 136.908 518.126 168.96C554.734 201.013 544.336 256.596 518.126 275.571V252.362C518.126 252.362 506.066 275.624 469.886 277.554L480.927 260.509C480.927 260.509 463.132 271.229 431.776 270.318C431.776 270.318 446.516 258.58 444.372 248.128C444.426 248.128 394.631 276.16 364.079 234.352Z" fill="#263238"/>
<path d="M370.46 420.238C345.375 423.239 309.677 455.989 332.94 514.145C347.787 551.022 469.78 529.099 469.78 529.099C515.019 510.446 581.108 443.339 629.616 412.198C629.616 412.198 619.378 347.878 607.586 356.99C552.753 398.958 507.676 401.853 431.188 438.622C431.349 438.408 386.218 418.362 370.46 420.238Z" fill="white" stroke="#263238" stroke-width="5" stroke-linecap="round" stroke-linejoin="round"/>
<path d="M426.47 491.633C425.719 515.646 435.582 519.88 452.198 525.562Z" fill="white"/>
<path d="M426.47 491.633C425.719 515.646 435.582 519.88 452.198 525.562" stroke="#263238" stroke-width="5" stroke-linecap="round" stroke-linejoin="round"/>
<path d="M603.941 361.706C605.067 358.222 625.381 322.525 631.117 313.466C636.852 304.408 662.473 296.207 672.389 290.74C682.305 285.273 683.109 276.965 688.469 282.914C693.829 288.864 688.469 302.425 658.774 316.843C669.325 317.427 679.901 317.427 690.452 316.843C698.385 315.664 705.46 308.482 708.997 313.466C712.535 318.451 713.232 327.402 695.544 332.87C687.132 335.919 678.32 337.725 669.387 338.23C678.041 340.079 686.55 342.551 694.847 345.626C697.688 347.717 701.922 352.594 706.157 353.345C710.391 354.095 715.001 358.705 707.229 364.065C704.473 365.588 701.386 366.414 698.237 366.47C695.088 366.526 691.974 365.811 689.165 364.386C689.165 364.386 709.694 374.302 703.316 380.466C696.937 386.63 676.516 385.398 676.516 385.398C676.516 385.398 646.232 422.328 620.611 414.61" fill="white"/>
<path d="M603.941 361.706C605.067 358.222 625.381 322.525 631.117 313.466C636.852 304.408 662.473 296.207 672.389 290.74C682.305 285.273 683.109 276.965 688.469 282.914C693.829 288.864 688.469 302.425 658.774 316.843C669.325 317.427 679.901 317.427 690.452 316.843C698.385 315.664 705.46 308.482 708.997 313.466C712.535 318.451 713.232 327.402 695.544 332.87C687.132 335.919 678.32 337.725 669.387 338.23C678.041 340.079 686.55 342.551 694.847 345.626C697.688 347.717 701.922 352.594 706.157 353.345C710.391 354.095 715.001 358.705 707.229 364.065C704.473 365.588 701.386 366.414 698.237 366.47C695.088 366.526 691.974 365.811 689.165 364.386C689.165 364.386 709.694 374.302 703.316 380.466C696.937 386.63 676.516 385.398 676.516 385.398C676.516 385.398 646.232 422.328 620.611 414.61" stroke="#263238" stroke-width="5" stroke-linecap="round" stroke-linejoin="round"/>
<path d="M640.227 313.414C641.96 313.816 643.548 314.69 644.815 315.939C646.083 317.188 646.981 318.762 647.409 320.489C649.178 326.814 654.377 327.189 657.539 334.265C660.702 341.34 659.791 352.274 662.899 356.026C666.008 359.778 662.899 375.59 662.899 375.59" stroke="#263238" stroke-width="5" stroke-linecap="round" stroke-linejoin="round"/>
<path d="M375.71 415.681C362.578 398.958 333.098 406.516 333.098 406.516" stroke="white" stroke-width="5" stroke-linecap="round" stroke-linejoin="round"/>
<path d="M317.02 375.697C317.02 375.697 347.357 380.146 356.308 405.392" stroke="white" stroke-width="5" stroke-linecap="round" stroke-linejoin="round"/>
<path d="M370.459 535.532C370.459 535.532 340.872 558.419 295.848 525.562" stroke="white" stroke-width="5" stroke-linecap="round" stroke-linejoin="round"/>
<path d="M333.098 542.445C333.098 542.445 318.09 563.188 281.535 562.92" stroke="white" stroke-width="5" stroke-linecap="round" stroke-linejoin="round"/>
<path d="M521.127 803.424C521.127 803.424 443.729 865.117 365.098 857.024" stroke="white" stroke-width="5" stroke-linecap="round" stroke-linejoin="round"/>
<path d="M311.926 667.869C311.926 667.869 432.043 755.988 520.966 761.616" stroke="white" stroke-width="5" stroke-linecap="round" stroke-linejoin="round"/>
<path d="M315.09 1320.18C335.753 1308.72 360.046 1305.68 382.894 1311.71C422.075 1321.58 523.862 1467.15 538.012 1481.36C552.163 1495.56 578.641 1502.8 603.029 1528.47C641.621 1568.72 697.74 1604.31 703.422 1604.31C709.103 1604.31 713.659 1600.78 720.735 1599.38C727.81 1597.99 782.589 1593.01 782.589 1593.01C782.589 1593.01 800.974 1597.08 782.589 1604.96C764.204 1612.84 765.598 1619.86 765.598 1619.86C765.598 1619.86 761.899 1625.81 769.296 1631.49C776.693 1637.17 781.035 1634.06 791.594 1649.02C802.153 1663.97 776.693 1655.5 776.693 1655.5C776.693 1655.5 782.321 1671.58 771.011 1669.98C759.702 1668.37 769.618 1685.68 751.233 1683.32C732.848 1680.96 693.506 1656.15 683.643 1630.15C683.643 1630.15 523.165 1553.45 499.152 1533.67C475.139 1513.89 374.05 1407.82 367.135 1406.42" fill="#263238"/>
<path d="M734.94 1463.83H852.86C855.533 1463.83 858.096 1464.89 859.985 1466.78C861.875 1468.67 862.937 1471.23 862.937 1473.91V1558.06H724.863V1473.91C724.863 1471.23 725.925 1468.67 727.815 1466.78C729.704 1464.89 732.268 1463.83 734.94 1463.83Z" fill="#4AF4C4"/>
<mask id="mask10_20_722" style="mask-type:luminance" maskUnits="userSpaceOnUse" x="724" y="1463" width="139" height="96">
<path d="M734.94 1463.83H852.86C855.533 1463.83 858.096 1464.89 859.985 1466.78C861.875 1468.67 862.937 1471.23 862.937 1473.91V1558.06H724.863V1473.91C724.863 1471.23 725.925 1468.67 727.815 1466.78C729.704 1464.89 732.268 1463.83 734.94 1463.83Z" fill="white"/>
</mask>
<g mask="url(#mask10_20_722)">
<path opacity="0.3" d="M734.94 1463.83H852.86C855.533 1463.83 858.096 1464.89 859.985 1466.78C861.875 1468.67 862.937 1471.23 862.937 1473.91V1558.06H724.863V1473.91C724.863 1471.23 725.925 1468.67 727.815 1466.78C729.704 1464.89 732.268 1463.83 734.94 1463.83Z" fill="black" fill-opacity="0.7"/>
<path opacity="0.3" d="M855.273 1472.73H821.344V1540.59H855.273V1472.73Z" fill="white" fill-opacity="0.7"/>
</g>
<path d="M734.94 1463.83H852.86C855.533 1463.83 858.096 1464.89 859.985 1466.78C861.875 1468.67 862.937 1471.23 862.937 1473.91V1558.06H724.863V1473.91C724.863 1471.23 725.925 1468.67 727.815 1466.78C729.704 1464.89 732.268 1463.83 734.94 1463.83Z" stroke="#263238" stroke-width="5" stroke-linecap="round" stroke-linejoin="round"/>
<path d="M938.62 1463.83H1056.54C1059.21 1463.83 1061.78 1464.89 1063.67 1466.78C1065.55 1468.67 1066.62 1471.23 1066.62 1473.91V1558.06H928.543V1473.91C928.543 1472.58 928.804 1471.27 929.31 1470.05C929.816 1468.83 930.559 1467.72 931.494 1466.78C932.43 1465.85 933.541 1465.1 934.764 1464.6C935.986 1464.09 937.296 1463.83 938.62 1463.83Z" fill="#4AF4C4"/>
<mask id="mask11_20_722" style="mask-type:luminance" maskUnits="userSpaceOnUse" x="928" y="1463" width="139" height="96">
<path d="M938.62 1463.83H1056.54C1059.21 1463.83 1061.78 1464.89 1063.67 1466.78C1065.55 1468.67 1066.62 1471.23 1066.62 1473.91V1558.06H928.543V1473.91C928.543 1472.58 928.804 1471.27 929.31 1470.05C929.816 1468.83 930.559 1467.72 931.494 1466.78C932.43 1465.85 933.541 1465.1 934.764 1464.6C935.986 1464.09 937.296 1463.83 938.62 1463.83Z" fill="white"/>
</mask>
<g mask="url(#mask11_20_722)">
<path opacity="0.3" d="M938.62 1463.83H1056.54C1059.21 1463.83 1061.78 1464.89 1063.67 1466.78C1065.55 1468.67 1066.62 1471.23 1066.62 1473.91V1558.06H928.543V1473.91C928.543 1472.58 928.804 1471.27 929.31 1470.05C929.816 1468.83 930.559 1467.72 931.494 1466.78C932.43 1465.85 933.541 1465.1 934.764 1464.6C935.986 1464.09 937.296 1463.83 938.62 1463.83Z" fill="black" fill-opacity="0.7"/>
<path opacity="0.3" d="M1056.7 1472.73H1036.23V1540.59H1056.7V1472.73Z" fill="white" fill-opacity="0.7"/>
</g>
<path d="M938.62 1463.83H1056.54C1059.21 1463.83 1061.78 1464.89 1063.67 1466.78C1065.55 1468.67 1066.62 1471.23 1066.62 1473.91V1558.06H928.543V1473.91C928.543 1472.58 928.804 1471.27 929.31 1470.05C929.816 1468.83 930.559 1467.72 931.494 1466.78C932.43 1465.85 933.541 1465.1 934.764 1464.6C935.986 1464.09 937.296 1463.83 938.62 1463.83Z" stroke="#263238" stroke-width="5" stroke-linecap="round" stroke-linejoin="round"/>
<path d="M895.741 1463.83H1013.66C1016.33 1463.83 1018.9 1464.89 1020.79 1466.78C1022.68 1468.67 1023.74 1471.23 1023.74 1473.91V1558.06H885.664V1473.91C885.664 1472.58 885.925 1471.27 886.431 1470.05C886.938 1468.83 887.68 1467.72 888.616 1466.78C889.551 1465.85 890.662 1465.1 891.885 1464.6C893.107 1464.09 894.418 1463.83 895.741 1463.83Z" fill="#4AF4C4" stroke="#263238" stroke-width="5" stroke-linecap="round" stroke-linejoin="round"/>
<path d="M1099.42 1463.83H1217.34C1220.01 1463.83 1222.58 1464.89 1224.47 1466.78C1226.36 1468.67 1227.42 1471.23 1227.42 1473.91V1558.06H1089.34V1473.91C1089.34 1471.23 1090.41 1468.67 1092.3 1466.78C1094.18 1464.89 1096.75 1463.83 1099.42 1463.83Z" fill="#4AF4C4" stroke="#263238" stroke-width="5" stroke-linecap="round" stroke-linejoin="round"/>
<path opacity="0.3" d="M1016.07 1472.73H982.145V1540.58H1016.07V1472.73Z" fill="white" fill-opacity="0.7"/>
<path opacity="0.3" d="M1217.5 1472.73H1183.57V1540.58H1217.5V1472.73Z" fill="white" fill-opacity="0.7"/>
<path d="M1287.5 1538.44V1925.38H664.082V1538.44C664.082 1531.97 666.651 1525.77 671.225 1521.2C675.799 1516.62 682.002 1514.05 688.47 1514.05H1263.12C1269.58 1514.05 1275.79 1516.62 1280.36 1521.2C1284.93 1525.77 1287.5 1531.97 1287.5 1538.44Z" fill="#4AF4C4"/>
<mask id="mask12_20_722" style="mask-type:luminance" maskUnits="userSpaceOnUse" x="664" y="1514" width="624" height="412">
<path d="M1287.5 1538.44V1925.38H664.082V1538.44C664.082 1531.97 666.651 1525.77 671.225 1521.2C675.799 1516.62 682.002 1514.05 688.47 1514.05H1263.12C1269.58 1514.05 1275.79 1516.62 1280.36 1521.2C1284.93 1525.77 1287.5 1531.97 1287.5 1538.44Z" fill="white"/>
</mask>
<g mask="url(#mask12_20_722)">
<path opacity="0.3" d="M1287.5 1538.44V1925.38H664.082V1538.44C664.082 1531.97 666.651 1525.77 671.225 1521.2C675.799 1516.62 682.002 1514.05 688.47 1514.05H1263.12C1269.58 1514.05 1275.79 1516.62 1280.36 1521.2C1284.93 1525.77 1287.5 1531.97 1287.5 1538.44Z" fill="black" fill-opacity="0.7"/>
</g>
<path d="M1287.5 1538.44V1925.38H664.082V1538.44C664.082 1531.97 666.651 1525.77 671.225 1521.2C675.799 1516.62 682.002 1514.05 688.47 1514.05H1263.12C1269.58 1514.05 1275.79 1516.62 1280.36 1521.2C1284.93 1525.77 1287.5 1531.97 1287.5 1538.44Z" stroke="#263238" stroke-width="5" stroke-linecap="round" stroke-linejoin="round"/>
<path d="M1287.5 1538.44V1925.38H824.883V1538.44C824.883 1531.97 827.452 1525.77 832.026 1521.2C836.599 1516.62 842.803 1514.05 849.271 1514.05H1263.12C1269.58 1514.05 1275.79 1516.62 1280.36 1521.2C1284.94 1525.77 1287.5 1531.97 1287.5 1538.44Z" fill="#4AF4C4" stroke="#263238" stroke-width="5" stroke-linecap="round" stroke-linejoin="round"/>
<path opacity="0.3" d="M1256.2 1552.22H860.739C858.067 1552.22 855.504 1551.15 853.614 1549.26C851.724 1547.37 850.662 1544.81 850.662 1542.14C850.634 1540.8 850.874 1539.46 851.367 1538.22C851.861 1536.97 852.598 1535.83 853.537 1534.87C854.476 1533.92 855.596 1533.15 856.833 1532.63C858.07 1532.11 859.398 1531.85 860.739 1531.85H1256.2C1258.87 1531.85 1261.44 1532.91 1263.33 1534.8C1265.22 1536.69 1266.28 1539.25 1266.28 1541.92C1266.31 1543.27 1266.07 1544.6 1265.57 1545.85C1265.08 1547.09 1264.34 1548.23 1263.4 1549.19C1262.46 1550.15 1261.34 1550.91 1260.11 1551.43C1258.87 1551.95 1257.54 1552.22 1256.2 1552.22Z" fill="white" fill-opacity="0.7"/>
<path d="M524.131 1925.38C491.971 1925.38 446.787 1904.69 394.741 1882.82C340.766 1860.09 279.287 1836.08 216.896 1832.49C193.634 1831.15 207.731 1925.38 207.731 1925.38H156.811C156.811 1925.38 106.534 1858.27 100.691 1798.19C100.691 1798.19 141.749 1772.83 151.611 1771.39C155.012 1771.03 158.43 1770.87 161.849 1770.9C172.891 1770.9 187.631 1771.39 187.631 1771.39C185.272 1769.99 147.699 1747.37 126.955 1724.38C109.857 1705.4 102.031 1675.44 101.442 1657.54C102.104 1645.69 103.411 1633.88 105.355 1622.16L372.926 1626.61C372.926 1626.61 375.82 1628.65 380.966 1632.46C412 1655.07 525.418 1739.33 582.127 1802.85C600.458 1823.38 612.839 1841.71 614.662 1855.11C623.184 1916.91 572.639 1925.38 524.131 1925.38Z" fill="#757575" stroke="#263238" stroke-width="5" stroke-linecap="round" stroke-linejoin="round"/>
<path d="M582.18 1802.74L452.039 1832.49C429.727 1845.25 410.206 1862.37 394.634 1882.82C340.659 1860.09 279.179 1836.08 216.789 1832.49C193.527 1831.15 207.623 1925.38 207.623 1925.38H156.703C156.703 1925.38 106.534 1858.27 100.691 1798.19C100.691 1798.19 148.074 1865.72 159.651 1900.03C159.651 1900.03 178.036 1836.56 207.891 1811.1C194.407 1795.92 179.085 1782.47 162.278 1771.06C173.319 1771.06 188.059 1771.55 188.059 1771.55C185.701 1770.15 148.127 1747.53 127.384 1724.54C110.286 1705.57 103.371 1675.55 101.871 1657.7C101.12 1648.91 102.192 1622.32 102.192 1622.32C102.192 1622.32 301.745 1650.79 381.395 1632.62C412.054 1655.13 525.471 1739.23 582.18 1802.74Z" fill="#263238"/>
<path d="M372.98 1798.19C372.98 1798.19 479.001 1851.31 507.302 1872.1C535.603 1892.9 544.018 1887.27 544.018 1887.27" stroke="#263238" stroke-width="5" stroke-linecap="round" stroke-linejoin="round"/>
<path d="M127.008 1792.56C127.008 1792.56 152.468 1831.42 153.808 1843.05" stroke="#263238" stroke-width="5" stroke-linecap="round" stroke-linejoin="round"/>
<path d="M553.451 1046.66C553.451 1046.66 609.891 1022.11 604.531 1126.53C599.171 1230.94 618.307 1236.3 618.307 1236.3C618.307 1236.3 476.267 1294.62 440.194 1244.77C404.121 1194.92 438.371 1058.51 553.451 1046.66Z" fill="#263238"/>
<path d="M545.572 1236.3C545.572 1236.3 487.148 1263.85 481.841 1289.31C476.535 1314.77 403.371 1276.44 403.371 1276.44L456.381 1200.22L545.572 1236.3Z" fill="white" stroke="#263238" stroke-width="5" stroke-linecap="round" stroke-linejoin="round"/>
<path d="M162.493 1515.77C28.4929 1686.43 137.247 1768.76 289.15 1755.15L258.705 1803.39L335.139 1816.63C335.139 1816.63 393.723 1778.36 473.587 1737.46C609.517 1667.78 664.457 1671.96 650.467 1602.23C636.478 1532.49 469.889 1487.25 302.871 1560.74C302.711 1560.69 212.019 1452.95 162.493 1515.77Z" fill="#757575" stroke="#263238" stroke-width="5" stroke-linecap="round" stroke-linejoin="round"/>
<path d="M209.231 1887.27C209.231 1887.27 244.125 1790.79 258.704 1785.43C273.283 1780.07 328.384 1800.97 335.138 1816.52C335.138 1816.52 353.737 1788 361.348 1800.12C368.959 1812.23 357.971 1832.28 361.348 1847.61C364.725 1862.94 402.406 1884.38 417.467 1887.22C432.529 1890.06 441.105 1898.53 441.105 1906.99V1925.38H209.231C206.658 1919.36 205.332 1912.87 205.332 1906.32C205.332 1899.77 206.658 1893.29 209.231 1887.27Z" fill="white" stroke="#263238" stroke-width="5" stroke-linecap="round" stroke-linejoin="round"/>
<path d="M361.347 1832.49C361.347 1832.49 330.634 1847.66 319.432 1843.21C308.23 1838.76 325.167 1868.67 329.402 1871.51C333.636 1874.35 361.562 1861.59 361.562 1861.59" stroke="#263238" stroke-width="5" stroke-linecap="round" stroke-linejoin="round"/>
<path d="M238.23 1816.57C238.23 1816.57 279.931 1817.38 292.634 1832.65" stroke="#263238" stroke-width="5" stroke-linecap="round" stroke-linejoin="round"/>
<path d="M209.23 1887.27C209.23 1887.27 275.694 1902.81 281.322 1902.81C290.463 1901 299.43 1898.4 308.122 1895.04C308.122 1895.04 326.346 1904.21 338.46 1909.89C350.574 1915.57 429.58 1909.89 429.58 1909.89" stroke="#263238" stroke-width="5" stroke-linecap="round" stroke-linejoin="round"/>
<path d="M289.148 1755.25C352.611 1748.39 475.891 1670.19 518.771 1643.02C561.651 1615.84 572.371 1622.97 572.371 1622.97" stroke="#263238" stroke-width="5" stroke-linecap="round" stroke-linejoin="round"/>
<path d="M101.816 1622.06L111.947 1545.14L136.388 1526.7C175.999 1430.6 355.452 1251.09 404.388 1251.68C477.874 1252.54 490.845 1329.67 499.904 1414.09C508.962 1498.51 394.472 1485.81 394.472 1485.81V1506.98L329.348 1540.69L368.798 1539.46C368.798 1539.46 255.327 1649.77 101.816 1622.06Z" fill="#4AF4C4" stroke="#263238" stroke-width="5" stroke-linecap="round" stroke-linejoin="round"/>
<path d="M419.881 1103.05C435.264 1054.81 505.641 1041.94 530.94 1049.82C551.707 1057.93 568.725 1073.46 578.697 1093.4C585.129 1107.28 571.676 1131.83 581.27 1146.14C594.992 1166.67 593.813 1209.98 588.881 1237.26C586.201 1251.73 526.009 1260.31 476.804 1226.54C423.954 1189.99 404.98 1149.47 419.881 1103.05Z" fill="white" stroke="#263238" stroke-width="5" stroke-linecap="round" stroke-linejoin="round"/>
<path d="M491.007 1035.41C491.007 1035.41 552.969 1025.33 553.398 1041.25C556.131 1147 492.722 1169.19 492.722 1169.19C492.722 1169.19 466.833 1148.55 461.045 1162.71C455.256 1176.86 470.157 1215.98 488.488 1216.79C484.264 1223.35 481.955 1230.96 481.823 1238.76C481.69 1246.57 483.739 1254.25 487.738 1260.95C487.738 1260.95 382.789 1278.48 374.105 1229.87C378.162 1212.97 381.064 1195.81 382.789 1178.52C389.596 1110.39 373.677 1064.56 491.007 1035.41Z" fill="#263238"/>
<path d="M573.766 1143.2C586.683 1154.83 595.956 1154.83 595.795 1159.01C595.313 1172.03 579.715 1178.52 579.715 1178.52" fill="white"/>
<path d="M573.766 1143.2C586.683 1154.83 595.956 1154.83 595.795 1159.01C595.313 1172.03 579.715 1178.52 579.715 1178.52" stroke="#263238" stroke-width="5" stroke-linecap="round" stroke-linejoin="round"/>
<path d="M579.392 1200.22C570.264 1203.31 560.413 1203.56 551.145 1200.92" stroke="#263238" stroke-width="5" stroke-linecap="round" stroke-linejoin="round"/>
<path d="M545.036 1078.29C545.036 1078.29 586.254 1066.33 578.697 1133.23C578.697 1133.23 595.849 1109.91 595.795 1083.7C595.795 1038.3 535.066 1047.41 535.066 1047.41L542.999 1079.57" fill="#263238"/>
<path d="M582.501 1111.03C580.941 1110 579.186 1109.29 577.344 1108.95C575.502 1108.61 573.609 1108.64 571.781 1109.05" stroke="#263238" stroke-width="5" stroke-linecap="round" stroke-linejoin="round"/>
<path d="M554.735 1110.29C554.735 1110.29 532.598 1111.57 523.004 1126.37" stroke="#263238" stroke-width="5" stroke-linecap="round" stroke-linejoin="round"/>
<path d="M549.429 1145.5C549.751 1149.04 548.25 1152.09 546.052 1152.31C543.855 1152.52 541.818 1149.79 541.443 1146.25C541.067 1142.71 542.622 1139.66 544.82 1139.44C547.017 1139.23 549.108 1141.96 549.429 1145.5Z" fill="#263238"/>
<path d="M292.633 1771.33C292.633 1771.33 341.945 1776.69 352.665 1798.13" stroke="#263238" stroke-width="5" stroke-linecap="round" stroke-linejoin="round"/>
<path d="M417.469 1287.86C438.132 1276.4 462.425 1273.36 485.273 1279.39C524.508 1289.31 626.241 1434.83 640.391 1449.04C654.542 1463.24 681.02 1470.48 705.408 1496.15C744 1536.4 800.119 1571.99 805.801 1571.99C811.482 1571.99 816.038 1568.46 823.114 1567.06C830.189 1565.67 884.968 1560.69 884.968 1560.69C884.968 1560.69 903.353 1564.81 884.968 1572.64C866.583 1580.46 867.977 1587.59 867.977 1587.59C867.977 1587.59 864.332 1593.49 871.675 1599.17C879.018 1604.85 883.414 1601.74 893.973 1616.7C904.532 1631.65 879.072 1623.18 879.072 1623.18C879.072 1623.18 884.7 1639.26 873.39 1637.65C862.081 1636.05 871.997 1653.36 853.612 1651C835.227 1648.64 795.885 1623.83 786.022 1597.83C786.022 1597.83 625.544 1521.13 601.531 1501.35C577.518 1481.57 476.536 1375.5 469.407 1374.1" fill="white"/>
<path d="M417.469 1287.86C438.132 1276.4 462.425 1273.36 485.273 1279.39C524.508 1289.31 626.241 1434.83 640.391 1449.04C654.542 1463.24 681.02 1470.48 705.408 1496.15C744 1536.4 800.119 1571.99 805.801 1571.99C811.482 1571.99 816.038 1568.46 823.114 1567.06C830.189 1565.67 884.968 1560.69 884.968 1560.69C884.968 1560.69 903.353 1564.81 884.968 1572.64C866.583 1580.46 867.977 1587.59 867.977 1587.59C867.977 1587.59 864.332 1593.49 871.675 1599.17C879.018 1604.85 883.414 1601.74 893.973 1616.7C904.532 1631.65 879.072 1623.18 879.072 1623.18C879.072 1623.18 884.7 1639.26 873.39 1637.65C862.081 1636.05 871.997 1653.36 853.612 1651C835.227 1648.64 795.885 1623.83 786.022 1597.83C786.022 1597.83 625.544 1521.13 601.531 1501.35C577.518 1481.57 476.536 1375.5 469.407 1374.1" stroke="#263238" stroke-width="5" stroke-linecap="round" stroke-linejoin="round"/>
<path d="M394.418 1272.32C394.418 1272.32 473.532 1251.14 501.136 1266.69C528.74 1282.23 581.053 1354.32 581.053 1354.32C581.053 1354.32 517.269 1411.41 497.544 1406.21C477.82 1401.01 417.466 1392.49 417.466 1392.49" fill="#4AF4C4"/>
<path d="M394.418 1272.32C394.418 1272.32 473.532 1251.14 501.136 1266.69C528.74 1282.23 581.053 1354.32 581.053 1354.32C581.053 1354.32 517.269 1411.41 497.544 1406.21C477.82 1401.01 417.466 1392.49 417.466 1392.49" stroke="#263238" stroke-width="5" stroke-linecap="round" stroke-linejoin="round"/>
<path d="M463.028 1399.46C463.028 1399.46 434.352 1415.22 423.793 1415.22" stroke="#263238" stroke-width="5" stroke-linecap="round" stroke-linejoin="round"/>
<path d="M417.469 1320.4C419.881 1324.63 419.077 1370.99 469.407 1385.41" stroke="#263238" stroke-width="5" stroke-linecap="round" stroke-linejoin="round"/>
<path d="M148.449 1528.2C148.449 1528.2 255.649 1546.59 292.633 1514.05" stroke="#263238" stroke-width="5" stroke-linecap="round" stroke-linejoin="round"/>
<path d="M329.294 1540.69C329.294 1540.69 302.495 1535.97 292.632 1549.75C282.77 1563.53 229.062 1576.55 229.062 1576.55" stroke="#263238" stroke-width="5" stroke-linecap="round" stroke-linejoin="round"/>
<path d="M113.824 1643.02C113.824 1643.02 98.3336 1709.8 164.422 1739.5" stroke="#263238" stroke-width="5" stroke-linecap="round" stroke-linejoin="round"/>
<path d="M148.449 1647.63C148.449 1647.63 148.824 1680.54 159.169 1698.55L192.026 1709.27L228.796 1688.79C228.796 1688.79 220.97 1646.71 220.273 1638.19" stroke="#263238" stroke-width="5" stroke-linecap="round" stroke-linejoin="round"/>
</svg>
